<svg id="a511de94-87ee-41b0-83a3-ae728ca38d55" data-name="Capa 1" xmlns="http://www.w3.org/2000/svg" viewBox="0 0 376.85106 560.68085"><rect width="376.85106" height="560.68085" rx="25.30614" style="opacity:0.05"/><g style="opacity:0.4"><path d="M184.46987,473.77243l-2.08123,7.32356h-6.85072l8.93195-28.52839h8.67179l9.062,28.52839h-7.11087l-2.25467-7.32356Zm7.41438-4.8233-1.82107-6.05375c-.52031-1.69308-1.04062-3.80943-1.47421-5.50251h-.08672c-.43359,1.69308-.86718,3.85078-1.34412,5.50251l-1.73436,6.05375Z" transform="translate(-133.25532 -32.91489)" style="fill:#fff"/><path d="M225.83937,451.04382v23.87243c0,2.329.08672,4.782.17344,6.17974h-5.85346l-.30352-3.04755h-.08672a7.44742,7.44742,0,0,1-6.63392,3.51216c-5.02964,0-9.062-4.18939-9.062-10.62309-.04336-6.98494,4.42261-11.005,9.49561-11.005,2.60154,0,4.63941.88985,5.59331,2.327h.08672V451.04382Zm-6.59056,18.116a10.15275,10.15275,0,0,0-.08672-1.14382,3.93281,3.93281,0,0,0-3.85895-3.17354c-2.99177,0-4.55269,2.62428-4.55269,5.88247,0,3.51413,1.77772,5.71513,4.50933,5.71513a3.83548,3.83548,0,0,0,3.81559-3.08889,5.36958,5.36958,0,0,0,.17344-1.48243Z" transform="translate(-133.25532 -32.91489)" style="fill:#fff"/><path d="M231.1332,467.00012c0-2.581-.08672-4.782-.17344-6.603h5.55l.30351,2.79555h.13008a7.39179,7.39179,0,0,1,6.41713-3.26017,6.02162,6.02162,0,0,1,5.8101,3.51216h.08672a9.41289,9.41289,0,0,1,2.73162-2.49631,7.7946,7.7946,0,0,1,4.03238-1.01585c4.07574,0,7.15423,2.79358,7.15423,8.97332V481.096h-6.41713V469.837c0-3.0062-.99725-4.74062-3.12184-4.74062a3.21485,3.21485,0,0,0-3.03513,2.24234,5.276,5.276,0,0,0-.26016,1.65174V481.096H243.9241v-11.5976c0-2.62427-.9539-4.402-3.03513-4.402a3.3389,3.3389,0,0,0-3.07849,2.329,4.1643,4.1643,0,0,0-.26015,1.60646V481.096H231.1332Z" transform="translate(-133.25532 -32.91489)" style="fill:#fff"/><path d="M275.23532,454.64063a3.27453,3.27453,0,0,1-3.55543,3.21686,3.244,3.244,0,1,1,.04336-6.47505A3.26937,3.26937,0,0,1,275.23532,454.64063ZM268.428,481.096V460.39711h6.59056V481.096Z" transform="translate(-133.25532 -32.91489)" style="fill:#fff"/><path d="M280.31034,467.00012c0-2.581-.08672-4.782-.17343-6.603h5.72338l.30351,2.83689h.13008a7.806,7.806,0,0,1,6.5472-3.30151c4.3359,0,7.58782,2.79358,7.58782,8.88867V481.096h-6.59056V469.62636c0-2.66759-.9539-4.48863-3.33864-4.48863a3.50688,3.50688,0,0,0-3.33864,2.41362,4.329,4.329,0,0,0-.26016,1.60843V481.096h-6.59056Z" transform="translate(-133.25532 -32.91489)" style="fill:#fff"/><path d="M312.5311,454.64063a3.27453,3.27453,0,0,1-3.55544,3.21686,3.244,3.244,0,1,1,.04336-6.47505A3.26939,3.26939,0,0,1,312.5311,454.64063ZM305.72374,481.096V460.39711h6.59056V481.096Z" transform="translate(-133.25532 -32.91489)" style="fill:#fff"/><path d="M317.56276,475.46551a13.10559,13.10559,0,0,0,5.68,1.56709c1.99452,0,2.81834-.67723,2.81834-1.73639,0-1.05719-.65039-1.56512-3.12185-2.37032-4.37926-1.43714-6.07026-3.76611-6.0269-6.22108,0-3.85077,3.382-6.77232,8.62844-6.77232a14.53545,14.53545,0,0,1,5.98354,1.18516l-1.1707,4.44532a10.60259,10.60259,0,0,0-4.596-1.18516c-1.60428,0-2.51482.63392-2.51482,1.69308,0,.97254.82382,1.48046,3.42536,2.37031,4.03239,1.35447,5.72339,3.34285,5.76674,6.39039,0,3.85078-3.12184,6.68767-9.1921,6.68767a15.31754,15.31754,0,0,1-6.85072-1.43912Z" transform="translate(-133.25532 -32.91489)" style="fill:#fff"/><path d="M343.798,454.47133v5.92578h4.72613v4.74062H343.798v7.49286c0,2.49631.607,3.64012,2.60154,3.64012a11.01753,11.01753,0,0,0,1.95115-.16931L348.394,480.97a13.22706,13.22706,0,0,1-4.29254.54927,6.94545,6.94545,0,0,1-4.94292-1.77774c-1.214-1.22846-1.82108-3.21685-1.82108-6.13839v-8.4654h-2.81833v-4.74062h2.81833v-4.4847Z" transform="translate(-133.25532 -32.91489)" style="fill:#fff"/><path d="M352.34169,467.21274c0-3.04755-.08671-5.03593-.17343-6.81563h5.68l.2168,3.81139h.17344a6.21412,6.21412,0,0,1,5.72338-4.276,6.95482,6.95482,0,0,1,1.38749.08466v6.05374a9.50045,9.50045,0,0,0-1.77772-.16931c-2.4281,0-4.07574,1.26784-4.50933,3.2582a7.411,7.411,0,0,0-.13008,1.43911V481.096h-6.59057Z" transform="translate(-133.25532 -32.91489)" style="fill:#fff"/><path d="M380.399,481.096l-.39023-2.075h-.13007a7.72111,7.72111,0,0,1-6.07026,2.53962c-4.29254,0-6.85072-3.04754-6.85072-6.34708,0-5.37651,4.94292-7.95747,12.444-7.91613v-.29727c0-1.09854-.607-2.66562-3.85895-2.66562a12.14472,12.14472,0,0,0-5.85346,1.56708l-1.214-4.15a17.86211,17.86211,0,0,1,8.2382-1.81908c7.06751,0,9.32218,4.06339,9.32218,8.93v7.19756a31.30382,31.30382,0,0,0,.30351,5.03593Zm-.78046-9.77655c-3.46872-.04331-6.157.75991-6.157,3.25819a2.3419,2.3419,0,0,0,2.60154,2.455,3.59571,3.59571,0,0,0,3.42536-2.37031,4.51526,4.51526,0,0,0,.13007-1.10051Z" transform="translate(-133.25532 -32.91489)" style="fill:#fff"/><path d="M407.1555,480.58806a16.42914,16.42914,0,0,1-5.89682.9312c-6.85071,0-11.23-4.06339-11.23-10.58175,0-6.05177,4.24918-11.005,12.14051-11.005a15.627,15.627,0,0,1,5.02964.80323l-1.04061,4.78394a9.21345,9.21345,0,0,0-3.68552-.63392,5.79842,5.79842,0,0,0,.13008,11.59562,10.36861,10.36861,0,0,0,3.77223-.63392Z" transform="translate(-133.25532 -32.91489)" style="fill:#fff"/><path d="M417.608,454.64063a3.27453,3.27453,0,0,1-3.55544,3.21686,3.244,3.244,0,1,1,.04336-6.47505A3.26939,3.26939,0,0,1,417.608,454.64063ZM410.80068,481.096V460.39711h6.59057V481.096Z" transform="translate(-133.25532 -32.91489)" style="fill:#fff"/><path d="M443.62544,470.51424c0,7.57752-5.50659,11.04636-11.18661,11.04636-6.20034,0-10.96982-3.97677-10.96982-10.6664,0-6.6857,4.50933-10.96171,11.31669-10.96171C439.28954,459.93249,443.62544,464.29119,443.62544,470.51424Zm-15.34908.21065c0,3.55547,1.51757,6.22305,4.3359,6.22305,2.55818,0,4.20582-2.49827,4.20582-6.22305,0-3.08888-1.214-6.22108-4.20582-6.22108C429.44706,464.50381,428.27636,467.67735,428.27636,470.72489ZM439.463,451.38244l-5.2898,6.4337h-4.55269l3.72887-6.4337Z" transform="translate(-133.25532 -32.91489)" style="fill:#fff"/><path d="M447.70522,467.00012c0-2.581-.08672-4.782-.17344-6.603h5.72339l.30351,2.83689h.13008a7.806,7.806,0,0,1,6.5472-3.30151c4.3359,0,7.58782,2.79358,7.58782,8.88867V481.096h-6.59056V469.62636c0-2.66759-.9539-4.48863-3.33864-4.48863a3.50688,3.50688,0,0,0-3.33864,2.41362,4.329,4.329,0,0,0-.26016,1.60843V481.096h-6.59056Z" transform="translate(-133.25532 -32.91489)" style="fill:#fff"/><path d="M247.99984,519.836h-10.753v6.77232h12.01044v5.28989H230.61289V503.36983h18.03733v5.29186H237.24681v5.92578h10.753Z" transform="translate(-133.25532 -32.91489)" style="fill:#fff"/><path d="M273.93254,501.84606v23.87242c0,2.327.08672,4.78393.17343,6.17974h-5.85346l-.30351-3.04754h-.08672a7.445,7.445,0,0,1-6.63392,3.51412c-5.02964,0-9.062-4.19135-9.062-10.62506-.04335-6.983,4.42262-11.005,9.49562-11.005,2.60154,0,4.63941.88788,5.59331,2.329h.08671V501.84606ZM267.342,519.962a10.11811,10.11811,0,0,0-.08671-1.14185,3.93259,3.93259,0,0,0-3.85895-3.1755c-2.99177,0-4.55269,2.62427-4.55269,5.88443,0,3.51216,1.77771,5.71316,4.50933,5.71316a3.83529,3.83529,0,0,0,3.81559-3.09085,5.3371,5.3371,0,0,0,.17343-1.48046Z" transform="translate(-133.25532 -32.91489)" style="fill:#fff"/><path d="M299.21485,525.25387c0,2.70892.08672,4.90993.17344,6.64435H293.6649l-.30351-2.91958h-.13008a7.60689,7.60689,0,0,1-6.63392,3.38616c-4.29254,0-7.45774-2.62624-7.45774-9.01663V511.20131h6.63392v11.131c0,3.00423.99726,4.82528,3.29528,4.82528a3.46093,3.46093,0,0,0,3.51208-3.64012V511.20131h6.63392Z" transform="translate(-133.25532 -32.91489)" style="fill:#fff"/><path d="M320.42142,531.3903a16.4294,16.4294,0,0,1-5.89682.93119c-6.85071,0-11.23-4.06339-11.23-10.58175,0-6.05374,4.24918-11.005,12.14051-11.005a15.62611,15.62611,0,0,1,5.02964.80519l-1.04061,4.782a9.207,9.207,0,0,0-3.68551-.63589,5.80041,5.80041,0,0,0,.13007,11.59956,10.40714,10.40714,0,0,0,3.77223-.63589Z" transform="translate(-133.25532 -32.91489)" style="fill:#fff"/><path d="M336.29383,531.89822l-.39023-2.073h-.13007a7.72754,7.72754,0,0,1-6.07026,2.53962c-4.29254,0-6.85072-3.04754-6.85072-6.351,0-5.37454,4.94292-7.95747,12.444-7.91416v-.2953c0-1.10247-.607-2.66759-3.85895-2.66759a12.14458,12.14458,0,0,0-5.85346,1.56512l-1.214-4.14608a17.83222,17.83222,0,0,1,8.2382-1.821c7.06751,0,9.32218,4.06339,9.32218,8.932v7.19362a31.33067,31.33067,0,0,0,.30351,5.0379Zm-.78046-9.77852c-3.46872-.04134-6.157.76386-6.157,3.26016a2.34289,2.34289,0,0,0,2.60154,2.455,3.59305,3.59305,0,0,0,3.42535-2.37031,4.50313,4.50313,0,0,0,.13008-1.1005Z" transform="translate(-133.25532 -32.91489)" style="fill:#fff"/><path d="M354.16176,505.27553v5.92578h4.72613v4.74062h-4.72613v7.49089c0,2.49828.607,3.64012,2.60154,3.64012a11.01877,11.01877,0,0,0,1.95116-.1693l.04335,4.86662a13.217,13.217,0,0,1-4.29253.55123,6.9541,6.9541,0,0,1-4.94293-1.77773c-1.21405-1.2265-1.82107-3.21685-1.82107-6.13643v-8.4654h-2.81834v-4.74062h2.81834v-4.48863Z" transform="translate(-133.25532 -32.91489)" style="fill:#fff"/><path d="M369.51286,505.44484a3.27678,3.27678,0,0,1-3.55544,3.21685,3.24489,3.24489,0,1,1,.04336-6.477A3.27089,3.27089,0,0,1,369.51286,505.44484Zm-6.80736,26.45338V511.20131h6.59056v20.69691Z" transform="translate(-133.25532 -32.91489)" style="fill:#fff"/><path d="M379.48744,511.20131l2.86169,9.60724a46.98184,46.98184,0,0,1,1.214,5.03593h.13008c.34687-1.69308.69374-3.2582,1.17069-5.03593l2.73161-9.60724H394.533l-7.89133,20.69691H380.0511l-7.71789-20.69691Z" transform="translate(-133.25532 -32.91489)" style="fill:#fff"/><path d="M409.32345,531.89822l-.39023-2.073h-.13008a7.7275,7.7275,0,0,1-6.07025,2.53962c-4.29254,0-6.85072-3.04754-6.85072-6.351,0-5.37454,4.94292-7.95747,12.444-7.91416v-.2953c0-1.10247-.607-2.66759-3.85895-2.66759a12.14458,12.14458,0,0,0-5.85346,1.56512l-1.21406-4.14608a17.8323,17.8323,0,0,1,8.23821-1.821c7.06751,0,9.32218,4.06339,9.32218,8.932v7.19362a31.33067,31.33067,0,0,0,.30351,5.0379Zm-.78046-9.77852c-3.46872-.04134-6.157.76386-6.157,3.26016a2.34289,2.34289,0,0,0,2.60153,2.455,3.59307,3.59307,0,0,0,3.42536-2.37031,4.50313,4.50313,0,0,0,.13008-1.1005Z" transform="translate(-133.25532 -32.91489)" style="fill:#fff"/></g><rect x="58.98399" y="56.57502" width="84.74648" height="276.3323" style="fill:none;stroke:#fff;stroke-miterlimit:10"/><path d="M214.90531,143.38235l-2.42551,9.79885h-7.9863l10.41181-38.181h10.10628l10.55988,38.181h-8.28714l-2.62764-9.79885Zm8.63969-6.46055-2.12232-8.09939c-.60637-2.26594-1.21275-5.09836-1.71806-7.36429h-.10107c-.50531,2.26593-1.01062,5.15632-1.56764,7.36429l-2.02126,8.09939Z" transform="translate(-133.25532 -32.91489)" style="fill:#fff"/><path d="M238.25316,148.536l16.22175-26.17154v-.22659H239.77145v-7.13769h24.70868v4.98505l-15.86686,25.83165v.22659h16.11834v7.1377H238.25316Z" transform="translate(-133.25532 -32.91489)" style="fill:#fff"/><rect x="146.05229" y="56.57502" width="84.74648" height="276.3323" style="fill:none;stroke:#fff;stroke-miterlimit:10"/><ellipse cx="189.1825" cy="284.75396" rx="24.97995" ry="23.42596" style="fill:none;stroke:#fff;stroke-miterlimit:10"/><ellipse cx="275.47686" cy="284.75396" rx="24.97995" ry="23.42596" style="fill:none;stroke:#fff;stroke-miterlimit:10"/><ellipse cx="101.3742" cy="284.75396" rx="24.97995" ry="23.42596" style="fill:none;stroke:#fff;stroke-miterlimit:10"/><path d="M301.97361,143.38235l-2.42551,9.79885h-7.98631l10.41182-38.181h10.10628l10.55988,38.181h-8.28715l-2.62763-9.79885Zm8.63969-6.46055-2.12232-8.09939c-.60637-2.26594-1.21275-5.09836-1.71806-7.36429h-.10107c-.50531,2.26593-1.01062,5.15632-1.56764,7.36429L303.083,136.9218Z" transform="translate(-133.25532 -32.91489)" style="fill:#fff"/><path d="M325.32146,148.536l16.22175-26.17154v-.22659H326.83975v-7.13769h24.70868v4.98505l-15.86686,25.83165v.22659h16.11834v7.1377H325.32146Z" transform="translate(-133.25532 -32.91489)" style="fill:#fff"/><rect x="233.12059" y="56.57502" width="84.74648" height="276.3323" style="fill:none;stroke:#fff;stroke-miterlimit:10"/><path d="M389.04191,143.38235l-2.42551,9.79885h-7.98631l10.41182-38.181h10.10628l10.55988,38.181h-8.28715l-2.62763-9.79885Zm8.63969-6.46055-2.12232-8.09939c-.60637-2.26594-1.21275-5.09836-1.71806-7.36429h-.10107c-.50531,2.26593-1.01062,5.15632-1.56764,7.36429l-2.02126,8.09939Z" transform="translate(-133.25532 -32.91489)" style="fill:#fff"/><path d="M412.38976,148.536l16.22175-26.17154v-.22659H413.90805v-7.13769h24.70868v4.98505l-15.86686,25.83165v.22659h16.11834v7.1377H412.38976Z" transform="translate(-133.25532 -32.91489)" style="fill:#fff"/></svg>