<svg id="bebaa079-a740-4d90-82f3-bbda746b1f54" data-name="Capa 1" xmlns="http://www.w3.org/2000/svg" viewBox="0 0 368.93617 560.68085"><rect width="368.93617" height="560.68085" rx="23.19797" style="opacity:0.05"/><path d="M384.4595,171.90581c-2.54985-10.26082-6.41467-20.02081-13.77842-27.95658-6.182-6.66224-13.59308-10.20718-23.02712-9.88579-11.92456.40617-23.63068-.16229-35.83619-.16229.53068,10.05357.34868,28.16122,1.592,28.57449,11.14415,3.70411,9.76344,17.606,4.19421,22.58431a6.43728,6.43728,0,0,0-1.92434,2.6962c-3.5275,11.775-11.21865,19.80374-22.33664,24.67016-1.94189.85-2.56877,1.8068-2.56494,3.8901q.11427,62.03994.08453,124.08007c.00143,4.9385.06187,9.878-.01839,14.81528-.1306,8.02776,3.447,13.47791,11.11591,16.70272q4.57464.03817,9.1492.07648l.00745-.0042c7.48606-2.61413,11.47208-8.01145,11.50583-15.92339.06393-14.9818.03789-29.964.03731-44.946-.00091-22.47278.01684-44.94572-.0642-67.41824-.008-2.2111,1.00136-2.40837,2.74225-2.36015,1.83151.0508,3.32241-.20512,3.31309,2.60754-.09665,29.08283-.05409,58.16613-.05,87.24925.0011,7.75553.19382,15.51687-.04574,23.265-.26682,8.63052,3.29929,14.505,11.332,17.89113q4.35969.056,8.71978.10471c.03025-.02016.05914-.04167.09036-.06072h-.5216c1.29319-.55564,2.167-.86615,2.98077-1.29111,6.0379-3.15279,9.09589-8.077,9.08876-14.93891q-.04236-40.74273-.0068-81.48553.0002-52.25108-.00376-104.50221-.00009-1.68951-.00006-3.379l.58651-.21042c.54648,1.19219,1.18916,2.35056,1.62442,3.58189a107.463,107.463,0,0,1,5.97675,32.66714c.43286,14.26315.09989,28.54972.07476,42.82615-.00888,5.029,2.65959,8.91041,7.15645,10.28637a10.0039,10.0039,0,0,0,11.592-4.1541,9.84539,9.84539,0,0,0,1.58911-4.40479C390.38067,222.06027,390.63908,196.7734,384.4595,171.90581Z" transform="translate(-137.85106 -34.44681)" style="fill:none;stroke:#fff;stroke-miterlimit:10"/><path d="M305.98036,165.65059c0-8.46652-1.46046-31.95534-2.1227-31.74944a34.99574,34.99574,0,0,0-14.96589,3.87027c-9.13716,5.42121-15.1191,13.65571-19.6764,23.00791-3.1652,6.49558-5.32249,13.255-4.67968,20.638.79459,9.12555,7.19688,15.80354,16.357,15.93948a33.12411,33.12411,0,0,0,13.38722-2.43989,178.15873,178.15873,0,0,0,20.45674-11.05372,9.9157,9.9157,0,0,0,3.26618-14.08707c-3.2965-5.01782-9.35773-6.09429-14.67775-2.83411-4.66251,2.85727-9.457,5.50341-14.23738,8.164a26.20269,26.20269,0,0,1-3.872,1.35228,41.67478,41.67478,0,0,1,9.03073-16.69785q.42559.21471.85114.42939c-.79206,3.87325-1.85341,9.16482-2.38409,12.86892" transform="translate(-137.85106 -34.44681)" style="fill:none;stroke:#fff;stroke-miterlimit:10"/><path d="M290.59081,196.34172c-.16189,3.21376,0,6.879,0,10.054,4.77606,0,16.98157-11.11231,17.51224-18.52051" transform="translate(-137.85106 -34.44681)" style="fill:none;stroke:#fff;stroke-miterlimit:10"/><ellipse cx="187.4989" cy="63.73621" rx="28.92174" ry="28.83908" style="fill:none;stroke:#fff;stroke-miterlimit:10"/><path d="M264.58777,182.58362c-.60635,1.93481-4.51251,11.17678-5.0826,13.25048-2.89017,10.51348-6.66685,20.80605-3.31765,31.77008,4.21449,13.79669,17.11816,19.62766,30.42051,21.57834a7.02218,7.02218,0,0,0,1.56235-.13109V214.47165a116.59712,116.59712,0,0,1-17.27881,1.522,4.04749,4.04749,0,0,1-1.52773-2.71891,4.21236,4.21236,0,0,1,1.53077-3.49963c6.38244.00634,12.92615-.47244,17.04283-1.79194,0-3.17495.08654-8.61683,0-11.11231" transform="translate(-137.85106 -34.44681)" style="fill:none;stroke:#fff;stroke-miterlimit:10"/><g style="opacity:0.4"><path d="M235.20188,438.64974a51.65141,51.65141,0,0,1,8.36231-.59455c3.9477,0,6.36725.38193,8.44722,1.61039a6.20573,6.20573,0,0,1,3.43831,5.58717c0,2.53962-1.48569,4.90993-4.71176,6.09508v.08269c3.26852.88985,5.68807,3.34482,5.68807,7.02825a7.59231,7.59231,0,0,1-2.97138,6.05177c-2.08,1.64977-5.56073,2.58293-11.2488,2.58293a49.97,49.97,0,0,1-7.004-.42523Zm6.40969,10.91839H243.734c3.39586,0,5.22114-1.39581,5.22114-3.51215,0-2.1577-1.65548-3.30151-4.58442-3.30151a17.715,17.715,0,0,0-2.75914.16931Zm0,12.65676a20.4711,20.4711,0,0,0,2.50445.08465c2.92894,0,5.51828-1.1005,5.51828-4.1067,0-2.87824-2.58934-4.02008-5.81542-4.02008h-2.20731Z" transform="translate(-137.85106 -34.44681)" style="fill:#fff"/><path d="M267.29675,440.34282a3.237,3.237,0,0,1-3.48076,3.21685,3.24133,3.24133,0,1,1,.04245-6.477A3.23241,3.23241,0,0,1,267.29675,440.34282Zm-6.66438,26.45338V446.09929h6.45214V466.7962Z" transform="translate(-137.85106 -34.44681)" style="fill:#fff"/><path d="M277.23163,458.50011c.21224,2.66759,2.844,3.93543,5.85787,3.93543A18.30143,18.30143,0,0,0,288.82,461.589l.849,4.36066a20.54185,20.54185,0,0,1-7.51335,1.26981c-7.04642,0-11.079-4.06339-11.079-10.5404,0-5.24855,3.26852-11.04636,10.48473-11.04636,6.70684,0,9.25373,5.2072,9.25373,10.32778a15.25147,15.25147,0,0,1-.21224,2.53962Zm7.59825-4.402c0-1.56511-.67917-4.19135-3.65055-4.19135-2.7167,0-3.82035,2.45693-3.99015,4.19135Z" transform="translate(-137.85106 -34.44681)" style="fill:#fff"/><path d="M294.68184,452.7023c0-2.58293-.0849-4.78394-.16979-6.603h5.60317l.29714,2.83492h.12735a7.60637,7.60637,0,0,1,6.40969-3.3015c4.24483,0,7.42846,2.79358,7.42846,8.88866V466.7962h-6.45215V455.3246c0-2.66561-.93386-4.48469-3.26852-4.48469a3.4416,3.4416,0,0,0-3.26852,2.41165A4.40569,4.40569,0,0,0,301.134,454.86V466.7962h-6.45214Z" transform="translate(-137.85106 -34.44681)" style="fill:#fff"/><path d="M324.52794,458.50011c.21224,2.66759,2.844,3.93543,5.85787,3.93543a18.30143,18.30143,0,0,0,5.73052-.84654l.849,4.36066a20.54185,20.54185,0,0,1-7.51335,1.26981c-7.04642,0-11.079-4.06339-11.079-10.5404,0-5.24855,3.26852-11.04636,10.48473-11.04636,6.70683,0,9.25373,5.2072,9.25373,10.32778a15.25147,15.25147,0,0,1-.21224,2.53962Zm7.59825-4.402c0-1.56511-.67917-4.19135-3.65055-4.19135-2.7167,0-3.82035,2.45693-3.99015,4.19135Z" transform="translate(-137.85106 -34.44681)" style="fill:#fff"/><path d="M341.9357,461.1677a12.65292,12.65292,0,0,0,5.56073,1.56511c1.95262,0,2.75914-.67723,2.75914-1.73442,0-1.05916-.63672-1.56709-3.05628-2.37031C342.912,457.187,341.25653,454.86,341.299,452.405c0-3.85274,3.311-6.77231,8.44721-6.77231a13.944,13.944,0,0,1,5.85787,1.18515l-1.14611,4.44335a10.21085,10.21085,0,0,0-4.49952-1.18516c-1.57059,0-2.462.63589-2.462,1.69308,0,.97451.80652,1.48243,3.35342,2.37032,3.94769,1.35446,5.60318,3.34481,5.64562,6.39236,0,3.85274-3.05628,6.68766-8.999,6.68766a14.73191,14.73191,0,0,1-6.70683-1.43912Z" transform="translate(-137.85106 -34.44681)" style="fill:#fff"/><path d="M367.61989,440.17351v5.92578h4.62687v4.74062h-4.62687v7.49089c0,2.49828.59428,3.64012,2.5469,3.64012a10.56722,10.56722,0,0,0,1.91018-.1693l.04245,4.86662a12.68666,12.68666,0,0,1-4.20239.55123,6.726,6.726,0,0,1-4.83911-1.77773c-1.18855-1.2265-1.78283-3.21685-1.78283-6.13643v-8.4654H358.536v-4.74062h2.75914v-4.48863Z" transform="translate(-137.85106 -34.44681)" style="fill:#fff"/><path d="M387.78482,466.7962l-.382-2.073h-.12734a7.49088,7.49088,0,0,1-5.94277,2.53962,6.35456,6.35456,0,0,1-6.70683-6.351c0-5.37454,4.83911-7.95747,12.18267-7.91416v-.2953c0-1.10247-.59428-2.66759-3.7779-2.66759a11.69934,11.69934,0,0,0-5.73053,1.56512l-1.18855-4.14608a17.15961,17.15961,0,0,1,8.06518-1.821c6.91908,0,9.12639,4.06339,9.12639,8.932v7.19362a31.99216,31.99216,0,0,0,.29714,5.0379Zm-.76407-9.77852c-3.39587-.04134-6.02766.76386-6.02766,3.26016a2.31506,2.31506,0,0,0,2.5469,2.455,3.52269,3.52269,0,0,0,3.35341-2.37031,4.595,4.595,0,0,0,.12735-1.1005Z" transform="translate(-137.85106 -34.44681)" style="fill:#fff"/><path d="M398.40085,452.913c0-3.04755-.0849-5.0379-.1698-6.81366h5.56073l.21224,3.80746h.1698a6.09567,6.09567,0,0,1,5.60318-4.274,6.66891,6.66891,0,0,1,1.35834.08465v6.05177a9.44442,9.44442,0,0,0-1.74038-.1693,4.14773,4.14773,0,0,0-4.41462,3.26016,7.56527,7.56527,0,0,0-.12735,1.43912V466.7962h-6.45214Z" transform="translate(-137.85106 -34.44681)" style="fill:#fff"/><path d="M228.7675,517.59646l-.382-2.073h-.12735a7.49089,7.49089,0,0,1-5.94276,2.53962,6.35457,6.35457,0,0,1-6.70684-6.351c0-5.37455,4.83911-7.95748,12.18267-7.91416v-.29531c0-1.10247-.59428-2.66758-3.7779-2.66758a11.69927,11.69927,0,0,0-5.73052,1.56511l-1.18856-4.14608a17.15977,17.15977,0,0,1,8.06518-1.821c6.91908,0,9.12639,4.06339,9.12639,8.932v7.19362a31.9921,31.9921,0,0,0,.29714,5.03789Zm-.76407-9.77852c-3.39586-.04134-6.02766.76386-6.02766,3.26017a2.31506,2.31506,0,0,0,2.5469,2.455,3.5227,3.5227,0,0,0,3.35342-2.37031,4.59534,4.59534,0,0,0,.12734-1.1005Z" transform="translate(-137.85106 -34.44681)" style="fill:#fff"/><path d="M239.38353,487.5443h6.45214v30.05216h-6.45214Z" transform="translate(-137.85106 -34.44681)" style="fill:#fff"/><path d="M266.511,510.27488l-2.03751,7.32158h-6.70684l8.74435-28.52839h8.48967l8.8717,28.52839H276.9108l-2.20731-7.32158Zm7.25867-4.82725-1.78283-6.05177c-.50938-1.69308-1.01876-3.80943-1.44325-5.50251h-.08489c-.42448,1.69308-.849,3.85274-1.3159,5.50251l-1.69793,6.05177Z" transform="translate(-137.85106 -34.44681)" style="fill:#fff"/><path d="M287.23068,503.84118c0-2.70893-.0849-5.0379-.16979-6.94163h5.60317l.29714,2.87824h.0849a7.97442,7.97442,0,0,1,6.91907-3.34482c4.542,0,8.617,3.93542,8.617,10.53844,0,7.53617-4.79666,11.09164-9.42352,11.09164a6.455,6.455,0,0,1-5.39094-2.37032h-.0849v10.28448h-6.45214Zm6.45214,4.86662a6.39624,6.39624,0,0,0,.12735,1.35446,3.9018,3.9018,0,0,0,3.7779,3.04754c2.80159,0,4.45707-2.327,4.45707-5.84112,0-3.30151-1.48569-5.79782-4.37217-5.79782a4.0501,4.0501,0,0,0-3.8628,3.2582,4.96552,4.96552,0,0,0-.12735,1.14381Z" transform="translate(-137.85106 -34.44681)" style="fill:#fff"/><path d="M312.61872,503.71321c0-3.04754-.0849-5.0379-.16979-6.81366h5.56073l.21224,3.80746h.16979a6.0957,6.0957,0,0,1,5.60318-4.274,6.669,6.669,0,0,1,1.35835.08465v6.05178a9.44353,9.44353,0,0,0-1.74038-.16931,4.14775,4.14775,0,0,0-4.41463,3.26016,7.56538,7.56538,0,0,0-.12734,1.43912v10.49709h-6.45215Z" transform="translate(-137.85106 -34.44681)" style="fill:#fff"/><path d="M333.37891,509.30037c.21224,2.66759,2.844,3.93543,5.85787,3.93543a18.30114,18.30114,0,0,0,5.73052-.84654l.849,4.36066a20.54191,20.54191,0,0,1-7.51336,1.26981c-7.04642,0-11.079-4.06339-11.079-10.5404,0-5.24855,3.26852-11.04636,10.48474-11.04636,6.70683,0,9.25373,5.2072,9.25373,10.32778a15.25136,15.25136,0,0,1-.21224,2.53962Zm7.59825-4.402c0-1.56512-.67917-4.19136-3.65056-4.19136-2.71669,0-3.82035,2.45693-3.99014,4.19136Z" transform="translate(-137.85106 -34.44681)" style="fill:#fff"/><path d="M350.82912,503.50256c0-2.58293-.0849-4.78393-.1698-6.603h5.60318l.29714,2.83492h.12734a7.6064,7.6064,0,0,1,6.4097-3.3015c4.24483,0,7.42846,2.79358,7.42846,8.88867v12.27482H364.073V506.12487c0-2.66562-.93386-4.4847-3.26852-4.4847a3.44159,3.44159,0,0,0-3.26852,2.41166,4.40563,4.40563,0,0,0-.25469,1.60842v11.93621h-6.45214Z" transform="translate(-137.85106 -34.44681)" style="fill:#fff"/><path d="M395.82927,487.5443v23.87242c0,2.327.08489,4.78394.16979,6.17974h-5.73052l-.29714-3.04754h-.0849a7.24984,7.24984,0,0,1-6.49459,3.51413c-4.924,0-8.8717-4.19136-8.8717-10.62506-.04245-6.983,4.32973-11.005,9.29618-11.005,2.5469,0,4.542.88788,5.47584,2.329h.08489V487.5443Zm-6.45215,18.11595a10.33081,10.33081,0,0,0-.08489-1.14184,3.87285,3.87285,0,0,0-3.7779-3.17551c-2.92894,0-4.45708,2.62427-4.45708,5.88444,0,3.51215,1.74039,5.71316,4.41463,5.71316a3.77474,3.77474,0,0,0,3.73545-3.09086,5.44561,5.44561,0,0,0,.16979-1.48046Z" transform="translate(-137.85106 -34.44681)" style="fill:#fff"/><path d="M407.6763,491.14308a3.237,3.237,0,0,1-3.48076,3.21685,3.24132,3.24132,0,1,1,.04244-6.477A3.23241,3.23241,0,0,1,407.6763,491.14308Zm-6.66439,26.45338V496.89955h6.45215v20.69691Z" transform="translate(-137.85106 -34.44681)" style="fill:#fff"/><path d="M410.98924,513.913l6.537-8.16812c1.18855-1.39581,2.12242-2.41166,3.311-3.68344v-.08268h-9.12639v-5.07924h16.97933v3.85077l-6.2399,7.83148a50.10884,50.10884,0,0,1-3.39587,3.80746v.08662h9.97536v5.12058H410.98924Z" transform="translate(-137.85106 -34.44681)" style="fill:#fff"/></g></svg>