<svg id="a1529fb9-80ba-4c88-9582-fa793cbafe70" data-name="Capa 1" xmlns="http://www.w3.org/2000/svg" viewBox="0 0 371.48936 563.74468"><rect width="371.48936" height="563.74468" rx="25.34974" style="opacity:0.05"/><rect x="74.71882" y="52.77345" width="177.85185" height="243.1018" style="fill:none;stroke:#fff;stroke-miterlimit:10"/><line x1="87.34736" y1="68.49124" x2="171.53758" y2="68.49124" style="fill:none;stroke:#fff;stroke-miterlimit:10"/><rect x="74.71882" y="77.92191" width="177.85185" height="12.57423" style="fill:none;stroke:#fff;stroke-miterlimit:10"/><rect x="109.44729" y="77.92191" width="62.09029" height="12.57423" style="fill:none;stroke:#fff;stroke-miterlimit:10"/><rect x="194.68989" y="77.92191" width="18.9428" height="12.57423" style="fill:none;stroke:#fff;stroke-miterlimit:10"/><rect x="74.71882" y="90.49614" width="177.85185" height="12.57423" style="fill:none;stroke:#fff;stroke-miterlimit:10"/><rect x="109.44729" y="90.49614" width="62.09029" height="12.57423" style="fill:none;stroke:#fff;stroke-miterlimit:10"/><rect x="194.68989" y="90.49614" width="18.9428" height="12.57423" style="fill:none;stroke:#fff;stroke-miterlimit:10"/><rect x="74.71882" y="103.07038" width="177.85185" height="12.57423" style="fill:none;stroke:#fff;stroke-miterlimit:10"/><rect x="109.44729" y="103.07038" width="62.09029" height="12.57423" style="fill:none;stroke:#fff;stroke-miterlimit:10"/><rect x="194.68989" y="103.07038" width="18.9428" height="12.57423" style="fill:none;stroke:#fff;stroke-miterlimit:10"/><rect x="74.71882" y="115.64461" width="177.85185" height="12.57423" style="fill:none;stroke:#fff;stroke-miterlimit:10"/><rect x="109.44729" y="115.64461" width="62.09029" height="12.57423" style="fill:none;stroke:#fff;stroke-miterlimit:10"/><rect x="194.68989" y="115.64461" width="18.9428" height="12.57423" style="fill:none;stroke:#fff;stroke-miterlimit:10"/><rect x="74.71882" y="128.21884" width="177.85185" height="12.57423" style="fill:none;stroke:#fff;stroke-miterlimit:10"/><rect x="109.44729" y="128.21884" width="62.09029" height="12.57423" style="fill:none;stroke:#fff;stroke-miterlimit:10"/><rect x="194.68989" y="128.21884" width="18.9428" height="12.57423" style="fill:none;stroke:#fff;stroke-miterlimit:10"/><rect x="74.71882" y="140.79307" width="177.85185" height="12.57423" style="fill:none;stroke:#fff;stroke-miterlimit:10"/><rect x="109.44729" y="140.79307" width="62.09029" height="12.57423" style="fill:none;stroke:#fff;stroke-miterlimit:10"/><rect x="194.68989" y="140.79307" width="18.9428" height="12.57423" style="fill:none;stroke:#fff;stroke-miterlimit:10"/><rect x="74.71882" y="153.3673" width="177.85185" height="12.57423" style="fill:none;stroke:#fff;stroke-miterlimit:10"/><rect x="109.44729" y="153.3673" width="62.09029" height="12.57423" style="fill:none;stroke:#fff;stroke-miterlimit:10"/><rect x="194.68989" y="153.3673" width="18.9428" height="12.57423" style="fill:none;stroke:#fff;stroke-miterlimit:10"/><rect x="74.71882" y="165.94153" width="177.85185" height="12.57423" style="fill:none;stroke:#fff;stroke-miterlimit:10"/><rect x="109.44729" y="165.94153" width="62.09029" height="12.57423" style="fill:none;stroke:#fff;stroke-miterlimit:10"/><rect x="194.68989" y="165.94153" width="18.9428" height="12.57423" style="fill:none;stroke:#fff;stroke-miterlimit:10"/><rect x="74.71882" y="178.51576" width="177.85185" height="12.57423" style="fill:none;stroke:#fff;stroke-miterlimit:10"/><rect x="109.44729" y="178.51576" width="62.09029" height="12.57423" style="fill:none;stroke:#fff;stroke-miterlimit:10"/><rect x="194.68989" y="178.51576" width="18.9428" height="12.57423" style="fill:none;stroke:#fff;stroke-miterlimit:10"/><rect x="74.71882" y="191.08999" width="177.85185" height="12.57423" style="fill:none;stroke:#fff;stroke-miterlimit:10"/><rect x="109.44729" y="191.08999" width="62.09029" height="12.57423" style="fill:none;stroke:#fff;stroke-miterlimit:10"/><rect x="194.68989" y="191.08999" width="18.9428" height="12.57423" style="fill:none;stroke:#fff;stroke-miterlimit:10"/><rect x="74.71882" y="203.66422" width="177.85185" height="12.57423" style="fill:none;stroke:#fff;stroke-miterlimit:10"/><rect x="109.44729" y="203.66422" width="62.09029" height="12.57423" style="fill:none;stroke:#fff;stroke-miterlimit:10"/><rect x="194.68989" y="203.66422" width="18.9428" height="12.57423" style="fill:none;stroke:#fff;stroke-miterlimit:10"/><rect x="74.71882" y="216.23845" width="177.85185" height="12.57423" style="fill:none;stroke:#fff;stroke-miterlimit:10"/><rect x="109.44729" y="216.23845" width="62.09029" height="12.57423" style="fill:none;stroke:#fff;stroke-miterlimit:10"/><rect x="194.68989" y="216.23845" width="18.9428" height="12.57423" style="fill:none;stroke:#fff;stroke-miterlimit:10"/><rect x="74.71882" y="228.81268" width="177.85185" height="12.57423" style="fill:none;stroke:#fff;stroke-miterlimit:10"/><rect x="109.44729" y="228.81268" width="62.09029" height="12.57423" style="fill:none;stroke:#fff;stroke-miterlimit:10"/><rect x="194.68989" y="228.81268" width="18.9428" height="12.57423" style="fill:none;stroke:#fff;stroke-miterlimit:10"/><rect x="74.71882" y="241.38691" width="177.85185" height="12.57423" style="fill:none;stroke:#fff;stroke-miterlimit:10"/><rect x="109.44729" y="241.38691" width="62.09029" height="12.57423" style="fill:none;stroke:#fff;stroke-miterlimit:10"/><rect x="194.68989" y="241.38691" width="18.9428" height="12.57423" style="fill:none;stroke:#fff;stroke-miterlimit:10"/><polyline points="252.571 74.254 275.197 74.254 275.197 317.356 97.345 317.356 97.345 295.875" style="fill:none;stroke:#fff;stroke-miterlimit:10"/><polyline points="275.197 95.735 296.771 95.735 296.771 338.837 118.919 338.837 118.919 317.356" style="fill:none;stroke:#fff;stroke-miterlimit:10"/><line x1="87.34736" y1="261.29611" x2="232.57549" y2="261.29611" style="fill:none;stroke:#fff;stroke-miterlimit:10"/><line x1="87.34736" y1="269.67893" x2="232.57549" y2="269.67893" style="fill:none;stroke:#fff;stroke-miterlimit:10"/><line x1="87.34736" y1="278.06175" x2="152.59478" y2="278.06175" style="fill:none;stroke:#fff;stroke-miterlimit:10"/><g style="opacity:0.4"><path d="M223.18111,470.652h-10.6v6.80932h11.83956v5.3188H206.04154V454.09581h17.7807v5.32078H212.58107v5.95816h10.6Z" transform="translate(-137.08511 -32.14894)" style="fill:#fff"/><path d="M224.12541,486.61034a5.7687,5.7687,0,0,0,3.84679-1.36186c.94032-.97785,1.28226-2.63862,1.28226-6.76578V461.97009H235.794V480.0148c0,4.55275-1.02581,7.32-2.94921,9.10549-1.92339,1.78943-4.95808,2.5535-8.07825,2.5535ZM235.965,456.18216a3.23332,3.23332,0,0,1-3.50486,3.23443,3.2626,3.2626,0,1,1,3.50486-3.23443Z" transform="translate(-137.08511 -32.14894)" style="fill:#fff"/><path d="M245.88312,474.43867c.21371,2.68217,2.86371,3.95693,5.8984,3.95693a18.45243,18.45243,0,0,0,5.77018-.85116l.85484,4.38449a20.71077,20.71077,0,0,1-7.56534,1.27675c-7.09519,0-11.15569-4.0856-11.15569-10.598,0-5.27723,3.29114-11.10673,10.5573-11.10673,6.75325,0,9.31777,5.23566,9.31777,10.38423a15.314,15.314,0,0,1-.21371,2.55349Zm7.65083-4.42606c0-1.57367-.68388-4.21426-3.67582-4.21426-2.73549,0-3.84679,2.47036-4.01776,4.21426Z" transform="translate(-137.08511 -32.14894)" style="fill:#fff"/><path d="M279.14043,482.2694a15.90977,15.90977,0,0,1-5.81293.93628c-6.75324,0-11.07019-4.0856-11.07019-10.63957,0-6.08683,4.18872-11.06516,11.96778-11.06516a15.12935,15.12935,0,0,1,4.95808.8096l-1.02581,4.8081a8.9195,8.9195,0,0,0-3.63308-.63937,5.83433,5.83433,0,0,0,.12823,11.66295,10.07964,10.07964,0,0,0,3.71856-.63936Z" transform="translate(-137.08511 -32.14894)" style="fill:#fff"/><path d="M302.43784,476.09944c0,2.72373.08548,4.93676.171,6.68066h-5.642l-.29919-2.93553h-.12823a7.46613,7.46613,0,0,1-6.53953,3.40466c-4.23147,0-7.35164-2.64059-7.35164-9.06591V461.97009h6.53954v11.19183c0,3.02065.98306,4.85165,3.24839,4.85165a3.49472,3.49472,0,0,0,3.2484-2.2546,3.60726,3.60726,0,0,0,.21371-1.40541V461.97009h6.53954Z" transform="translate(-137.08511 -32.14894)" style="fill:#fff"/><path d="M323.34269,482.2694a15.90967,15.90967,0,0,1-5.81292.93628c-6.75325,0-11.0702-4.0856-11.0702-10.63957,0-6.08683,4.18873-11.06516,11.96778-11.06516a15.12926,15.12926,0,0,1,4.95808.8096l-1.02581,4.8081a8.91945,8.91945,0,0,0-3.63307-.63937,5.83433,5.83433,0,0,0,.12822,11.66295,10.07956,10.07956,0,0,0,3.71856-.63936Z" transform="translate(-137.08511 -32.14894)" style="fill:#fff"/><path d="M333.64651,456.18216a3.25736,3.25736,0,0,1-3.50485,3.23443,3.25923,3.25923,0,1,1,.04275-6.51241A3.25264,3.25264,0,0,1,333.64651,456.18216ZM326.936,482.7801v-20.81h6.49679v20.81Z" transform="translate(-137.08511 -32.14894)" style="fill:#fff"/><path d="M359.29375,472.14053c0,7.61694-5.42825,11.1087-11.02746,11.1087-6.11211,0-10.81374-4.00246-10.81374-10.72469,0-6.72619,4.44517-11.02359,11.15568-11.02359C355.01954,461.501,359.29375,465.88545,359.29375,472.14053Zm-15.1307.21378c0,3.57489,1.496,6.25508,4.27421,6.25508,2.52178,0,4.146-2.51,4.146-6.25508,0-3.10775-1.19678-6.25706-4.146-6.25706C345.31709,466.09725,344.16305,469.29011,344.16305,472.35431Zm11.02746-19.45013L349.976,459.373h-4.48792l3.67582-6.46886Z" transform="translate(-137.08511 -32.14894)" style="fill:#fff"/><path d="M363.31548,468.60918c0-2.597-.08548-4.81008-.171-6.63909h5.642l.29919,2.85041h.12823a7.66167,7.66167,0,0,1,6.454-3.31955c4.27421,0,7.47986,2.80885,7.47986,8.93724V482.7801H376.651V471.24581c0-2.68018-.94033-4.5092-3.29114-4.5092a3.46467,3.46467,0,0,0-3.29114,2.42484,4.42378,4.42378,0,0,0-.25645,1.61721V482.7801h-6.4968Z" transform="translate(-137.08511 -32.14894)" style="fill:#fff"/><path d="M417.26194,452.56371v24.00288c0,2.33971.08549,4.81007.171,6.21351h-5.77018l-.29919-3.0642h-.08549a7.30256,7.30256,0,0,1-6.53953,3.53333c-4.95808,0-8.9331-4.21426-8.9331-10.68312-.04274-7.02113,4.35969-11.06516,9.36052-11.06516,2.56452,0,4.5734.89274,5.51372,2.3417h.08549V452.56371Zm-6.49679,18.21495a10.37085,10.37085,0,0,0-.08549-1.14808,3.898,3.898,0,0,0-3.804-3.19286c-2.9492,0-4.48792,2.63861-4.48792,5.91659,0,3.53135,1.75243,5.74438,4.44518,5.74438a3.79943,3.79943,0,0,0,3.7613-3.10775,5.4679,5.4679,0,0,0,.171-1.48855Z" transform="translate(-137.08511 -32.14894)" style="fill:#fff"/><path d="M427.48128,474.43867c.21371,2.68217,2.86372,3.95693,5.8984,3.95693a18.45243,18.45243,0,0,0,5.77018-.85116l.85485,4.38449a20.71082,20.71082,0,0,1-7.56535,1.27675c-7.09519,0-11.15568-4.0856-11.15568-10.598,0-5.27723,3.29114-11.10673,10.55729-11.10673,6.75325,0,9.31777,5.23566,9.31777,10.38423a15.31287,15.31287,0,0,1-.21371,2.55349Zm7.65083-4.42606c0-1.57367-.68387-4.21426-3.67582-4.21426-2.73549,0-3.84679,2.47036-4.01775,4.21426Z" transform="translate(-137.08511 -32.14894)" style="fill:#fff"/><path d="M202.77028,503.64355h6.49679v30.21639h-6.49679Z" transform="translate(-137.08511 -32.14894)" style="fill:#fff"/><path d="M226.40863,533.85994l-.38468-2.08635h-.12822a7.54146,7.54146,0,0,1-5.98389,2.5535,6.39347,6.39347,0,0,1-6.75325-6.38176c0-5.4059,4.8726-8.001,12.267-7.95939v-.2989c0-1.10454-.59838-2.68018-3.804-2.68018a11.7935,11.7935,0,0,0-5.77018,1.57564l-1.19678-4.17269a17.32744,17.32744,0,0,1,8.121-1.829c6.96695,0,9.18954,4.0856,9.18954,8.97881v7.23689a32.09338,32.09338,0,0,0,.2992,5.06345Zm-.76936-9.83c-3.41936-.04354-6.06937.76407-6.06937,3.276a2.32859,2.32859,0,0,0,2.56452,2.46838,3.54927,3.54927,0,0,0,3.37663-2.38326,4.626,4.626,0,0,0,.12822-1.10652Z" transform="translate(-137.08511 -32.14894)" style="fill:#fff"/><path d="M245.94673,505.17565h17.60974v5.3188h-11.0702v6.55595h10.34358v5.27723H252.48627v11.53231h-6.53954Z" transform="translate(-137.08511 -32.14894)" style="fill:#fff"/><path d="M287.7952,523.22037c0,7.61892-5.42824,11.10672-11.02746,11.10672-6.11211,0-10.81374-3.9985-10.81374-10.72469,0-6.72223,4.44518-11.02161,11.15568-11.02161C283.521,512.58079,287.7952,516.96331,287.7952,523.22037Zm-15.13069.2118c0,3.57489,1.496,6.25706,4.2742,6.25706,2.52179,0,4.146-2.51193,4.146-6.25706,0-3.10577-1.19677-6.25508-4.146-6.25508C273.81854,517.17709,272.66451,520.368,272.66451,523.43217Z" transform="translate(-137.08511 -32.14894)" style="fill:#fff"/><path d="M291.81693,519.90082c0-3.0642-.08548-5.06345-.171-6.85287h5.59922l.21371,3.83222h.171a6.13646,6.13646,0,0,1,5.642-4.29938,6.724,6.724,0,0,1,1.36774.08512v6.08683a9.18733,9.18733,0,0,0-1.75242-.17024,4.1723,4.1723,0,0,0-4.44518,3.276,7.59655,7.59655,0,0,0-.12822,1.447v10.55446h-6.4968Z" transform="translate(-137.08511 -32.14894)" style="fill:#fff"/><path d="M308.0619,519.687c0-2.59507-.08548-4.8081-.171-6.63909h5.471l.29919,2.81082h.12823a7.25323,7.25323,0,0,1,6.32583-3.278,5.92586,5.92586,0,0,1,5.72744,3.53135h.08548a9.34829,9.34829,0,0,1,2.69275-2.51,7.566,7.566,0,0,1,3.975-1.0214c4.01776,0,7.05245,2.80885,7.05245,9.02236v12.25679h-6.32583V522.53943c0-3.02262-.98307-4.76652-3.07743-4.76652a3.17783,3.17783,0,0,0-2.99194,2.25459,5.402,5.402,0,0,0-.25646,1.66077v12.17167h-6.32582V522.199c0-2.63862-.94033-4.42606-2.99195-4.42606a3.30367,3.30367,0,0,0-3.03469,2.34169,4.26281,4.26281,0,0,0-.25645,1.61524v12.1301H308.0619Z" transform="translate(-137.08511 -32.14894)" style="fill:#fff"/><path d="M356.70835,533.85994l-.38468-2.08635h-.12822a7.54148,7.54148,0,0,1-5.9839,2.5535,6.39346,6.39346,0,0,1-6.75324-6.38176c0-5.4059,4.87259-8.001,12.267-7.95939v-.2989c0-1.10454-.59839-2.68018-3.804-2.68018a11.79343,11.79343,0,0,0-5.77018,1.57564l-1.19678-4.17269a17.32742,17.32742,0,0,1,8.121-1.829c6.967,0,9.18955,4.0856,9.18955,8.97881v7.23689a32.09357,32.09357,0,0,0,.29919,5.06345Zm-.76936-9.83c-3.41936-.04354-6.06937.76407-6.06937,3.276a2.32859,2.32859,0,0,0,2.56452,2.46838,3.54927,3.54927,0,0,0,3.37663-2.38326,4.626,4.626,0,0,0,.12822-1.10652Z" transform="translate(-137.08511 -32.14894)" style="fill:#fff"/><path d="M383.08419,533.34924a15.90973,15.90973,0,0,1-5.81293.93628c-6.75324,0-11.07019-4.0856-11.07019-10.63957,0-6.08485,4.18872-11.06516,11.96778-11.06516a15.13005,15.13005,0,0,1,4.95808.80762l-1.02581,4.81008a8.92567,8.92567,0,0,0-3.63308-.63739,5.8323,5.8323,0,0,0,.12823,11.659,10.04222,10.04222,0,0,0,3.71856-.63738Z" transform="translate(-137.08511 -32.14894)" style="fill:#fff"/><path d="M393.388,507.26a3.25512,3.25512,0,0,1-3.50485,3.23443,3.25828,3.25828,0,1,1,.04274-6.51043A3.25112,3.25112,0,0,1,393.388,507.26Zm-6.71051,26.59992V513.048h6.4968v20.812Z" transform="translate(-137.08511 -32.14894)" style="fill:#fff"/><path d="M419.03524,523.22037c0,7.61892-5.42824,11.10672-11.02745,11.10672-6.11212,0-10.81375-3.9985-10.81375-10.72469,0-6.72223,4.44518-11.02161,11.15568-11.02161C414.761,512.58079,419.03524,516.96331,419.03524,523.22037Zm-15.13069.2118c0,3.57489,1.496,6.25706,4.27421,6.25706,2.52178,0,4.146-2.51193,4.146-6.25706,0-3.10577-1.19678-6.25508-4.146-6.25508C405.05858,517.17709,403.90455,520.368,403.90455,523.43217ZM414.932,503.984l-5.21453,6.46886h-4.48792l3.67582-6.46886Z" transform="translate(-137.08511 -32.14894)" style="fill:#fff"/><path d="M423.057,519.687c0-2.59507-.08549-4.8081-.171-6.63909h5.642l.2992,2.85239h.12822a7.6569,7.6569,0,0,1,6.45406-3.31955c4.2742,0,7.47986,2.80885,7.47986,8.93724v12.34191h-6.4968V522.32763c0-2.68216-.94032-4.51316-3.29114-4.51316a3.46629,3.46629,0,0,0-3.29114,2.42682,4.43136,4.43136,0,0,0-.25645,1.61721v12.00144H423.057Z" transform="translate(-137.08511 -32.14894)" style="fill:#fff"/></g></svg>