<svg id="ead517cd-744e-4fa9-8494-0471d06551c6" data-name="Capa 1" xmlns="http://www.w3.org/2000/svg" viewBox="0 0 423.82979 638.29787"><rect width="423.82979" height="638.29787" rx="25.36991" style="opacity:0.05"/><rect x="35.05072" y="332.24801" width="353.72835" height="13.21782" rx="2.61781" style="fill:none;stroke:#fff;stroke-miterlimit:10"/><rect x="12.75692" y="345.12605" width="398.31595" height="19.82673" rx="3.92671" style="fill:none;stroke:#fff;stroke-miterlimit:10"/><polygon points="290.919 168.861 290.919 104.975 216.141 68.259 141.364 104.975 141.364 168.861 49.309 168.861 49.309 322.335 141.364 322.335 290.919 322.335 382.973 322.335 382.973 168.861 290.919 168.861" style="fill:none;stroke:#fff;stroke-miterlimit:10"/><polyline points="308.336 104.845 216.141 59.577 123.947 104.845" style="fill:none;stroke:#fff;stroke-miterlimit:10"/><polyline points="263.99 183.915 217.628 161.151 171.266 183.915" style="fill:none;stroke:#fff;stroke-miterlimit:10"/><rect x="61.98907" y="181.34458" width="77.28519" height="48.46533" style="fill:none;stroke:#fff;stroke-miterlimit:10"/><rect x="61.98907" y="249.63664" width="77.28519" height="48.46533" style="fill:none;stroke:#fff;stroke-miterlimit:10"/><rect x="295.33087" y="181.34458" width="77.28519" height="48.46533" style="fill:none;stroke:#fff;stroke-miterlimit:10"/><rect x="295.33087" y="249.63664" width="77.28519" height="48.46533" style="fill:none;stroke:#fff;stroke-miterlimit:10"/><rect x="183.11873" y="194.5624" width="69.11079" height="127.77224" style="fill:none;stroke:#fff;stroke-miterlimit:10"/><rect x="171.2287" y="185.0162" width="91.40459" height="8.81188" style="fill:none;stroke:#fff;stroke-miterlimit:10"/><rect x="195.55602" y="205.29745" width="44.42409" height="117.03719" style="fill:none;stroke:#fff;stroke-miterlimit:10"/><path d="M315.37557,130.07821H304.184v10.25415h12.47079v3.08175h-16.1854V114.96982H316.0152v3.07978H304.184v8.99h11.19153Z" transform="translate(-113.34043 -2.02128)" style="fill:#fff"/><path d="M321.48581,143.41411V114.96982h4.05629l9.225,14.39a80.12765,80.12765,0,0,1,5.16868,9.24326l.08541-.04122c-.34166-3.80016-.42708-7.25878-.42708-11.691v-11.901h3.50207v28.44429h-3.75832L330.19828,128.981a90.34974,90.34974,0,0,1-5.38123-9.49451l-.12912.04122c.21454,3.5862.3,7.00556.3,11.73221v12.15424Z" transform="translate(-113.34043 -2.02128)" style="fill:#fff"/><path d="M353.30836,114.96982v28.44429h-3.71661V114.96982Z" transform="translate(-113.34043 -2.02128)" style="fill:#fff"/><g style="opacity:0.4"><path d="M166.30345,485.18791H154.20994v7.70984h13.50767v6.02218H146.749V466.44226h20.28589v6.02443h-12.825v6.7461h12.09351Z" transform="translate(-113.34043 -2.02128)" style="fill:#fff"/><path d="M172.69609,492.51226a14.63487,14.63487,0,0,0,6.3881,1.78177c2.24315,0,3.16967-.771,3.16967-1.97452,0-1.20578-.73146-1.784-3.511-2.69844-4.92518-1.64058-6.827-4.28972-6.77821-7.08453,0-4.38609,3.8036-7.70984,9.70406-7.70984a16.14282,16.14282,0,0,1,6.72946,1.34922l-1.31663,5.05846a11.81238,11.81238,0,0,0-5.169-1.34922c-1.80427,0-2.82832.72392-2.82832,1.92746,0,1.10941.92652,1.68765,3.85237,2.69844,4.53507,1.542,6.43687,3.80785,6.48563,7.27728,0,4.38609-3.511,7.61346-10.338,7.61346a17.05223,17.05223,0,0,1-7.70473-1.63834Z" transform="translate(-113.34043 -2.02128)" style="fill:#fff"/><path d="M211.80834,498.3417a18.276,18.276,0,0,1-6.63192,1.0601c-7.70474,0-12.62992-4.6259-12.62992-12.04662,0-6.89178,4.77889-12.52848,13.654-12.52848a17.3805,17.3805,0,0,1,5.65664.91667l-1.17034,5.44395a10.24434,10.24434,0,0,0-4.14495-.72392c-3.90114,0-6.43687,2.74775-6.38811,6.60266,0,4.33679,2.92585,6.60267,6.5344,6.60267a11.57789,11.57789,0,0,0,4.24248-.72392Z" transform="translate(-113.34043 -2.02128)" style="fill:#fff"/><path d="M238.38821,491.35578c0,3.08393.09753,5.58963.19506,7.56415H232.1464l-.34135-3.32374h-.14629a8.532,8.532,0,0,1-7.46092,3.85492c-4.82765,0-8.38743-2.98981-8.38743-10.26484v-13.8284h7.46091v12.67192c0,3.42012,1.12158,5.49326,3.70608,5.49326a3.98477,3.98477,0,0,0,3.70608-2.55276,4.05635,4.05635,0,0,0,.24382-1.59128V475.35787h7.46091Z" transform="translate(-113.34043 -2.02128)" style="fill:#fff"/><path d="M250.04738,489.47539c.24382,3.03687,3.2672,4.48022,6.72946,4.48022a21.20079,21.20079,0,0,0,6.58316-.96373l.97528,4.96433a23.79114,23.79114,0,0,1-8.63126,1.44559c-8.09485,0-12.72744-4.6259-12.72744-11.99955,0-5.97512,3.75484-12.57555,12.04475-12.57555,7.70473,0,10.63058,5.92806,10.63058,11.7575a17.21069,17.21069,0,0,1-.24382,2.89119Zm8.72879-5.01139c0-1.78178-.78023-4.77159-4.19372-4.77159-3.12091,0-4.38878,2.79706-4.58383,4.77159Z" transform="translate(-113.34043 -2.02128)" style="fill:#fff"/><path d="M270.094,464.70754h7.41215v34.21239H270.094Z" transform="translate(-113.34043 -2.02128)" style="fill:#fff"/><path d="M297.06283,498.91993l-.43887-2.36h-.1463a8.6414,8.6414,0,0,1-6.827,2.89119c-4.82765,0-7.70474-3.46943-7.70474-7.23021,0-6.11856,5.55912-9.05906,13.99532-9.00975V482.875c0-1.25509-.6827-3.03687-4.34-3.03687a13.53249,13.53249,0,0,0-6.58316,1.78178l-1.3654-4.72a19.85785,19.85785,0,0,1,9.26519-2.07314c7.94856,0,10.48429,4.6259,10.48429,10.16847v8.18945a36.09733,36.09733,0,0,0,.34135,5.73531Zm-.87775-11.13219c-3.90113-.04706-6.92451.8696-6.92451,3.71148a2.64888,2.64888,0,0,0,2.92585,2.79481,4.04412,4.04412,0,0,0,3.85237-2.69844,5.18668,5.18668,0,0,0,.14629-1.25285Z" transform="translate(-113.34043 -2.02128)" style="fill:#fff"/><path d="M319.35372,498.91993V466.44226h8.68l6.827,11.90093a93.76937,93.76937,0,0,1,5.36406,11.1322h.14629a119.08956,119.08956,0,0,1-.63393-13.53928v-9.49385h6.827v32.47767h-7.80226l-7.022-12.52848a120.182,120.182,0,0,1-5.70541-11.46837l-.14629.0493c.19506,4.28748.29258,8.86631.29258,14.16458v9.783Z" transform="translate(-113.34043 -2.02128)" style="fill:#fff"/><path d="M366.31927,498.91993l-.43887-2.36h-.14629a8.64144,8.64144,0,0,1-6.827,2.89119c-4.82765,0-7.70473-3.46943-7.70473-7.23021,0-6.11856,5.55911-9.05906,13.99531-9.00975V482.875c0-1.25509-.6827-3.03687-4.34-3.03687a13.53249,13.53249,0,0,0-6.58316,1.78178l-1.3654-4.72a19.85785,19.85785,0,0,1,9.26519-2.07314c7.94856,0,10.4843,4.6259,10.4843,10.16847v8.18945A36.09752,36.09752,0,0,0,373,498.91993Zm-.87775-11.13219c-3.90113-.04706-6.92451.8696-6.92451,3.71148a2.64888,2.64888,0,0,0,2.92585,2.79481,4.0441,4.0441,0,0,0,3.85237-2.69844,5.18618,5.18618,0,0,0,.14629-1.25285Z" transform="translate(-113.34043 -2.02128)" style="fill:#fff"/><path d="M396.4113,498.3417a18.27612,18.27612,0,0,1-6.63193,1.0601c-7.70474,0-12.62992-4.6259-12.62992-12.04662,0-6.89178,4.77889-12.52848,13.654-12.52848a17.3805,17.3805,0,0,1,5.65664.91667l-1.17034,5.44395a10.2443,10.2443,0,0,0-4.14495-.72392c-3.90114,0-6.43687,2.74775-6.38811,6.60266,0,4.33679,2.92585,6.60267,6.5344,6.60267a11.57785,11.57785,0,0,0,4.24248-.72392Z" transform="translate(-113.34043 -2.02128)" style="fill:#fff"/><path d="M408.16686,468.80452a3.70416,3.70416,0,0,1-3.99866,3.66217,3.69156,3.69156,0,1,1,.04876-7.37365A3.6983,3.6983,0,0,1,408.16686,468.80452Zm-7.656,30.11541V475.35787H407.923v23.56206Z" transform="translate(-113.34043 -2.02128)" style="fill:#fff"/><path d="M437.42762,486.87332c0,8.62426-6.193,12.57779-12.58115,12.57779-6.97328,0-12.33733-4.53177-12.33733-12.143,0-7.61571,5.07147-12.48142,12.72744-12.48142C432.55121,474.8267,437.42762,479.791,437.42762,486.87332Zm-17.26251.24205c0,4.04766,1.70675,7.08229,4.87642,7.08229,2.87708,0,4.73012-2.84188,4.73012-7.08229,0-3.51873-1.3654-7.08453-4.73012-7.08453C421.48174,480.03084,420.16511,483.646,420.16511,487.11537Z" transform="translate(-113.34043 -2.02128)" style="fill:#fff"/><path d="M442.016,482.875c0-2.94049-.09753-5.44619-.19506-7.51709h6.43687l.34135,3.22738h.14629a8.75745,8.75745,0,0,1,7.36339-3.75855c4.87641,0,8.53373,3.18031,8.53373,10.11916v13.97407H457.2304V485.86028c0-3.03462-1.07281-5.10552-3.75484-5.10552a3.94859,3.94859,0,0,0-3.75484,2.74551,4.97466,4.97466,0,0,0-.29258,1.83108v13.58858H442.016Z" transform="translate(-113.34043 -2.02128)" style="fill:#fff"/><path d="M484.15389,498.91993l-.43888-2.36h-.14629a8.6414,8.6414,0,0,1-6.827,2.89119c-4.82765,0-7.70474-3.46943-7.70474-7.23021,0-6.11856,5.55911-9.05906,13.99531-9.00975V482.875c0-1.25509-.68269-3.03687-4.34-3.03687a13.53256,13.53256,0,0,0-6.58316,1.78178l-1.36539-4.72a19.85785,19.85785,0,0,1,9.26519-2.07314c7.94855,0,10.48429,4.6259,10.48429,10.16847v8.18945a36.09733,36.09733,0,0,0,.34135,5.73531Zm-.87776-11.13219c-3.90113-.04706-6.92451.8696-6.92451,3.71148a2.64888,2.64888,0,0,0,2.92585,2.79481,4.0441,4.0441,0,0,0,3.85237-2.69844,5.18618,5.18618,0,0,0,.14629-1.25285Z" transform="translate(-113.34043 -2.02128)" style="fill:#fff"/><path d="M496.34946,464.70754h7.41216v34.21239h-7.41216Z" transform="translate(-113.34043 -2.02128)" style="fill:#fff"/><path d="M187.83566,522.54251v27.17716c0,2.65138.09753,5.444.19506,7.03523h-6.58317l-.34134-3.46943h-.09753a8.34981,8.34981,0,0,1-7.46092,3.99836c-5.65664,0-10.19171-4.76934-10.19171-12.09368-.04876-7.95189,4.974-12.52848,10.67935-12.52848,2.92585,0,5.21777,1.013,6.29058,2.64913h.09753V522.54251Zm-7.41215,20.62381a11.69817,11.69817,0,0,0-.09753-1.30216,4.43782,4.43782,0,0,0-4.34-3.61286c-3.36473,0-5.12024,2.98756-5.12024,6.69679,0,4.0006,1.99933,6.5063,5.07147,6.5063a4.3265,4.3265,0,0,0,4.29125-3.51649,6.1843,6.1843,0,0,0,.19506-1.68765Z" transform="translate(-113.34043 -2.02128)" style="fill:#fff"/><path d="M199.49483,547.31035c.24382,3.03463,3.2672,4.48246,6.72945,4.48246a21.267,21.267,0,0,0,6.58316-.96373l.97529,4.96209a23.791,23.791,0,0,1-8.63126,1.44559c-8.09485,0-12.72744-4.6259-12.72744-11.99731,0-5.97512,3.75484-12.57778,12.04474-12.57778,7.70474,0,10.63059,5.92581,10.63059,11.75749a17.18651,17.18651,0,0,1-.24382,2.89119Zm8.72878-5.01139c0-1.784-.78022-4.76934-4.19372-4.76934-3.1209,0-4.38877,2.79257-4.58383,4.76934Z" transform="translate(-113.34043 -2.02128)" style="fill:#fff"/><path d="M237.09766,524.27722V556.7549h-7.46091V524.27722Z" transform="translate(-113.34043 -2.02128)" style="fill:#fff"/><path d="M243.43927,540.70769c0-2.93826-.09753-5.44395-.19506-7.51709h6.43687l.34135,3.22961h.14629a8.752,8.752,0,0,1,7.36339-3.75854c4.87642,0,8.53373,3.1803,8.53373,10.11915V556.7549h-7.41215V543.69749c0-3.03687-1.07281-5.11-3.75484-5.11a3.95038,3.95038,0,0,0-3.75484,2.74775,4.98275,4.98275,0,0,0-.29259,1.83109V556.7549h-7.41215Z" transform="translate(-113.34043 -2.02128)" style="fill:#fff"/><path d="M271.972,550.345a14.60456,14.60456,0,0,0,6.38811,1.784c2.24315,0,3.16967-.771,3.16967-1.97677,0-1.20354-.73146-1.78178-3.511-2.69844-4.92518-1.6361-6.827-4.28747-6.77822-7.08229,0-4.38385,3.8036-7.70983,9.70407-7.70983a16.17825,16.17825,0,0,1,6.72945,1.34922l-1.31663,5.0607a11.81233,11.81233,0,0,0-5.169-1.34922c-1.80428,0-2.82832.72167-2.82832,1.92745,0,1.10717.92652,1.68541,3.85237,2.69845,4.53506,1.542,6.43686,3.80561,6.48563,7.275,0,4.38385-3.511,7.61346-10.338,7.61346a17.05224,17.05224,0,0,1-7.70474-1.63834Z" transform="translate(-113.34043 -2.02128)" style="fill:#fff"/><path d="M301.47769,526.44449v6.74611H306.793v5.39688h-5.31529v8.53013c0,2.84188.6827,4.144,2.92585,4.144a12.2465,12.2465,0,0,0,2.19439-.19274l.04876,5.54256a14.70857,14.70857,0,0,1-4.82765.6253,7.75692,7.75692,0,0,1-5.55911-2.02383c-1.3654-1.39853-2.0481-3.66217-2.0481-6.98816v-9.63729h-3.16967V533.1906h3.16967v-5.10553Z" transform="translate(-113.34043 -2.02128)" style="fill:#fff"/><path d="M311.0865,540.94974c0-3.46943-.09753-5.73307-.19506-7.75914h6.3881l.24383,4.339h.195a6.996,6.996,0,0,1,6.43687-4.868,7.72949,7.72949,0,0,1,1.56045.09637v6.89178a10.55992,10.55992,0,0,0-1.99933-.19274c-2.73079,0-4.58383,1.44335-5.07147,3.70924a8.53732,8.53732,0,0,0-.14629,1.63834V556.7549H311.0865Z" transform="translate(-113.34043 -2.02128)" style="fill:#fff"/><path d="M351.95426,549.1885c0,3.08394.09753,5.58963.19506,7.5664h-6.43687l-.34135-3.326h-.14629a8.52209,8.52209,0,0,1-7.46092,3.85492c-4.82765,0-8.38743-2.98532-8.38743-10.2626V533.1906h7.46091v12.67416c0,3.42236,1.12158,5.49325,3.70608,5.49325a3.98645,3.98645,0,0,0,3.70608-2.555,4.0381,4.0381,0,0,0,.24382-1.589V533.1906h7.46091Z" transform="translate(-113.34043 -2.02128)" style="fill:#fff"/><path d="M375.80447,556.17666a18.2758,18.2758,0,0,1-6.63192,1.0601c-7.70474,0-12.62992-4.6259-12.62992-12.04661,0-6.88955,4.77889-12.52848,13.654-12.52848a17.38132,17.38132,0,0,1,5.65664.91442l-1.17034,5.44619a10.25157,10.25157,0,0,0-4.14495-.72168,6.60234,6.60234,0,0,0,.14629,13.20085,11.53506,11.53506,0,0,0,4.24249-.72167Z" transform="translate(-113.34043 -2.02128)" style="fill:#fff"/><path d="M388.97419,526.44449v6.74611h5.3153v5.39688h-5.3153v8.53013c0,2.84188.6827,4.144,2.92585,4.144a12.24641,12.24641,0,0,0,2.19439-.19274l.04877,5.54256a14.70868,14.70868,0,0,1-4.82766.6253,7.75694,7.75694,0,0,1-5.55911-2.02383c-1.3654-1.39853-2.04809-3.66217-2.04809-6.98816v-9.63729h-3.16967V533.1906h3.16967v-5.10553Z" transform="translate(-113.34043 -2.02128)" style="fill:#fff"/><path d="M421.89227,544.70828c0,8.6265-6.193,12.57555-12.58115,12.57555-6.97328,0-12.33734-4.52729-12.33734-12.143,0-7.61122,5.07148-12.47917,12.72745-12.47917C417.01585,532.66167,421.89227,537.62375,421.89227,544.70828Zm-17.26251.23981c0,4.04767,1.70674,7.08454,4.87641,7.08454,2.87709,0,4.73013-2.84413,4.73013-7.08454,0-3.51649-1.3654-7.08229-4.73013-7.08229C405.94639,537.8658,404.62976,541.47867,404.62976,544.94809Z" transform="translate(-113.34043 -2.02128)" style="fill:#fff"/><path d="M426.48064,540.94974c0-3.46943-.09753-5.73307-.19506-7.75914h6.3881l.24382,4.339h.19506a6.996,6.996,0,0,1,6.43687-4.868,7.72949,7.72949,0,0,1,1.56045.09637v6.89178a10.55992,10.55992,0,0,0-1.99933-.19274c-2.73079,0-4.58383,1.44335-5.07147,3.70924a8.53732,8.53732,0,0,0-.14629,1.63834V556.7549h-7.41215Z" transform="translate(-113.34043 -2.02128)" style="fill:#fff"/><path d="M450.32971,547.31035c.24382,3.03463,3.2672,4.48246,6.72945,4.48246a21.267,21.267,0,0,0,6.58316-.96373l.97529,4.96209a23.79093,23.79093,0,0,1-8.63126,1.44559c-8.09485,0-12.72744-4.6259-12.72744-11.99731,0-5.97512,3.75484-12.57778,12.04474-12.57778,7.70474,0,10.63059,5.92581,10.63059,11.75749a17.18651,17.18651,0,0,1-.24382,2.89119Zm8.72878-5.01139c0-1.784-.78022-4.76934-4.19371-4.76934-3.12091,0-4.38878,2.79257-4.58383,4.76934Z" transform="translate(-113.34043 -2.02128)" style="fill:#fff"/><path d="M470.32755,550.345a14.60456,14.60456,0,0,0,6.3881,1.784c2.24316,0,3.16967-.771,3.16967-1.97677,0-1.20354-.73146-1.78178-3.511-2.69844-4.92518-1.6361-6.827-4.28747-6.77822-7.08229,0-4.38385,3.8036-7.70983,9.70406-7.70983a16.17831,16.17831,0,0,1,6.72946,1.34922l-1.31663,5.0607a11.81237,11.81237,0,0,0-5.169-1.34922c-1.80428,0-2.82833.72167-2.82833,1.92745,0,1.10717.92652,1.68541,3.85237,2.69845,4.53507,1.542,6.43687,3.80561,6.48564,7.275,0,4.38385-3.511,7.61346-10.338,7.61346a17.05223,17.05223,0,0,1-7.70473-1.63834Z" transform="translate(-113.34043 -2.02128)" style="fill:#fff"/></g></svg>