<svg xmlns="http://www.w3.org/2000/svg" viewBox="18 51 92.69 80.2"><defs><style>.cls-1{opacity:0.05;}.cls-2,.cls-3{fill:none;}.cls-2{stroke:#fff;stroke-miterlimit:10;stroke-width:0.75px;}</style></defs><g id="Capa_3" data-name="Capa 3"><rect class="cls-2" x="25.7" y="91.26" width="76.51" height="3.19"/><rect class="cls-2" x="42.43" y="94.44" width="39.85" height="35.86"/><path class="cls-2" d="M93.93,66.55H64.44V83.29H75.92l.84-8.78a.87.87,0,0,1,.87-.79h3.19a.87.87,0,0,1,.87.79l.84,8.78h11.4Z"/><polyline class="cls-2" points="75.92 83.29 75.36 89.26 66.43 89.26 66.43 90.86 91.94 90.86 91.94 89.26 83.1 89.26 82.53 83.29"/><circle class="cls-2" cx="53.29" cy="59.42" r="7"/><path class="cls-3" d="M44.28,77.8v-.89l-.16-.06c-.14.32-.31.62-.43,1a28.64,28.64,0,0,0-1.55,8h2.14Z"/><path class="cls-2" d="M64.44,70.21a7.47,7.47,0,0,0-5.47-2c-1.64.06-3.27,0-4.91,0,0,0-4.81,0-6.45,0a7.56,7.56,0,0,0-6.1,2.63,16.39,16.39,0,0,0-3.65,7.42,48,48,0,0,0-1.23,8,1.78,1.78,0,0,1,1.2-.47"/><path class="cls-2" d="M70.32,89.11a37.73,37.73,0,0,0-.54-5.92"/><path class="cls-2" d="M62.3,91.26V76.91l.16-.06c.14.32.31.62.43,1a28.67,28.67,0,0,1,1.58,8.68c0,1.59.06,3.18.06,4.78"/><path class="cls-2" d="M42.14,85.81a28.64,28.64,0,0,1,1.55-8c.12-.33.29-.63.43-1l.16.06v8.9H51a1.77,1.77,0,0,1,1.77,1.77v1.1A1.78,1.78,0,0,1,51,90.46H44.28"/><line class="cls-2" x1="44.28" y1="85.81" x2="41.64" y2="85.81"/><line class="cls-2" x1="42.05" y1="90.46" x2="44.28" y2="90.46"/><path class="cls-2" d="M36.63,86.28a1.78,1.78,0,0,0-.57,1.3v1.1a1.76,1.76,0,0,0,.42,1.14"/><path class="cls-2" d="M36.48,89.82a1.75,1.75,0,0,0,1.35.64h4.22"/><path class="cls-2" d="M40,85.81H37.83a1.78,1.78,0,0,0-1.2.47"/><path class="cls-2" d="M54.73,88.73l-.41,1.65-1.08-1.32-1.53-7a.88.88,0,0,1,.39-.61.91.91,0,0,1,1.1.28Z"/><line class="cls-2" x1="51.93" y1="83.09" x2="53.42" y2="82.77"/></g></svg>