<svg id="b2204c24-a459-474c-bb0f-76d56a5a6539" data-name="Capa 1" xmlns="http://www.w3.org/2000/svg" viewBox="0 0 372.25532 558.38298"><rect width="372.25532" height="558.38298" rx="25.05852" style="opacity:0.05"/><g style="opacity:0.4"><path d="M276.01055,453.25471a32.78066,32.78066,0,0,1-9.63679,1.59988c-5.26812,0-9.08-1.30578-11.73548-3.835a13.63291,13.63291,0,0,1-4.06887-10.3286c.04283-9.44239,7.02416-14.838,16.48963-14.838a20.159,20.159,0,0,1,8.00925,1.392l-1.37057,5.14273a16.22052,16.22052,0,0,0-6.72434-1.22147c-5.43943,0-9.55113,3.03505-9.55113,9.1875,0,5.86032,3.72622,9.31691,9.08,9.31691a8.87036,8.87036,0,0,0,3.21226-.42153v-5.94267h-4.45434v-5.01725h10.75038Z" transform="translate(-136.31915 -33.68085)" style="fill:#fff"/><path d="M286.16629,446.2984c.21415,2.65469,2.86963,3.92126,5.91057,3.92126a18.74874,18.74874,0,0,0,5.78208-.84307l.8566,4.34083a20.97132,20.97132,0,0,1-7.58094,1.26461c-7.10982,0-11.17869-4.04674-11.17869-10.49525,0-5.227,3.29793-11.00305,10.57906-11.00305,6.76718,0,9.337,5.1839,9.337,10.28546a14.97649,14.97649,0,0,1-.21415,2.52921Zm7.66661-4.384c0-1.56067-.68528-4.17222-3.6834-4.17222-2.74113,0-3.85472,2.44294-4.026,4.17222Z" transform="translate(-136.31915 -33.68085)" style="fill:#fff"/><path d="M303.73066,448.95309a12.8662,12.8662,0,0,0,5.61076,1.56066c1.97019,0,2.784-.67445,2.784-1.72927,0-1.05286-.64245-1.5587-3.08377-2.3606-4.32585-1.43126-5.99623-3.75068-5.9534-6.19559,0-3.835,3.34075-6.74456,8.52321-6.74456a14.25838,14.25838,0,0,1,5.91057,1.1803l-1.15642,4.4271a10.4072,10.4072,0,0,0-4.54-1.1803c-1.58472,0-2.48415.63132-2.48415,1.68614,0,.96855.81377,1.47439,3.38358,2.3606,3.98321,1.34891,5.65359,3.32915,5.69642,6.3642,0,3.835-3.08377,6.66026-9.08,6.66026a15.0275,15.0275,0,0,1-6.76717-1.43322Z" transform="translate(-136.31915 -33.68085)" style="fill:#fff"/><path d="M329.64592,428.045v5.90149h4.6685v4.72119h-4.6685v7.46216c0,2.48607.59963,3.6252,2.56982,3.6252a10.79868,10.79868,0,0,0,1.92736-.16861l.04283,4.84863a12.967,12.967,0,0,1-4.24019.547,6.82864,6.82864,0,0,1-4.88265-1.77045c-1.19924-1.22343-1.79887-3.20367-1.79887-6.11324v-8.43071h-2.784v-4.72119h2.784v-4.46631Z" transform="translate(-136.31915 -33.68085)" style="fill:#fff"/><path d="M344.80981,428.21356a3.24566,3.24566,0,0,1-3.51208,3.20367,3.22912,3.22912,0,1,1,.04283-6.44851A3.241,3.241,0,0,1,344.80981,428.21356Zm-6.72434,26.34693V433.94644h6.51019v20.61405Z" transform="translate(-136.31915 -33.68085)" style="fill:#fff"/><path d="M370.50992,444.02211c0,7.54646-5.43943,11.00109-11.05019,11.00109-6.12472,0-10.836-3.96047-10.836-10.62269,0-6.65829,4.45434-10.91678,11.17868-10.91678C366.2269,433.48373,370.50992,437.82456,370.50992,444.02211Zm-15.16189.20979c0,3.54089,1.49906,6.19755,4.283,6.19755,2.527,0,4.15453-2.488,4.15453-6.19755,0-3.07623-1.19924-6.19559-4.15453-6.19559C356.50445,438.03631,355.348,441.19684,355.348,444.2319Zm11.05019-19.26318-5.22528,6.40734h-4.49717l3.68339-6.40734Z" transform="translate(-136.31915 -33.68085)" style="fill:#fff"/><path d="M374.53995,440.52239c0-2.57039-.08566-4.76237-.17132-6.57595h5.65358l.29981,2.82527h.12849a7.69472,7.69472,0,0,1,6.46737-3.288c4.283,0,7.49528,2.78213,7.49528,8.85224v12.22452H387.903V443.13787c0-2.65665-.94226-4.47024-3.29793-4.47024a3.46779,3.46779,0,0,0-3.29792,2.40373,4.34328,4.34328,0,0,0-.257,1.60184v11.88729h-6.51019Z" transform="translate(-136.31915 -33.68085)" style="fill:#fff"/><path d="M236.81494,493.14174H226.19305v6.74457h11.864v5.26821H219.64V476.74305h17.81736v5.27017H226.19305v5.90149h10.62189Z" transform="translate(-136.31915 -33.68085)" style="fill:#fff"/><path d="M242.42968,499.54908a12.89282,12.89282,0,0,0,5.61076,1.5587c1.97019,0,2.784-.67446,2.784-1.72731,0-1.05482-.64245-1.56067-3.08377-2.3606-4.32585-1.43518-5.99623-3.75265-5.9534-6.19755,0-3.837,3.34076-6.74456,8.52321-6.74456a14.22679,14.22679,0,0,1,5.91057,1.1803l-1.15642,4.42514a10.40706,10.40706,0,0,0-4.54-1.1803c-1.58472,0-2.48415.63328-2.48415,1.68614,0,.97051.81377,1.47635,3.38359,2.36059,3.9832,1.34892,5.65358,3.33111,5.69641,6.36617,0,3.837-3.08377,6.66025-9.08,6.66025a15.0275,15.0275,0,0,1-6.76717-1.43322Z" transform="translate(-136.31915 -33.68085)" style="fill:#fff"/><path d="M268.34494,478.64093v5.9015h4.6685v4.72119h-4.6685v7.46019c0,2.488.59963,3.62521,2.56982,3.62521a10.79758,10.79758,0,0,0,1.92736-.16862l.04283,4.84668a12.95721,12.95721,0,0,1-4.24019.549,6.83712,6.83712,0,0,1-4.88265-1.77045c-1.19924-1.22147-1.79887-3.20366-1.79887-6.11128v-8.4307h-2.784v-4.72119h2.784v-4.47024Z" transform="translate(-136.31915 -33.68085)" style="fill:#fff"/><path d="M276.78449,491.32816c0-3.03505-.08566-5.01725-.17132-6.78573h5.61075l.21415,3.79185h.17132a6.143,6.143,0,0,1,5.65359-4.25652,6.81616,6.81616,0,0,1,1.37057.0843v6.027a9.64951,9.64951,0,0,0-1.756-.16862c-2.39849,0-4.026,1.26657-4.45434,3.2468a7.43968,7.43968,0,0,0-.12849,1.43322v10.45408h-6.51019Z" transform="translate(-136.31915 -33.68085)" style="fill:#fff"/><path d="M304.49862,505.15452l-.38547-2.06454h-.1285a7.604,7.604,0,0,1-5.99622,2.52921,6.37328,6.37328,0,0,1-6.76718-6.325c0-5.35252,4.88265-7.92486,12.29227-7.88173v-.29409c0-1.098-.59962-2.65666-3.81189-2.65666a11.922,11.922,0,0,0-5.78207,1.5587l-1.19925-4.12908a17.49819,17.49819,0,0,1,8.13774-1.81358c6.98132,0,9.20849,4.04674,9.20849,8.89537v7.16414a31.45241,31.45241,0,0,0,.29982,5.01725Zm-.771-9.73845c-3.42641-.04117-6.08189.76073-6.08189,3.24681a2.32248,2.32248,0,0,0,2.56982,2.4449,3.551,3.551,0,0,0,3.38358-2.3606,4.5197,4.5197,0,0,0,.12849-1.096Z" transform="translate(-136.31915 -33.68085)" style="fill:#fff"/><path d="M322.14964,478.64093v5.9015h4.66849v4.72119h-4.66849v7.46019c0,2.488.59962,3.62521,2.56981,3.62521a10.7974,10.7974,0,0,0,1.92736-.16862l.04283,4.84668a12.95712,12.95712,0,0,1-4.24019.549,6.83707,6.83707,0,0,1-4.88264-1.77045c-1.19925-1.22147-1.79887-3.20366-1.79887-6.11128v-8.4307h-2.784v-4.72119h2.784v-4.47024Z" transform="translate(-136.31915 -33.68085)" style="fill:#fff"/><path d="M335.38617,496.89243c.21415,2.65665,2.86962,3.91929,5.91057,3.91929a18.68968,18.68968,0,0,0,5.78207-.84307l.85661,4.3428a20.97139,20.97139,0,0,1-7.581,1.2646c-7.10981,0-11.17868-4.04674-11.17868-10.4972,0-5.227,3.29792-11.00109,10.57906-11.00109,6.76717,0,9.337,5.18586,9.337,10.28546a14.99757,14.99757,0,0,1-.21415,2.52921Zm7.6666-4.384c0-1.5587-.68528-4.17418-3.68339-4.17418-2.74114,0-3.85472,2.44687-4.026,4.17418Zm3.59774-16.94571-5.22528,6.40733h-4.49718l3.6834-6.40733Z" transform="translate(-136.31915 -33.68085)" style="fill:#fff"/><path d="M372.99507,484.54243c-.08566,1.30578-.17132,3.035-.17132,6.11128v11.50693c0,3.96439-.81377,7.20923-3.16943,9.27377-2.31284,1.941-5.43944,2.52921-8.52322,2.52921a16.55773,16.55773,0,0,1-7.53811-1.59987l1.2849-4.84864a13.03756,13.03756,0,0,0,6.08189,1.5587c3.08378,0,5.43944-1.643,5.43944-5.43682v-1.34891h-.08566A6.73758,6.73758,0,0,1,360.66,504.9859c-5.18245,0-8.86585-4.131-8.86585-10.07567,0-6.61712,4.36868-10.83247,9.50831-10.83247a6.33962,6.33962,0,0,1,5.73924,2.90761h.08566l.21415-2.44294ZM366.31356,492.93a4.99044,4.99044,0,0,0-.12849-1.1803,3.55634,3.55634,0,0,0-3.51208-2.82331c-2.35566,0-4.283,2.10572-4.283,5.85836,0,3.07819,1.54189,5.48,4.283,5.48a3.52563,3.52563,0,0,0,3.42642-2.61352,5.35519,5.35519,0,0,0,.21415-1.68614Z" transform="translate(-136.31915 -33.68085)" style="fill:#fff"/><path d="M384.77736,478.80955a3.24789,3.24789,0,0,1-3.51208,3.20367,3.23005,3.23005,0,1,1,.04284-6.45047A3.24251,3.24251,0,0,1,384.77736,478.80955Zm-6.72434,26.345V484.54243h6.51019v20.61209Z" transform="translate(-136.31915 -33.68085)" style="fill:#fff"/><path d="M405.50917,504.64868a16.11,16.11,0,0,1-5.8249.92737c-6.76718,0-11.093-4.04674-11.093-10.53838,0-6.02893,4.19736-10.95991,11.99246-10.95991a15.32128,15.32128,0,0,1,4.9683.80189l-1.02792,4.76237a9.02962,9.02962,0,0,0-3.64057-.63328,5.77727,5.77727,0,0,0,.12849,11.552,10.20558,10.20558,0,0,0,3.72623-.63328Z" transform="translate(-136.31915 -33.68085)" style="fill:#fff"/><path d="M421.188,505.15452l-.38548-2.06454h-.12849a7.604,7.604,0,0,1-5.99623,2.52921,6.37327,6.37327,0,0,1-6.76717-6.325c0-5.35252,4.88265-7.92486,12.29227-7.88173v-.29409c0-1.098-.59962-2.65666-3.81189-2.65666a11.922,11.922,0,0,0-5.78207,1.5587l-1.19925-4.12908a17.49819,17.49819,0,0,1,8.13774-1.81358c6.98132,0,9.20849,4.04674,9.20849,8.89537v7.16414a31.45378,31.45378,0,0,0,.29981,5.01725Zm-.77095-9.73845c-3.42641-.04117-6.08189.76073-6.08189,3.24681a2.32248,2.32248,0,0,0,2.56982,2.4449,3.551,3.551,0,0,0,3.38358-2.3606,4.5197,4.5197,0,0,0,.12849-1.096Z" transform="translate(-136.31915 -33.68085)" style="fill:#fff"/><path d="M194.64014,525.81954v23.77459c0,2.31942.08566,4.76237.17132,6.15441h-5.78208l-.29981-3.03505h-.08566a7.34117,7.34117,0,0,1-6.553,3.49776c-4.96831,0-8.95151-4.17222-8.95151-10.57955-.04283-6.95631,4.36868-10.95992,9.37981-10.95992,2.56981,0,4.58283.88621,5.5251,2.31747H188.13V525.81954ZM188.13,543.86125a10.19236,10.19236,0,0,0-.08566-1.13912,3.89346,3.89346,0,0,0-3.81189-3.16054c-2.95529,0-4.49717,2.61352-4.49717,5.85836,0,3.49972,1.756,5.69171,4.45434,5.69171a3.79624,3.79624,0,0,0,3.76906-3.07623,5.38934,5.38934,0,0,0,.17132-1.47635Z" transform="translate(-136.31915 -33.68085)" style="fill:#fff"/><path d="M204.88054,547.48645c.21415,2.6547,2.86962,3.92126,5.91057,3.92126a18.74844,18.74844,0,0,0,5.78208-.84307l.8566,4.34083a20.97132,20.97132,0,0,1-7.58094,1.26461c-7.10982,0-11.17869-4.04674-11.17869-10.49525,0-5.227,3.29793-11.00305,10.57906-11.00305,6.76717,0,9.337,5.18391,9.337,10.28546a14.97639,14.97639,0,0,1-.21415,2.52921Zm7.66661-4.384c0-1.56066-.68529-4.17222-3.6834-4.17222-2.74113,0-3.85472,2.44294-4.026,4.17222Z" transform="translate(-136.31915 -33.68085)" style="fill:#fff"/><path d="M231.14044,525.81954h6.51019v29.929h-6.51019Z" transform="translate(-136.31915 -33.68085)" style="fill:#fff"/><path d="M254.82753,555.74854l-.38547-2.0665h-.12849a7.59772,7.59772,0,0,1-5.99623,2.52921c-4.24019,0-6.76717-3.035-6.76717-6.32107,0-5.35447,4.88264-7.92486,12.29227-7.88368v-.29606c0-1.094-.59963-2.65469-3.81189-2.65469a11.92226,11.92226,0,0,0-5.78208,1.56066l-1.19924-4.133a17.52738,17.52738,0,0,1,8.13773-1.81163c6.98133,0,9.2085,4.04674,9.2085,8.89342v7.16806a31.42646,31.42646,0,0,0,.29981,5.01528Zm-.77094-9.73648c-3.42642-.04313-6.08189.7568-6.08189,3.24484a2.32149,2.32149,0,0,0,2.56981,2.44491,3.55363,3.55363,0,0,0,3.38359-2.3606,4.53135,4.53135,0,0,0,.12849-1.096Z" transform="translate(-136.31915 -33.68085)" style="fill:#fff"/><path d="M274.40592,527.33707h17.646v5.26821h-11.093v6.4936h10.36491v5.227H280.95894v11.42262h-6.553Z" transform="translate(-136.31915 -33.68085)" style="fill:#fff"/><path d="M316.34067,545.21016c0,7.54646-5.43944,11.00109-11.05019,11.00109-6.12472,0-10.836-3.96047-10.836-10.62268,0-6.6583,4.45434-10.91679,11.17868-10.91679C312.05765,534.67178,316.34067,539.01262,316.34067,545.21016Zm-15.16189.20979c0,3.5409,1.49906,6.19755,4.283,6.19755,2.527,0,4.15453-2.488,4.15453-6.19755,0-3.07623-1.19925-6.19559-4.15453-6.19559C302.33519,539.22436,301.17878,542.3849,301.17878,545.42Z" transform="translate(-136.31915 -33.68085)" style="fill:#fff"/><path d="M320.37069,541.92219c0-3.035-.08566-5.01529-.17132-6.7877h5.61076l.21415,3.79578h.17132a6.14248,6.14248,0,0,1,5.65359-4.25849,6.81541,6.81541,0,0,1,1.37057.08431V540.785a9.31138,9.31138,0,0,0-1.756-.16861c-2.39849,0-4.026,1.26265-4.45434,3.24484a7.43968,7.43968,0,0,0-.12849,1.43322v10.45407h-6.5102Z" transform="translate(-136.31915 -33.68085)" style="fill:#fff"/><path d="M336.64916,541.71044c0-2.57038-.08566-4.76237-.17132-6.57595h5.48227l.29981,2.7841h.12849a7.28748,7.28748,0,0,1,6.33887-3.24681,5.94373,5.94373,0,0,1,5.73925,3.49777h.08566a9.32587,9.32587,0,0,1,2.6983-2.48608,7.65045,7.65045,0,0,1,3.98321-1.01169c4.026,0,7.067,2.78214,7.067,8.93655v12.14021h-6.33887V544.53571c0-2.99388-.98509-4.7212-3.08377-4.7212a3.1791,3.1791,0,0,0-2.99812,2.23316,5.29392,5.29392,0,0,0-.257,1.645v12.0559h-6.33887V544.19848c0-2.61352-.94226-4.384-2.99811-4.384a3.30308,3.30308,0,0,0-3.041,2.31943,4.17792,4.17792,0,0,0-.257,1.59987v12.01473h-6.33887Z" transform="translate(-136.31915 -33.68085)" style="fill:#fff"/><path d="M385.39591,555.74854l-.38547-2.0665H384.882a7.59772,7.59772,0,0,1-5.99623,2.52921c-4.24019,0-6.76717-3.035-6.76717-6.32107,0-5.35447,4.88264-7.92486,12.29226-7.88368v-.29606c0-1.094-.59962-2.65469-3.81188-2.65469a11.92226,11.92226,0,0,0-5.78208,1.56066l-1.19925-4.133a17.52743,17.52743,0,0,1,8.13774-1.81163c6.98133,0,9.2085,4.04674,9.2085,8.89342v7.16806a31.42646,31.42646,0,0,0,.29981,5.01528Zm-.77094-9.73648c-3.42642-.04313-6.08189.7568-6.08189,3.24484a2.32149,2.32149,0,0,0,2.56981,2.44491,3.55364,3.55364,0,0,0,3.38359-2.3606,4.53135,4.53135,0,0,0,.12849-1.096Z" transform="translate(-136.31915 -33.68085)" style="fill:#fff"/><path d="M411.82613,555.2427a16.11005,16.11005,0,0,1-5.82491.92738c-6.76717,0-11.093-4.04674-11.093-10.53838,0-6.027,4.19736-10.95992,11.99246-10.95992a15.32215,15.32215,0,0,1,4.9683.79994l-1.02792,4.76433a9.03592,9.03592,0,0,0-3.64057-.63132,5.77528,5.77528,0,0,0,.12849,11.5481,10.16777,10.16777,0,0,0,3.72623-.63132Z" transform="translate(-136.31915 -33.68085)" style="fill:#fff"/><path d="M422.1512,529.40161a3.24566,3.24566,0,0,1-3.51208,3.20367,3.22912,3.22912,0,1,1,.04283-6.44851A3.241,3.241,0,0,1,422.1512,529.40161Zm-6.72434,26.34693V535.13449h6.51019v20.61405Z" transform="translate(-136.31915 -33.68085)" style="fill:#fff"/><path d="M447.85131,545.21016c0,7.54646-5.43943,11.00109-11.05019,11.00109-6.12472,0-10.836-3.96047-10.836-10.62268,0-6.6583,4.45434-10.91679,11.17868-10.91679C443.56829,534.67178,447.85131,539.01262,447.85131,545.21016Zm-15.16189.20979c0,3.5409,1.49906,6.19755,4.283,6.19755,2.527,0,4.15453-2.488,4.15453-6.19755,0-3.07623-1.19925-6.19559-4.15453-6.19559C433.84584,539.22436,432.68942,542.3849,432.68942,545.42Zm11.05019-19.26318-5.22528,6.40734h-4.49717l3.68339-6.40734Z" transform="translate(-136.31915 -33.68085)" style="fill:#fff"/><path d="M451.88134,541.71044c0-2.57038-.08566-4.76237-.17132-6.57595h5.65358l.29981,2.82527h.12849a7.69472,7.69472,0,0,1,6.46737-3.288c4.283,0,7.49528,2.78214,7.49528,8.85224v12.22452h-6.51019V544.32592c0-2.65665-.94226-4.47023-3.29793-4.47023a3.46778,3.46778,0,0,0-3.29792,2.40373,4.34318,4.34318,0,0,0-.257,1.60183v11.88729h-6.51019Z" transform="translate(-136.31915 -33.68085)" style="fill:#fff"/></g><ellipse cx="71.70924" cy="133.22668" rx="29.52733" ry="29.06082" style="fill:none;stroke:#fff;stroke-linecap:round;stroke-miterlimit:10"/><ellipse cx="231.47321" cy="70.43455" rx="25.83642" ry="25.42822" style="fill:none;stroke:#fff;stroke-linecap:round;stroke-miterlimit:10"/><ellipse cx="304.76427" cy="191.34833" rx="25.30914" ry="24.90928" style="fill:none;stroke:#fff;stroke-linecap:round;stroke-miterlimit:10"/><ellipse cx="88.582" cy="285.79601" rx="26.36369" ry="25.94716" style="fill:none;stroke:#fff;stroke-linecap:round;stroke-miterlimit:10"/><ellipse cx="269.43692" cy="315.37578" rx="27.94551" ry="27.50399" style="fill:none;stroke:#fff;stroke-linecap:round;stroke-miterlimit:10"/><path d="M333.51956,342.31037,316.6468,373.447,299.774,342.31037V172.097a18.90433,18.90433,0,0,1,33.74553,0Z" transform="translate(-136.31915 -33.68085)" style="fill:none;stroke:#fff;stroke-linecap:round;stroke-miterlimit:10"/><polyline points="163.455 308.63 169.782 297.213 179.273 308.63 188.764 297.213 197.2 308.63" style="fill:none;stroke:#fff;stroke-linecap:round;stroke-miterlimit:10"/><line x1="163.45489" y1="151.8197" x2="197.20041" y2="151.8197" style="fill:none;stroke:#fff;stroke-linecap:round;stroke-miterlimit:10"/><path d="M307.71082,356.95658c.30225-.36843,4.06873-4.80327,9.99052-4.26735a11.75309,11.75309,0,0,1,7.88143,4.26735" transform="translate(-136.31915 -33.68085)" style="fill:none;stroke:#fff;stroke-linecap:round;stroke-miterlimit:10"/><polyline points="227.36 95.863 227.36 115.583 197.667 144.807" style="fill:none;stroke:#fff;stroke-linecap:round;stroke-miterlimit:10"/><polyline points="94.104 152.155 106.509 179.932 163.455 179.932" style="fill:none;stroke:#fff;stroke-linecap:round;stroke-miterlimit:10"/><polyline points="104.877 265.407 120.218 244.281 163.455 244.281" style="fill:none;stroke:#fff;stroke-linecap:round;stroke-miterlimit:10"/><polyline points="263.637 287.872 247.819 261.925 197.667 261.925" style="fill:none;stroke:#fff;stroke-linecap:round;stroke-miterlimit:10"/><polyline points="279.455 194.925 260.708 213.375 197.667 213.375" style="fill:none;stroke:#fff;stroke-linecap:round;stroke-miterlimit:10"/></svg>