<svg id="ad8a4af3-c2a9-497c-b152-e75e7ef985ca" data-name="Capa 1" xmlns="http://www.w3.org/2000/svg" viewBox="0 0 370.7234 560.68085"><rect width="370.7234" height="560.68085" rx="25.0491" style="opacity:0.05"/><rect x="74.56476" y="44.19891" width="177.48514" height="241.78059" style="fill:none;stroke:#fff;stroke-miterlimit:10"/><line x1="87.16726" y1="59.83128" x2="171.18389" y2="59.83128" style="fill:none;stroke:#fff;stroke-miterlimit:10"/><line x1="87.16726" y1="74.42149" x2="237.22434" y2="74.42149" style="fill:none;stroke:#fff;stroke-miterlimit:10"/><line x1="87.16726" y1="83.80091" x2="237.22434" y2="83.80091" style="fill:none;stroke:#fff;stroke-miterlimit:10"/><line x1="87.16726" y1="93.18033" x2="237.22434" y2="93.18033" style="fill:none;stroke:#fff;stroke-miterlimit:10"/><line x1="87.16726" y1="102.55975" x2="237.22434" y2="102.55975" style="fill:none;stroke:#fff;stroke-miterlimit:10"/><line x1="87.16726" y1="111.93917" x2="172.2341" y2="111.93917" style="fill:none;stroke:#fff;stroke-miterlimit:10"/><line x1="87.16726" y1="121.31859" x2="237.22434" y2="121.31859" style="fill:none;stroke:#fff;stroke-miterlimit:10"/><line x1="87.16726" y1="130.69801" x2="237.22434" y2="130.69801" style="fill:none;stroke:#fff;stroke-miterlimit:10"/><line x1="87.16726" y1="140.07742" x2="237.22434" y2="140.07742" style="fill:none;stroke:#fff;stroke-miterlimit:10"/><line x1="87.16726" y1="149.45684" x2="237.22434" y2="149.45684" style="fill:none;stroke:#fff;stroke-miterlimit:10"/><line x1="87.16726" y1="158.83626" x2="237.22434" y2="158.83626" style="fill:none;stroke:#fff;stroke-miterlimit:10"/><line x1="87.16726" y1="168.21568" x2="237.22434" y2="168.21568" style="fill:none;stroke:#fff;stroke-miterlimit:10"/><line x1="87.16726" y1="177.5951" x2="237.22434" y2="177.5951" style="fill:none;stroke:#fff;stroke-miterlimit:10"/><line x1="87.16726" y1="186.97452" x2="169.08348" y2="186.97452" style="fill:none;stroke:#fff;stroke-miterlimit:10"/><rect x="87.16726" y="197.3961" width="152.28015" height="13.54805" style="fill:none;stroke:#fff;stroke-miterlimit:10"/><rect x="143.85549" y="197.3961" width="57.79977" height="13.54805" style="fill:none;stroke:#fff;stroke-miterlimit:10"/><line x1="87.16726" y1="220.32357" x2="131.50199" y2="220.32357" style="fill:none;stroke:#fff;stroke-miterlimit:10"/><line x1="87.16726" y1="229.70299" x2="131.50199" y2="229.70299" style="fill:none;stroke:#fff;stroke-miterlimit:10"/><line x1="87.16726" y1="239.08241" x2="131.50199" y2="239.08241" style="fill:none;stroke:#fff;stroke-miterlimit:10"/><line x1="87.16726" y1="248.46183" x2="131.50199" y2="248.46183" style="fill:none;stroke:#fff;stroke-miterlimit:10"/><line x1="87.16726" y1="257.84125" x2="131.50199" y2="257.84125" style="fill:none;stroke:#fff;stroke-miterlimit:10"/><line x1="87.16726" y1="267.22067" x2="131.50199" y2="267.22067" style="fill:none;stroke:#fff;stroke-miterlimit:10"/><line x1="141.13997" y1="220.32357" x2="185.4747" y2="220.32357" style="fill:none;stroke:#fff;stroke-miterlimit:10"/><line x1="141.13997" y1="229.70299" x2="185.4747" y2="229.70299" style="fill:none;stroke:#fff;stroke-miterlimit:10"/><line x1="141.13997" y1="239.08241" x2="185.4747" y2="239.08241" style="fill:none;stroke:#fff;stroke-miterlimit:10"/><line x1="141.13997" y1="248.46183" x2="185.4747" y2="248.46183" style="fill:none;stroke:#fff;stroke-miterlimit:10"/><line x1="141.13997" y1="257.84125" x2="185.4747" y2="257.84125" style="fill:none;stroke:#fff;stroke-miterlimit:10"/><line x1="141.13997" y1="267.22067" x2="185.4747" y2="267.22067" style="fill:none;stroke:#fff;stroke-miterlimit:10"/><line x1="195.11268" y1="220.32357" x2="239.44741" y2="220.32357" style="fill:none;stroke:#fff;stroke-miterlimit:10"/><line x1="195.11268" y1="229.70299" x2="239.44741" y2="229.70299" style="fill:none;stroke:#fff;stroke-miterlimit:10"/><line x1="195.11268" y1="239.08241" x2="239.44741" y2="239.08241" style="fill:none;stroke:#fff;stroke-miterlimit:10"/><line x1="195.11268" y1="248.46183" x2="239.44741" y2="248.46183" style="fill:none;stroke:#fff;stroke-miterlimit:10"/><line x1="195.11268" y1="257.84125" x2="239.44741" y2="257.84125" style="fill:none;stroke:#fff;stroke-miterlimit:10"/><line x1="195.11268" y1="267.22067" x2="239.44741" y2="267.22067" style="fill:none;stroke:#fff;stroke-miterlimit:10"/><polyline points="252.05 65.563 274.629 65.563 274.629 307.344 97.144 307.344 97.144 285.98" style="fill:none;stroke:#fff;stroke-miterlimit:10"/><polyline points="274.629 86.927 296.159 86.927 296.159 328.708 118.673 328.708 118.673 307.344" style="fill:none;stroke:#fff;stroke-miterlimit:10"/><g style="opacity:0.4"><path d="M276.79254,470.2071a32.40454,32.40454,0,0,1-9.59713,1.60646c-5.24644,0-9.04264-1.31115-11.68719-3.85077a13.74839,13.74839,0,0,1-4.05212-10.3711c.04265-9.48125,6.99525-14.8991,16.42177-14.8991a19.93144,19.93144,0,0,1,7.97629,1.39778l-1.36493,5.16389a16.03861,16.03861,0,0,0-6.69667-1.2265c-5.417,0-9.51183,3.04754-9.51183,9.22531,0,5.88444,3.71089,9.35525,9.04264,9.35525a8.76685,8.76685,0,0,0,3.199-.42327v-5.96712h-4.436V455.18h10.70614Z" transform="translate(-138.61702 -35.21277)" style="fill:#fff"/><path d="M286.90649,463.22216c.21327,2.66562,2.85781,3.9374,5.88625,3.9374a18.53,18.53,0,0,0,5.75828-.84654l.85308,4.3587a20.73112,20.73112,0,0,1-7.54975,1.2698c-7.08056,0-11.13268-4.06339-11.13268-10.53843,0-5.24855,3.28435-11.04833,10.53552-11.04833,6.73933,0,9.29856,5.20524,9.29856,10.32779a15.15852,15.15852,0,0,1-.21327,2.53961Zm7.63506-4.402c0-1.56709-.68247-4.18939-3.66824-4.18939-2.72986,0-3.83886,2.453-4.00947,4.18939Z" transform="translate(-138.61702 -35.21277)" style="fill:#fff"/><path d="M304.39858,465.88778a12.7341,12.7341,0,0,0,5.58766,1.56708c1.96209,0,2.77251-.67723,2.77251-1.73639,0-1.05719-.63981-1.56511-3.07108-2.37031-4.30805-1.43715-5.97156-3.76612-5.9289-6.22108,0-3.85077,3.327-6.77232,8.48813-6.77232a14.10035,14.10035,0,0,1,5.88625,1.18516l-1.15166,4.44531a10.29861,10.29861,0,0,0-4.52132-1.18515c-1.57819,0-2.47393.63392-2.47393,1.69308,0,.97253.81043,1.48046,3.36967,2.37031,3.96681,1.35446,5.63032,3.34285,5.673,6.39039,0,3.85077-3.07108,6.68766-9.04264,6.68766a14.86309,14.86309,0,0,1-6.73932-1.43911Z" transform="translate(-138.61702 -35.21277)" style="fill:#fff"/><path d="M330.20719,444.89359v5.92578h4.64928V455.56h-4.64928v7.49286c0,2.49631.59716,3.64012,2.55924,3.64012a10.66828,10.66828,0,0,0,1.91943-.16931l.04265,4.86859a12.81532,12.81532,0,0,1-4.22274.54926,6.76872,6.76872,0,0,1-4.86255-1.77773c-1.19431-1.22847-1.79147-3.21685-1.79147-6.1384V455.56h-2.7725v-4.74063h2.7725v-4.48469Z" transform="translate(-138.61702 -35.21277)" style="fill:#fff"/><path d="M345.30867,445.0629a3.24366,3.24366,0,0,1-3.49762,3.21685,3.24106,3.24106,0,1,1,.04265-6.475A3.23948,3.23948,0,0,1,345.30867,445.0629ZM338.612,471.51826V450.81937h6.4834v20.69889Z" transform="translate(-138.61702 -35.21277)" style="fill:#fff"/><path d="M370.903,460.93651c0,7.57751-5.41705,11.04636-11.00472,11.04636-6.09952,0-10.79145-3.97677-10.79145-10.6664,0-6.6857,4.436-10.96171,11.13268-10.96171C366.63763,450.35476,370.903,454.71346,370.903,460.93651Zm-15.0995.21065c0,3.55547,1.49289,6.22305,4.26539,6.22305,2.51659,0,4.13744-2.49828,4.13744-6.22305,0-3.08889-1.19431-6.22109-4.13744-6.22109C356.95519,454.92607,355.80353,458.09961,355.80353,461.14716Zm11.00472-19.34245-5.20378,6.4337H357.1258l3.66824-6.4337Z" transform="translate(-138.61702 -35.21277)" style="fill:#fff"/><path d="M374.91647,457.42238c0-2.581-.08531-4.782-.17062-6.603h5.63032l.29858,2.8369h.128a7.64738,7.64738,0,0,1,6.44075-3.30151c4.26539,0,7.46444,2.79358,7.46444,8.88867v12.27483h-6.4834V460.04862c0-2.66758-.93839-4.48862-3.28436-4.48862a3.45744,3.45744,0,0,0-3.28435,2.41362,4.39356,4.39356,0,0,0-.25592,1.60842v11.93622h-6.4834Z" transform="translate(-138.61702 -35.21277)" style="fill:#fff"/><path d="M253.52134,521.51529a18.61546,18.61546,0,0,1-7.37913,1.22847c-9.93837,0-15.05684-6.1384-15.05684-14.26518,0-9.73324,6.99524-15.1511,15.69665-15.1511a17.105,17.105,0,0,1,7.08056,1.26784l-1.32228,5.12255a14.11315,14.11315,0,0,0-5.4597-1.05915c-5.16113,0-9.1706,3.09085-9.1706,9.4399,0,5.71513,3.41231,9.31194,9.21325,9.31194a16.35507,16.35507,0,0,0,5.417-.9312Z" transform="translate(-138.61702 -35.21277)" style="fill:#fff"/><path d="M276.38783,515.67613c0,2.70893.08531,4.90994.17061,6.64436h-5.63032l-.29858-2.91958h-.128a7.45606,7.45606,0,0,1-6.526,3.38616c-4.22274,0-7.33648-2.62624-7.33648-9.01663V501.62357h6.526v11.131c0,3.00423.981,4.82527,3.2417,4.82527a3.48656,3.48656,0,0,0,3.2417-2.24234,3.57661,3.57661,0,0,0,.21327-1.39778V501.62357h6.52606Z" transform="translate(-138.61702 -35.21277)" style="fill:#fff"/><path d="M281.59558,508.43723c0-3.04754-.08531-5.03789-.17062-6.81366h5.58767l.21327,3.80746h.17061a6.12234,6.12234,0,0,1,5.63033-4.274,6.73231,6.73231,0,0,1,1.36492.08466v6.05177a9.53439,9.53439,0,0,0-1.74881-.16931,4.16472,4.16472,0,0,0-4.436,3.26017,7.52993,7.52993,0,0,0-.128,1.43911v10.4971h-6.4834Z" transform="translate(-138.61702 -35.21277)" style="fill:#fff"/><path d="M297.80705,508.43723c0-3.04754-.0853-5.03789-.17061-6.81366h5.58767l.21327,3.80746h.17061a6.12233,6.12233,0,0,1,5.63032-4.274,6.73236,6.73236,0,0,1,1.36493.08466v6.05177a9.53448,9.53448,0,0,0-1.74881-.16931,4.16472,4.16472,0,0,0-4.436,3.26017,7.5299,7.5299,0,0,0-.128,1.43911v10.4971h-6.4834Z" transform="translate(-138.61702 -35.21277)" style="fill:#fff"/><path d="M320.7152,495.8671a3.24589,3.24589,0,0,1-3.49762,3.21685,3.242,3.242,0,1,1,.04265-6.477A3.241,3.241,0,0,1,320.7152,495.8671Zm-6.69667,26.45339V501.62357h6.4834v20.69692Z" transform="translate(-138.61702 -35.21277)" style="fill:#fff"/><path d="M341.3617,521.81256a15.92516,15.92516,0,0,1-5.80094.9312c-6.73933,0-11.04737-4.06339-11.04737-10.58175,0-6.05374,4.18008-11.005,11.9431-11.005a15.14471,15.14471,0,0,1,4.94786.8052l-1.0237,4.782a8.92775,8.92775,0,0,0-3.62558-.63588,5.80208,5.80208,0,0,0,.128,11.59956,10.08908,10.08908,0,0,0,3.71089-.63589Z" transform="translate(-138.61702 -35.21277)" style="fill:#fff"/><path d="M364.61107,515.67613c0,2.70893.08531,4.90994.17062,6.64436h-5.63032l-.29858-2.91958h-.128a7.4561,7.4561,0,0,1-6.52606,3.38616c-4.22274,0-7.33647-2.62624-7.33647-9.01663V501.62357h6.526v11.131c0,3.00423.981,4.82527,3.2417,4.82527a3.48656,3.48656,0,0,0,3.2417-2.24234,3.57661,3.57661,0,0,0,.21327-1.39778V501.62357h6.526Z" transform="translate(-138.61702 -35.21277)" style="fill:#fff"/><path d="M369.81882,492.26832h6.4834v30.05217h-6.4834Z" transform="translate(-138.61702 -35.21277)" style="fill:#fff"/><path d="M393.40844,522.32049l-.38389-2.073h-.128a7.54386,7.54386,0,0,1-5.97155,2.53962,6.371,6.371,0,0,1-6.73932-6.351c0-5.37454,4.86255-7.95747,12.24168-7.91416v-.29531c0-1.10247-.59716-2.66758-3.7962-2.66758a11.799,11.799,0,0,0-5.75828,1.56511L381.6786,502.978a17.31026,17.31026,0,0,1,8.10425-1.82105c6.9526,0,9.1706,4.06339,9.1706,8.932v7.19362a31.84013,31.84013,0,0,0,.29858,5.0379Zm-.76777-9.77852c-3.41232-.04134-6.05686.76385-6.05686,3.26016a2.32129,2.32129,0,0,0,2.55924,2.455,3.53844,3.53844,0,0,0,3.36966-2.37032,4.57379,4.57379,0,0,0,.128-1.1005Z" transform="translate(-138.61702 -35.21277)" style="fill:#fff"/><path d="M404.0759,508.43723c0-3.04754-.08531-5.03789-.17062-6.81366H409.493l.21327,3.80746h.17061a6.12233,6.12233,0,0,1,5.63032-4.274,6.73236,6.73236,0,0,1,1.36493.08466v6.05177a9.53439,9.53439,0,0,0-1.74881-.16931,4.16472,4.16472,0,0,0-4.436,3.26017,7.52993,7.52993,0,0,0-.128,1.43911v10.4971h-6.4834Z" transform="translate(-138.61702 -35.21277)" style="fill:#fff"/></g></svg>