<svg xmlns="http://www.w3.org/2000/svg" viewBox="22 55 84.69 89"><defs><style>.cls-1{opacity:0.05;}.cls-2,.cls-3{fill:none;stroke:#fff;stroke-miterlimit:10;stroke-width:0.75px;}.cls-3{stroke-linecap:round;}</style></defs><g id="Capa_3" data-name="Capa 3"><rect class="cls-2" x="35.14" y="61.11" width="60.53" height="15.98"/><rect class="cls-3" x="31.22" y="57.06" width="68.38" height="84.86"/><line class="cls-3" x1="34.77" y1="80.14" x2="62.74" y2="80.14"/><line class="cls-3" x1="34.77" y1="82.81" x2="62.74" y2="82.81"/><line class="cls-3" x1="34.77" y1="85.47" x2="62.74" y2="85.47"/><line class="cls-3" x1="34.77" y1="88.14" x2="62.74" y2="88.14"/><line class="cls-3" x1="34.77" y1="90.8" x2="62.74" y2="90.8"/><line class="cls-3" x1="34.77" y1="93.46" x2="62.74" y2="93.46"/><line class="cls-3" x1="34.77" y1="96.13" x2="62.74" y2="96.13"/><line class="cls-3" x1="34.77" y1="98.79" x2="62.74" y2="98.79"/><line class="cls-3" x1="34.77" y1="101.46" x2="62.74" y2="101.46"/><line class="cls-3" x1="34.77" y1="104.12" x2="62.74" y2="104.12"/><line class="cls-3" x1="34.77" y1="106.78" x2="62.74" y2="106.78"/><line class="cls-3" x1="34.77" y1="109.45" x2="62.74" y2="109.45"/><line class="cls-3" x1="34.77" y1="112.11" x2="62.74" y2="112.11"/><line class="cls-3" x1="34.77" y1="114.78" x2="62.74" y2="114.78"/><line class="cls-3" x1="34.77" y1="117.44" x2="62.74" y2="117.44"/><line class="cls-3" x1="34.77" y1="120.1" x2="62.74" y2="120.1"/><line class="cls-3" x1="34.77" y1="122.77" x2="62.74" y2="122.77"/><line class="cls-3" x1="34.77" y1="125.43" x2="62.74" y2="125.43"/><line class="cls-3" x1="34.77" y1="128.09" x2="62.74" y2="128.09"/><line class="cls-3" x1="34.77" y1="130.76" x2="62.74" y2="130.76"/><line class="cls-3" x1="34.77" y1="133.42" x2="62.74" y2="133.42"/><line class="cls-3" x1="34.77" y1="136.09" x2="62.74" y2="136.09"/><line class="cls-3" x1="66.74" y1="80.14" x2="94.71" y2="80.14"/><line class="cls-3" x1="66.74" y1="82.81" x2="94.71" y2="82.81"/><line class="cls-3" x1="66.74" y1="85.47" x2="94.71" y2="85.47"/><line class="cls-3" x1="66.74" y1="88.14" x2="94.71" y2="88.14"/><line class="cls-3" x1="66.74" y1="90.8" x2="94.71" y2="90.8"/><line class="cls-3" x1="66.74" y1="93.46" x2="94.71" y2="93.46"/><line class="cls-3" x1="66.74" y1="96.13" x2="94.71" y2="96.13"/><line class="cls-3" x1="66.74" y1="98.79" x2="94.71" y2="98.79"/><line class="cls-3" x1="66.74" y1="101.46" x2="94.71" y2="101.46"/><line class="cls-3" x1="66.74" y1="104.12" x2="94.71" y2="104.12"/><line class="cls-3" x1="66.74" y1="106.78" x2="94.71" y2="106.78"/><line class="cls-3" x1="66.74" y1="109.45" x2="94.71" y2="109.45"/><line class="cls-3" x1="66.74" y1="136.09" x2="94.71" y2="136.09"/><rect class="cls-3" x="66.74" y="112.11" width="27.53" height="20.42"/></g></svg>