<svg xmlns="http://www.w3.org/2000/svg" viewBox="22 44 90.69 95.2"><defs><style>.cls-1{opacity:0.05;}.cls-2{fill:none;stroke:#fff;stroke-linecap:round;stroke-miterlimit:10;}</style></defs><g id="Capa_3" data-name="Capa 3"><circle class="cls-2" cx="33.65" cy="73.08" r="8.85"/><circle class="cls-2" cx="81.51" cy="53.97" r="7.74"/><circle class="cls-2" cx="103.46" cy="90.77" r="7.58"/><circle class="cls-2" cx="38.7" cy="124.3" r="7.9"/><circle class="cls-2" cx="92.88" cy="128.52" r="8.37"/><polyline class="cls-2" points="80.28 61.7 80.28 67.71 71.69 78.5"/><polyline class="cls-2" points="40.36 78.84 44.07 87.29 50.96 87.27"/><polyline class="cls-2" points="43.58 118.09 48.18 111.66 55.74 108.79"/><polyline class="cls-2" points="91.14 120.15 86.4 112.25 78.06 108.79"/><polyline class="cls-2" points="95.88 91.86 90.26 97.47 84.44 97.47"/><circle class="cls-2" cx="66.9" cy="95.24" r="17.53"/><line class="cls-2" x1="43.79" y1="65.75" x2="51.76" y2="65.75"/><line class="cls-2" x1="43.79" y1="68.14" x2="49.37" y2="68.14"/><line class="cls-2" x1="84.44" y1="64.16" x2="94" y2="64.16"/><line class="cls-2" x1="84.44" y1="65.75" x2="88.42" y2="65.75"/><line class="cls-2" x1="100.38" y1="100.82" x2="110.74" y2="100.82"/><line class="cls-2" x1="100.38" y1="103.21" x2="105.16" y2="103.21"/><line class="cls-2" x1="71.69" y1="125.53" x2="81.25" y2="125.53"/><line class="cls-2" x1="76.47" y1="127.12" x2="81.25" y2="127.12"/><line class="cls-2" x1="25.46" y1="112.77" x2="37.41" y2="112.77"/><line class="cls-2" x1="25.46" y1="114.37" x2="30.24" y2="114.37"/></g></svg>