<svg xmlns="http://www.w3.org/2000/svg" viewBox="10 45 94.69 82.2"><defs><style>.cls-1{opacity:0.05;}.cls-2{fill:none;stroke:#fff;stroke-miterlimit:10;stroke-width:0.75px;}</style></defs><g id="Capa_3" data-name="Capa 3"><path class="cls-2" d="M74.83,72.5a16.43,16.43,0,0,0-3.65-7.43,7.59,7.59,0,0,0-6.1-2.63c-1.65.06-3.27.05-4.91,0,0,0-4.81,0-6.45,0a7.58,7.58,0,0,0-6.1,2.63A16.33,16.33,0,0,0,44,72.5c-1.64,6.6-1.57,13.32-1.16,20a2.55,2.55,0,0,0,.42,1.17,2.65,2.65,0,0,0,3.07,1.1,2.69,2.69,0,0,0,1.9-2.73c0-3.79-.1-7.59,0-11.38A28.55,28.55,0,0,1,49.8,72a9.09,9.09,0,0,1,.43-1l.15.06V99.8q0,10.82,0,21.64a4.18,4.18,0,0,0,2.41,4c.21.11.45.2.79.34h-.14l0,0,2.31,0a4.45,4.45,0,0,0,2.86-3.14V96.44a.57.57,0,0,1,.58-.57h.48a.48.48,0,0,1,.48.47V122.6A4.44,4.44,0,0,0,63,125.74l2.31,0,0,0h-.13c.34-.14.57-.23.78-.34a4.18,4.18,0,0,0,2.41-4q0-10.81,0-21.64V71.14l.15-.06c.15.32.32.63.44,1a28.86,28.86,0,0,1,1.58,8.67c.11,3.79,0,7.59,0,11.38a2.69,2.69,0,0,0,1.89,2.73,2.65,2.65,0,0,0,3.07-1.1A2.55,2.55,0,0,0,76,92.55C76.39,85.82,76.46,79.1,74.83,72.5Z"/><circle class="cls-2" cx="59.4" cy="53.65" r="7"/><circle class="cls-2" cx="33.06" cy="57.14" r="5.18"/><path class="cls-2" d="M43.68,68.69a10.26,10.26,0,0,0-1.92-3.08,5.61,5.61,0,0,0-4.51-2c-1.21,0-2.42,0-3.63,0,0,0-3.56,0-4.78,0a5.6,5.6,0,0,0-4.51,1.94,12.15,12.15,0,0,0-2.72,5.49,49.3,49.3,0,0,0-.88,14.84,2,2,0,0,0,4-.33c0-2.81-.06-5.62,0-8.42a21.3,21.3,0,0,1,1.18-6.42c.09-.25.21-.47.32-.71l.12,0c0,.23,0,.45,0,.67l0,20.55,0,16a3.08,3.08,0,0,0,1.78,2.94c.16.08.33.14.58.25h1.63a3.29,3.29,0,0,0,2.11-2.32l0-19.36a.44.44,0,0,1,.43-.43h.36a.36.36,0,0,1,.36.35l0,19.44a3.31,3.31,0,0,0,2.11,2.33l1.71,0h-.09a6.21,6.21,0,0,0,.59-.26,3.08,3.08,0,0,0,1.79-2.93q0-8,0-16,0-10.28,0-20.55V70.1l.11,0a6.29,6.29,0,0,1,.32.7,21.09,21.09,0,0,1,1.16,6.43l0,1.41c.2-1.28.45-2.59.75-3.94C42.55,72.52,43.1,70.54,43.68,68.69Z"/><circle class="cls-2" cx="85.59" cy="57.14" r="5.18"/><path class="cls-2" d="M75,68.69a10.26,10.26,0,0,1,1.92-3.08,5.61,5.61,0,0,1,4.51-2c1.22,0,2.42,0,3.63,0,0,0,3.56,0,4.78,0a5.63,5.63,0,0,1,4.52,1.94A12.24,12.24,0,0,1,97,71.07a48.67,48.67,0,0,1,.88,14.84,2,2,0,0,1-4-.33c0-2.81.06-5.62,0-8.42a21,21,0,0,0-1.18-6.42A6.43,6.43,0,0,0,92.4,70l-.11,0v.67l0,20.55,0,16a3.07,3.07,0,0,1-1.77,2.94c-.16.08-.34.14-.59.25H88.37a3.31,3.31,0,0,1-2.12-2.32l0-19.36a.43.43,0,0,0-.43-.43h-.36a.35.35,0,0,0-.35.35l0,19.44A3.31,3.31,0,0,1,83,110.51l-1.71,0h.09a6.21,6.21,0,0,1-.59-.26A3.07,3.07,0,0,1,79,107.33l0-16,0-20.55c0-.22,0-.44,0-.66l-.11,0c-.11.23-.23.46-.32.7a21.09,21.09,0,0,0-1.16,6.43c0,.47,0,.94,0,1.41-.21-1.28-.46-2.59-.76-3.94C76.1,72.52,75.55,70.54,75,68.69Z"/></g></svg>