<svg id="b93f2dbf-52d6-45da-a2f9-fd85aff11b94" data-name="Capa 1" xmlns="http://www.w3.org/2000/svg" viewBox="0 0 372.76596 558.38298"><rect width="372.76596" height="558.38298" rx="25.29585" style="opacity:0.05"/><path d="M338.45214,127.34283c15.31268,5.08833,23.87768,19.52118,21.11988,32.17453-2.22463,10.207-11.19684,16.1631-20.57268,19.58618-14.0972,5.14683-32.62858,10.51162-36.5977,27.06293-2.18778,9.12306-.29983,19.46519,6.83071,29.27671,15.72351,21.63548,23.68755,35.98015,23.14911,56.616-.95222,36.50113-54.2196,26.91411-54.2196,26.91411-2.75678-.07171-3.86575-.95022-4.14316-3.74841-1.06063-10.69535-2.04624-11.89059-3.67329-22.51043-2.21872-14.48328-6.74485-28.30344-14.55782-40.88731a92.75768,92.75768,0,0,0-7.44623-9.67925c-10.81388-13.151-18.97012-27.64108-22.09441-44.40209-5.29531-28.40707,1.35609-54.28861,19.39243-76.82236C267.172,94.02125,295.85582,81.34768,330.75016,83.0193a95.95289,95.95289,0,0,1,35.9194,9.10533c37.11977,17.17859,59.94057,55.80768,57.07654,95.13994-1.29563,17.79458-7.99317,33.65656-18.4313,48.08258-2.43954,3.37135-5.06173,6.62412-7.73936,9.81836-8.69829,10.37735-13.327,22.62091-16.85517,35.35707-3.61065,13.03389-4.69281,26.43849-5.835,39.82915-.07077.82985-.16758,1.65717-.27921,2.48272-.81971,6.06059.11511,5.41241-5.02693,5.63464l-80.26574.09933a5.10952,5.10952,0,0,0,0,9.52418h73.75421a5.08554,5.08554,0,0,1,0,10.05326q-33.10856-.52871-66.21736-1.05816a5.08556,5.08556,0,0,0,0,10.05326c16.73387.30736,42.08134.615,58.81521.92234a3.423,3.423,0,0,1,2.584,5.66074l-2.16922,2.48728a9.0964,9.0964,0,0,1-6.85636,3.09946H315.87756a12.93608,12.93608,0,0,1-7.21626-2.1941q-3.483-2.34247-6.96593-4.68443" transform="translate(-137.85106 -32.14894)" style="fill:none;stroke:#fff;stroke-linecap:round;stroke-miterlimit:10"/><ellipse cx="288.24321" cy="184.45267" rx="13.41931" ry="25.98277" transform="translate(-191.81526 153.31651) rotate(-32.78557)" style="fill:none;stroke:#fff;stroke-miterlimit:10"/><ellipse cx="336.17727" cy="228.22721" rx="26.23147" ry="13.29208" transform="translate(-200.8878 120.37495) rotate(-23.43461)" style="fill:none;stroke:#fff;stroke-miterlimit:10"/><path d="M332.65718,121.10081l16.0771,21.748c2.06948,2.51346,6.26438,2.12179,8.75191-.51209s2.57311-6.77456-.131-8.6161q-10.91212-7.8312-21.8244-15.66254a2.31285,2.31285,0,0,0-3.3403-.21521A2.22191,2.22191,0,0,0,332.65718,121.10081Z" transform="translate(-137.85106 -32.14894)" style="fill:none;stroke:#fff;stroke-miterlimit:10"/><g style="opacity:0.4"><path d="M244.61917,496.6457a16.89478,16.89478,0,0,0,7.24824,1.77241c3.00222,0,4.58911-1.22343,4.58911-3.07818,0-1.77045-1.37244-2.78214-4.84645-4.00361-4.80356-1.645-7.93445-4.25848-7.93445-8.38953,0-4.84863,4.11734-8.55814,10.93668-8.55814a17.93911,17.93911,0,0,1,7.3769,1.43518l-1.45822,5.1839a13.92246,13.92246,0,0,0-6.04735-1.34891c-2.83067,0-4.20312,1.2646-4.20312,2.741,0,1.81162,1.62979,2.61155,5.36112,4.0036,5.10379,1.85475,7.50557,4.46827,7.50557,8.47384,0,4.76236-3.73134,8.8091-11.66579,8.8091a19.21026,19.21026,0,0,1-8.1918-1.72731Z" transform="translate(-137.85106 -32.14894)" style="fill:#fff"/><path d="M272.67254,495.0027c.21444,2.65469,2.87356,3.92126,5.91868,3.92126a18.79815,18.79815,0,0,0,5.79-.84307l.85778,4.34083a21.026,21.026,0,0,1-7.59134,1.2646c-7.11957,0-11.194-4.04674-11.194-10.49524,0-5.227,3.30245-11.003,10.59357-11.003,6.77646,0,9.3498,5.1839,9.3498,10.28546a14.95612,14.95612,0,0,1-.21445,2.52921Zm7.67712-4.384c0-1.56066-.68622-4.17222-3.68845-4.17222-2.74489,0-3.86,2.44295-4.03156,4.17222Z" transform="translate(-137.85106 -32.14894)" style="fill:#fff"/><path d="M290.30389,489.22669c0-2.57039-.08578-4.76237-.17156-6.576h5.66135l.30022,2.82526h.12867a7.7079,7.7079,0,0,1,6.47623-3.288c4.28889,0,7.50557,2.78213,7.50557,8.85224v12.22452h-6.51912V491.84216c0-2.65665-.94356-4.47023-3.30245-4.47023a3.4719,3.4719,0,0,0-3.30245,2.40373,4.33775,4.33775,0,0,0-.25734,1.60184v11.88729h-6.51912Z" transform="translate(-137.85106 -32.14894)" style="fill:#fff"/><path d="M315.44181,489.22669c0-2.57039-.08578-4.76237-.17156-6.576h5.66134l.30023,2.82526h.12866a7.70792,7.70792,0,0,1,6.47623-3.288c4.2889,0,7.50557,2.78213,7.50557,8.85224v12.22452h-6.51912V491.84216c0-2.65665-.94356-4.47023-3.30245-4.47023a3.47191,3.47191,0,0,0-3.30245,2.40373,4.338,4.338,0,0,0-.25733,1.60184v11.88729h-6.51912Z" transform="translate(-137.85106 -32.14894)" style="fill:#fff"/><path d="M361.29509,492.72641c0,7.54646-5.4469,11.00109-11.06535,11.00109-6.13312,0-10.85091-3.96047-10.85091-10.62269,0-6.6583,4.46045-10.91678,11.194-10.91678C357.00619,482.188,361.29509,486.52886,361.29509,492.72641Zm-15.18269.20979c0,3.54089,1.50111,6.19754,4.28889,6.19754,2.53045,0,4.16023-2.488,4.16023-6.19754,0-3.07623-1.20089-6.19559-4.16023-6.19559C347.2704,486.74061,346.1124,489.90114,346.1124,492.9362Z" transform="translate(-137.85106 -32.14894)" style="fill:#fff"/><path d="M369.79109,482.65074l2.83067,9.56983a46.86193,46.86193,0,0,1,1.20089,5.01724h.12867c.34311-1.68614.68622-3.2468,1.158-5.01724l2.702-9.56983h6.86223l-7.80579,20.61405h-6.51912l-7.63424-20.61405Z" transform="translate(-137.85106 -32.14894)" style="fill:#fff"/><path d="M399.30268,503.26479l-.386-2.06651H398.788a7.613,7.613,0,0,1-6.00446,2.52922c-4.246,0-6.77645-3.03506-6.77645-6.32107,0-5.35448,4.88934-7.92486,12.30913-7.88369v-.296c0-1.094-.60045-2.6547-3.81712-2.6547a11.95106,11.95106,0,0,0-5.79,1.56066l-1.20089-4.133a17.571,17.571,0,0,1,8.1489-1.81162c6.9909,0,9.22113,4.04674,9.22113,8.89341v7.16806a31.38475,31.38475,0,0,0,.30022,5.01529Zm-.772-9.73649c-3.43111-.04313-6.09023.75681-6.09023,3.24485a2.3233,2.3233,0,0,0,2.57334,2.4449,3.55819,3.55819,0,0,0,3.38823-2.3606,4.52582,4.52582,0,0,0,.12866-1.096Z" transform="translate(-137.85106 -32.14894)" style="fill:#fff"/></g></svg>