<svg id="af2a4d9d-186b-43b0-9b64-df9014a3e955" data-name="Capa 1" xmlns="http://www.w3.org/2000/svg" viewBox="0 0 370.7234 560.68085"><rect width="370.7234" height="560.68085" rx="25.72792" style="opacity:0.05"/><g style="opacity:0.4"><path d="M239.13224,459.15161a16.70323,16.70323,0,0,0,7.20852,1.77577c2.98577,0,4.564-1.2265,4.564-3.08889,0-1.77773-1.36493-2.79358-4.8199-4.022-4.77724-1.64977-7.891-4.274-7.891-8.42209,0-4.86662,4.09478-8.5914,10.87676-8.5914a17.76628,17.76628,0,0,1,7.33648,1.43715l-1.45024,5.20721a13.76623,13.76623,0,0,0-6.0142-1.35447c-2.81516,0-4.18009,1.26981-4.18009,2.75027,0,1.82105,1.62085,2.62625,5.33174,4.022,5.07582,1.86239,7.46445,4.48666,7.46445,8.50674,0,4.78394-3.7109,8.84733-11.60188,8.84733a18.91976,18.91976,0,0,1-8.1469-1.73639Z" transform="translate(-137.08511 -33.68085)" style="fill:#fff"/><path d="M267.03189,457.49988c.21327,2.66758,2.85781,3.93542,5.88624,3.93542a18.47194,18.47194,0,0,0,5.75829-.84654l.85308,4.36067a20.73111,20.73111,0,0,1-7.54975,1.26981c-7.08056,0-11.13268-4.06339-11.13268-10.54041,0-5.24854,3.28435-11.04636,10.53552-11.04636,6.73933,0,9.29856,5.20721,9.29856,10.32779a15.18,15.18,0,0,1-.21327,2.53962Zm7.63506-4.402c0-1.56511-.68247-4.19136-3.66824-4.19136-2.72986,0-3.83886,2.45694-4.00947,4.19136Z" transform="translate(-137.08511 -33.68085)" style="fill:#fff"/><path d="M284.56663,451.91272c0-3.04755-.08531-5.0379-.17062-6.81367h5.58767l.21327,3.80746h.17062a6.12232,6.12232,0,0,1,5.63032-4.274,6.73231,6.73231,0,0,1,1.36492.08466v6.05177a9.53439,9.53439,0,0,0-1.74881-.16931,4.16472,4.16472,0,0,0-4.436,3.26017,7.52993,7.52993,0,0,0-.128,1.43911V465.796h-6.4834Z" transform="translate(-137.08511 -33.68085)" style="fill:#fff"/><path d="M306.36478,445.09905l2.81516,9.60725a47.63,47.63,0,0,1,1.19431,5.03592h.128c.34124-1.69308.68247-3.25819,1.15166-5.03592l2.6872-9.60725h6.82463l-7.763,20.69692h-6.4834l-7.5924-20.69692Z" transform="translate(-137.08511 -33.68085)" style="fill:#fff"/><path d="M330.85212,439.34258a3.24589,3.24589,0,0,1-3.49763,3.21685,3.242,3.242,0,1,1,.04266-6.477A3.241,3.241,0,0,1,330.85212,439.34258ZM324.15545,465.796V445.09905h6.4834V465.796Z" transform="translate(-137.08511 -33.68085)" style="fill:#fff"/><path d="M351.49861,465.288a15.92516,15.92516,0,0,1-5.80094.9312c-6.73932,0-11.04737-4.06339-11.04737-10.58175,0-6.05374,4.18009-11.005,11.94311-11.005a15.14471,15.14471,0,0,1,4.94786.8052l-1.0237,4.782a8.9276,8.9276,0,0,0-3.62559-.63589,5.80208,5.80208,0,0,0,.128,11.59956,10.08908,10.08908,0,0,0,3.71089-.63589Z" transform="translate(-137.08511 -33.68085)" style="fill:#fff"/><path d="M361.78119,439.34258a3.24589,3.24589,0,0,1-3.49762,3.21685,3.242,3.242,0,1,1,.04265-6.477A3.241,3.241,0,0,1,361.78119,439.34258ZM355.08452,465.796V445.09905h6.4834V465.796Z" transform="translate(-137.08511 -33.68085)" style="fill:#fff"/><path d="M387.37554,455.21422c0,7.57555-5.41705,11.04833-11.00472,11.04833-6.09951,0-10.79145-3.98071-10.79145-10.6664,0-6.68964,4.436-10.96368,11.13268-10.96368C383.11015,444.63247,387.37554,448.99314,387.37554,455.21422Zm-15.0995.21262c0,3.55547,1.49289,6.22108,4.2654,6.22108,2.51658,0,4.13743-2.49631,4.13743-6.22108,0-3.09085-1.19431-6.22305-4.13743-6.22305C373.4277,449.20379,372.276,452.3793,372.276,455.42684Z" transform="translate(-137.08511 -33.68085)" style="fill:#fff"/><path d="M391.34633,460.16746a12.76028,12.76028,0,0,0,5.58766,1.56512c1.96209,0,2.77251-.67723,2.77251-1.73443,0-1.05915-.63981-1.56708-3.07108-2.37031-4.30805-1.44108-5.97156-3.76808-5.9289-6.22305,0-3.85274,3.327-6.77232,8.48813-6.77232a14.06925,14.06925,0,0,1,5.88625,1.18516l-1.15166,4.44335a10.29846,10.29846,0,0,0-4.52132-1.18516c-1.57819,0-2.47393.63589-2.47393,1.69308,0,.97451.81043,1.48243,3.36967,2.37031,3.96681,1.35447,5.63032,3.34482,5.673,6.39236,0,3.85274-3.07108,6.68767-9.04264,6.68767a14.86308,14.86308,0,0,1-6.73932-1.43912Z" transform="translate(-137.08511 -33.68085)" style="fill:#fff"/><path d="M243.90551,504.534H233.32733v6.77232h11.81515v5.29186h-18.3412V488.06981h17.744v5.28989h-11.218v5.92578h10.57818Z" transform="translate(-137.08511 -33.68085)" style="fill:#fff"/><path d="M268.99,495.89932c-.0853,1.31312-.17061,3.04754-.17061,6.1384V513.594c0,3.97677-.81043,7.23693-3.15639,9.31194-2.30332,1.94507-5.41706,2.53962-8.48814,2.53962a16.35064,16.35064,0,0,1-7.5071-1.6104l1.27962-4.86662a12.90016,12.90016,0,0,0,6.05686,1.56708c3.07109,0,5.41706-1.65173,5.41706-5.46116V513.72H262.336a6.68513,6.68513,0,0,1-5.63032,2.70893c-5.16113,0-8.82937-4.148-8.82937-10.11516,0-6.64633,4.3507-10.879,9.46918-10.879a6.30089,6.30089,0,0,1,5.71562,2.92154h.08531l.21327-2.45693Zm-6.654,8.42405a5.05093,5.05093,0,0,0-.128-1.18515,3.55014,3.55014,0,0,0-3.49763-2.8369c-2.346,0-4.26539,2.11832-4.26539,5.88444,0,3.08889,1.53554,5.50251,4.26539,5.50251a3.516,3.516,0,0,0,3.41232-2.62427,5.43436,5.43436,0,0,0,.21327-1.69308Z" transform="translate(-137.08511 -33.68085)" style="fill:#fff"/><path d="M274.02714,502.715c0-3.04755-.08531-5.03593-.17062-6.81563h5.58767l.21327,3.8114h.17061a6.12177,6.12177,0,0,1,5.63033-4.276,6.73309,6.73309,0,0,1,1.36492.08465v6.05374a9.19907,9.19907,0,0,0-1.74881-.1693,4.16153,4.16153,0,0,0-4.436,3.25819,7.53,7.53,0,0,0-.128,1.43912V516.5982h-6.4834Z" transform="translate(-137.08511 -33.68085)" style="fill:#fff"/><path d="M294.88889,508.30211c.21327,2.66562,2.85781,3.93739,5.88624,3.93739a18.52993,18.52993,0,0,0,5.75828-.84654l.85308,4.3587a20.73108,20.73108,0,0,1-7.54975,1.26981c-7.08055,0-11.13268-4.06339-11.13268-10.53844,0-5.24854,3.28436-11.04832,10.53553-11.04832,6.73932,0,9.29856,5.20523,9.29856,10.32778a15.15866,15.15866,0,0,1-.21327,2.53962Zm7.635-4.402c0-1.56708-.68246-4.18938-3.66824-4.18938-2.72985,0-3.83885,2.453-4.00947,4.18938Z" transform="translate(-137.08511 -33.68085)" style="fill:#fff"/><path d="M312.381,510.96773a12.7341,12.7341,0,0,0,5.58767,1.56708c1.96208,0,2.77251-.67723,2.77251-1.73639,0-1.05719-.63981-1.56512-3.07109-2.37031-4.308-1.43715-5.97155-3.76612-5.9289-6.22109,0-3.85077,3.327-6.77231,8.48814-6.77231a14.10031,14.10031,0,0,1,5.88624,1.18515l-1.15165,4.44532a10.29868,10.29868,0,0,0-4.52132-1.18516c-1.5782,0-2.47393.63392-2.47393,1.69308,0,.97254.81042,1.48046,3.36966,2.37031,3.96682,1.35447,5.63032,3.34285,5.673,6.3904,0,3.85077-3.07109,6.68766-9.04264,6.68766a14.86305,14.86305,0,0,1-6.73932-1.43912Z" transform="translate(-137.08511 -33.68085)" style="fill:#fff"/><path d="M342.79621,516.5982l-.38388-2.075h-.128a7.53762,7.53762,0,0,1-5.97156,2.53962,6.37028,6.37028,0,0,1-6.73932-6.34708c0-5.37651,4.86255-7.95747,12.24168-7.91613v-.29727c0-1.09853-.59715-2.66562-3.7962-2.66562a11.79923,11.79923,0,0,0-5.75828,1.56709l-1.19431-4.15a17.33917,17.33917,0,0,1,8.10425-1.81907c6.95259,0,9.1706,4.06339,9.1706,8.93v7.19755a31.81389,31.81389,0,0,0,.29857,5.03593Zm-.76777-9.77655c-3.41231-.04331-6.05686.75992-6.05686,3.25819a2.3203,2.3203,0,0,0,2.55924,2.455,3.541,3.541,0,0,0,3.36966-2.37031,4.58572,4.58572,0,0,0,.128-1.1005Z" transform="translate(-137.08511 -33.68085)" style="fill:#fff"/><path d="M373.68164,486.546v23.87242c0,2.329.08531,4.782.17062,6.17974H368.094l-.29857-3.04754h-.08531a7.29592,7.29592,0,0,1-6.52606,3.51215c-4.94785,0-8.91467-4.18938-8.91467-10.62309-.04266-6.98494,4.3507-11.005,9.34121-11.005,2.55924,0,4.564.88985,5.50236,2.327h.08531V486.546Zm-6.4834,18.11595a10.31587,10.31587,0,0,0-.08531-1.14381,3.88636,3.88636,0,0,0-3.7962-3.17354c-2.94312,0-4.47866,2.62427-4.47866,5.88246,0,3.51413,1.74881,5.71513,4.436,5.71513a3.78843,3.78843,0,0,0,3.75354-3.08888,5.45373,5.45373,0,0,0,.17062-1.48243Z" transform="translate(-137.08511 -33.68085)" style="fill:#fff"/><path d="M399.49125,506.01645c0,7.57752-5.417,11.04636-11.00472,11.04636-6.09952,0-10.79145-3.97677-10.79145-10.6664,0-6.68569,4.436-10.9617,11.13268-10.9617C395.22585,495.43471,399.49125,499.7934,399.49125,506.01645Zm-15.0995.21065c0,3.55547,1.49289,6.22306,4.26539,6.22306,2.51659,0,4.13744-2.49828,4.13744-6.22306,0-3.08888-1.19431-6.22108-4.13744-6.22108C385.54341,500.006,384.39175,503.17956,384.39175,506.2271Z" transform="translate(-137.08511 -33.68085)" style="fill:#fff"/><path d="M403.462,510.96773a12.7341,12.7341,0,0,0,5.58767,1.56708c1.96208,0,2.77251-.67723,2.77251-1.73639,0-1.05719-.63981-1.56512-3.07109-2.37031-4.30805-1.43715-5.97155-3.76612-5.9289-6.22109,0-3.85077,3.327-6.77231,8.48814-6.77231a14.10031,14.10031,0,0,1,5.88624,1.18515l-1.15165,4.44532a10.29868,10.29868,0,0,0-4.52132-1.18516c-1.5782,0-2.47393.63392-2.47393,1.69308,0,.97254.81042,1.48046,3.36966,2.37031,3.96682,1.35447,5.63032,3.34285,5.673,6.3904,0,3.85077-3.07109,6.68766-9.04264,6.68766a14.86305,14.86305,0,0,1-6.73932-1.43912Z" transform="translate(-137.08511 -33.68085)" style="fill:#fff"/></g><path d="M302.07386,76.83728a29.06636,29.06636,0,1,0,36.07688-1.01707" transform="translate(-137.08511 -33.68085)" style="fill:none;stroke:#fff;stroke-miterlimit:10"/><path d="M340.22183,214.01863V157.39879H293.82952V170.8123l14.93086.34458c6.20965.272,13.86437,3.7041,13.86437,12.69977,0,13.22894-10.14,14.28725-11.19815,14.28725H293.82952v15.87473Z" transform="translate(-137.08511 -33.68085)" style="fill:none;stroke:#fff;stroke-miterlimit:10"/><path d="M380.028,169.63c-2.56221-10.26082-6.44574-20.02077-13.84517-27.95658-6.212-6.66221-13.65893-10.20715-23.13867-9.88579-11.39173.38615-22.59024-.10322-34.20507-.153-.02646-.11149-.05276-.1726-.0787-.16459-17.06384,0-22.16273,2.40944-24.6368,3.87024-9.18142,5.42128-15.19234,13.65578-19.77172,23.008-3.18053,6.49555-5.34827,13.255-4.70235,20.638.79844,9.12558,7.23175,15.80354,16.43628,15.93951.91241.01344,2.46531.02313,4.41261.03023v.01292h6.00372c2.33162.00271,4.83446.00375,7.3274.00388V194.969h14.93086a10.62427,10.62427,0,0,0,10.6649-10.58315h0a10.62427,10.62427,0,0,0-10.6649-10.58315l-27.6354-.12411c0-4.43521,0-8.87041,4.17262-9.40124,0,.00052,1.59974.00052,2.133.00052l.3986,4.96551h6.70419l-.70385-11.84455h46.39231v56.61984H293.82952V198.1439h-7.99867c0,4.76242.05806,13.81339.0619,15.89669q.11482,62.04.085,124.0801c.00143,4.9385.06216,9.878-.01849,14.81531-.13123,8.02773,3.46369,13.47788,11.16976,16.70269q4.59681.03817,9.19353.07648l.00749-.0042c7.52232-2.61413,11.52764-8.01145,11.56156-15.92336.06424-14.98183.03808-29.964.03749-44.94608-.00091-22.47278.01692-44.94569-.06451-67.41821-.008-2.21107,1.00622-2.40834,2.75554-2.36015,1.84038.05077,3.3385-.20515,3.32913,2.60755-.09712,29.08285-.05435,58.1661-.05025,87.24921.00111,7.75559.19476,15.51687-.046,23.265-.26812,8.63059,3.31527,14.50506,11.38685,17.89116q4.38083.056,8.762.10471c.0304-.02015.05944-.04166.09081-.06072h-.52413c1.29946-.55564,2.1775-.86615,2.9952-1.29111,6.06716-3.15279,9.14-8.077,9.1328-14.93888q-.04257-40.74273-.00683-81.48558.0002-52.251-.00378-104.50219-.0001-1.68949-.00007-3.379.29469-.10523.58936-.21038c.54913,1.19222,1.19492,2.35052,1.63228,3.58189a107.00138,107.00138,0,0,1,6.00571,32.66713c.435,14.26316.10037,28.54969.07512,42.82616-.00892,5.029,2.67247,8.91041,7.19112,10.28633a10.07643,10.07643,0,0,0,11.64814-4.15406,9.81537,9.81537,0,0,0,1.5968-4.40483C385.97785,219.78445,386.2375,194.49761,380.028,169.63Z" transform="translate(-137.08511 -33.68085)" style="fill:none;stroke:#fff;stroke-miterlimit:10"/><polygon points="192.205 143.032 190.072 152.028 192.738 150.97 196.471 152.557 193.805 143.032 192.205 143.032" style="fill:none;stroke:#fff;stroke-miterlimit:10"/><ellipse cx="193.27169" cy="136.68229" rx="5.86569" ry="5.82073" style="fill:none;stroke:#fff;stroke-miterlimit:10"/><polygon points="195.7 140.362 193.214 138.96 190.64 140.198 191.216 137.418 189.235 135.372 192.077 135.056 193.426 132.554 194.606 135.138 197.421 135.638 195.309 137.551 195.7 140.362" style="fill:#fff"/><polygon points="182.367 26.054 139.309 38.56 182.367 46.897 223.326 36.476 182.367 26.054" style="fill:none;stroke:#fff;stroke-miterlimit:10"/><polyline points="139.309 38.56 139.309 57.275 139.309 60.445" style="fill:none;stroke:#fff;stroke-miterlimit:10"/><line x1="139.30886" y1="75.03536" x2="139.30886" y2="57.31867" style="fill:none;stroke:#fff;stroke-linecap:round;stroke-miterlimit:10"/></svg>