<svg id="f4df749e-b76e-46c5-93a3-33ab9c7ecfc4" data-name="Capa 1" xmlns="http://www.w3.org/2000/svg" viewBox="0 0 426.89362 637.2766"><rect width="426.89362" height="637.2766" rx="25.30614" style="opacity:0.05"/><polygon points="347.093 177.453 349.144 177.481 349.999 118.202 186.084 118.202 186.084 120.211 347.92 120.211 347.093 177.453" style="fill:#fff"/><path d="M416.83059,206.47769,459.232,232.11993v52.858H343.505c-.55307-39.97012-33.90218-72.32408-74.83788-72.32408-41.27971,0-74.86392,32.89545-74.86392,73.32859v1.0045H461.283V230.99772L417.9082,204.76689ZM337.3778,284.97788H195.86224c.55082-38.8636,32.99933-70.31508,72.80484-70.31508s72.254,31.45148,72.80484,70.31508Z" transform="translate(-111.29787 -3.04255)" style="fill:#fff"/><path d="M268.66708,201.60429c24.31635,0,44.09793-19.37589,44.09793-43.19356s-19.78158-43.19355-44.09793-43.19355-44.09793,19.37589-44.09793,43.19355S244.35073,201.60429,268.66708,201.60429Zm0-84.3781c23.18466,0,42.04686,18.47536,42.04686,41.18454s-18.8622,41.18455-42.04686,41.18455-42.04686-18.47536-42.04686-41.18455S245.48242,117.22619,268.66708,117.22619Z" transform="translate(-111.29787 -3.04255)" style="fill:#fff"/><path d="M384.54632,187.54127l-.02-1.02412c-.5328-26.529-22.11707-48.53781-49.13946-50.10538l-1.08563-.06279v4.98523h-4.10213V136.349l-1.08562.06279a52.89027,52.89027,0,0,0-17.06151,3.87086l-.93139.38257.37656.91818a44.14145,44.14145,0,0,1,3.319,16.82735,45.18182,45.18182,0,0,1-31.88767,42.99148l-.96144.30606.29845.94564a50.3902,50.3902,0,0,0,3.48521,8.29891l.22233.42377.47671.10006a85.91857,85.91857,0,0,1,46.49151,26.91357l.31848.359.48472-.01374c26.22721-.722,47.95569-20.52949,50.54557-46.07168l.11216-1.10456h-6.003v-4.018Zm-2.42162,6.027c-2.97244,23.851-23.35091,42.23613-47.95569,43.14254a88.02615,88.02615,0,0,0-46.814-27.098,48.48319,48.48319,0,0,1-2.82422-6.61951,47.15657,47.15657,0,0,0,32.33634-44.58259,46.06119,46.06119,0,0,0-3.09663-16.64489A50.77141,50.77141,0,0,1,328.148,138.4914v4.85182h8.20427V138.4914c25.10553,1.99527,45.06938,22.36781,46.09091,47.04087h-6.09512v8.036Z" transform="translate(-111.29787 -3.04255)" style="fill:#fff"/><polygon points="215.668 192.195 202.064 182.676 200.87 184.312 215.981 194.883 247.36 160.051 245.821 158.721 215.668 192.195" style="fill:#fff"/><g style="opacity:0.4"><path d="M151.09534,428.61094a13.70951,13.70951,0,0,0,5.859,1.42568c2.4264,0,3.70807-.98562,3.70807-2.47912,0-1.42568-1.10934-2.241-3.91732-3.22512-3.88193-1.32471-6.413-3.43007-6.413-6.75767,0-3.9048,3.328-6.89331,8.8409-6.89331a14.58429,14.58429,0,0,1,5.96214,1.15441l-1.17858,4.17608a11.32552,11.32552,0,0,0-4.88819-1.08509c-2.28792,0-3.39726,1.01727-3.39726,2.20634,0,1.46034,1.317,2.10537,4.33274,3.22512,4.125,1.495,6.06677,3.60037,6.06677,6.82549,0,3.837-3.01569,7.09676-9.42865,7.09676a15.567,15.567,0,0,1-6.62221-1.391Z" transform="translate(-111.29787 -3.04255)" style="fill:#fff"/><path d="M174.90853,412.719a2.62273,2.62273,0,0,1-2.84337,2.58009,2.60207,2.60207,0,1,1,.03539-5.19484A2.61922,2.61922,0,0,1,174.90853,412.719Zm-5.44363,21.22247V417.33659h5.26976v16.60483Z" transform="translate(-111.29787 -3.04255)" style="fill:#fff"/><path d="M178.9274,429.42475a10.46546,10.46546,0,0,0,4.54046,1.25689c1.59554,0,2.25407-.54254,2.25407-1.39253,0-.84847-.52-1.25538-2.49564-1.90191-3.50189-1.15441-4.85434-3.02166-4.819-4.99139,0-3.08948,2.70335-5.433,6.89917-5.433a11.57367,11.57367,0,0,1,4.78356.951l-.93548,3.56571a8.46559,8.46559,0,0,0-3.67576-.951c-1.28167,0-2.011.50939-2.011,1.35787,0,.78216.66006,1.18907,2.73874,1.90191,3.22494,1.0866,4.57739,2.68258,4.61124,5.127,0,3.091-2.49564,5.36515-7.35,5.36515a12.19492,12.19492,0,0,1-5.47594-1.15441Z" transform="translate(-111.29787 -3.04255)" style="fill:#fff"/><path d="M199.89876,412.58332v4.75327h3.77884v3.80383h-3.77884v6.01017c0,2.00289.48466,2.91918,2.08021,2.91918a8.7647,8.7647,0,0,0,1.55862-.13563l.03539,3.9048a10.51223,10.51223,0,0,1-3.43266.44157,5.546,5.546,0,0,1-3.95117-1.42568c-.97087-.98412-1.45553-2.5801-1.45553-4.92358v-6.79083h-2.25408v-3.80383h2.25408v-3.59886Z" transform="translate(-111.29787 -3.04255)" style="fill:#fff"/><path d="M210.60908,427.28623c.17232,2.13852,2.32177,3.15729,4.78356,3.15729a15.22433,15.22433,0,0,0,4.68048-.67817l.69237,3.49638a17.03209,17.03209,0,0,1-6.136,1.01878c-5.75443,0-9.04708-3.25978-9.04708-8.45463,0-4.21073,2.668-8.863,8.56241-8.863,5.47748,0,7.55769,4.17758,7.55769,8.28584a12.01545,12.01545,0,0,1-.17386,2.03755Zm6.20524-3.531c0-1.25689-.55544-3.36226-2.98184-3.36226a3.418,3.418,0,0,0-3.25879,3.36226Z" transform="translate(-111.29787 -3.04255)" style="fill:#fff"/><path d="M224.8536,422.63392c0-2.0707-.06924-3.837-.13847-5.29733h4.43737l.2431,2.241h.10463a5.90744,5.90744,0,0,1,5.12975-2.61476,4.811,4.811,0,0,1,4.64509,2.81821h.06924a7.55853,7.55853,0,0,1,2.18483-2.00289,6.21992,6.21992,0,0,1,3.22341-.81532c3.25879,0,5.72058,2.241,5.72058,7.19924v9.77934h-5.13129v-9.03183c0-2.4113-.797-3.80383-2.49564-3.80383a2.57183,2.57183,0,0,0-2.4264,1.79943,4.24878,4.24878,0,0,0-.20771,1.32471v9.71152H235.0808v-9.30461c0-2.10537-.76316-3.53105-2.4264-3.53105a2.67225,2.67225,0,0,0-2.46179,1.86725,3.38368,3.38368,0,0,0-.20772,1.29155v9.67686H224.8536Z" transform="translate(-111.29787 -3.04255)" style="fill:#fff"/><path d="M264.30069,433.94142l-.31234-1.6638h-.10309a6.16642,6.16642,0,0,1-4.85434,2.03755,5.1476,5.1476,0,0,1-5.47748-5.09387c0-4.31171,3.95271-6.38392,9.95025-6.34926v-.23812c0-.88314-.48621-2.13852-3.08493-2.13852a9.69508,9.69508,0,0,0-4.68048,1.25538l-.97087-3.32759a14.23321,14.23321,0,0,1,6.58683-1.46035c5.65134,0,7.45306,3.25978,7.45306,7.16458V429.901a25.12815,25.12815,0,0,0,.2431,4.04044Zm-.62314-7.84427c-2.77413-.03315-4.92358.61187-4.92358,2.61476a1.87572,1.87572,0,0,0,2.08021,1.96973,2.87353,2.87353,0,0,0,2.73874-1.90191,3.63132,3.63132,0,0,0,.10463-.88314Z" transform="translate(-111.29787 -3.04255)" style="fill:#fff"/><path d="M296.3978,409.83293v19.15025c0,1.86876.06924,3.837.13847,4.95824h-4.67893l-.2431-2.44446H291.545a5.9499,5.9499,0,0,1-5.30362,2.81821c-4.022,0-7.24535-3.36226-7.24535-8.52244-.03539-5.60326,3.53574-8.82989,7.59154-8.82989,2.08021,0,3.70961.71435,4.47122,1.86876h.06924v-8.99867ZM291.128,424.36554a7.98253,7.98253,0,0,0-.06924-.9163,3.14556,3.14556,0,0,0-3.08493-2.54693c-2.39255,0-3.64037,2.10536-3.64037,4.72012,0,2.81821,1.42169,4.58449,3.60653,4.58449a3.06734,3.06734,0,0,0,3.04954-2.47912,4.29013,4.29013,0,0,0,.13847-1.18908Z" transform="translate(-111.29787 -3.04255)" style="fill:#fff"/><path d="M304.68172,427.28623c.17232,2.13852,2.32177,3.15729,4.78356,3.15729a15.21721,15.21721,0,0,0,4.68048-.67817l.69237,3.49638a17.03209,17.03209,0,0,1-6.136,1.01878c-5.75444,0-9.04708-3.25978-9.04708-8.45463,0-4.21073,2.668-8.863,8.56241-8.863,5.47748,0,7.55769,4.17758,7.55769,8.28584a12.01545,12.01545,0,0,1-.17386,2.03755Zm6.20524-3.531c0-1.25689-.55544-3.36226-2.98184-3.36226a3.418,3.418,0,0,0-3.25879,3.36226Z" transform="translate(-111.29787 -3.04255)" style="fill:#fff"/><path d="M331.40443,411.05515v22.88627h-5.30361V411.05515Z" transform="translate(-111.29787 -3.04255)" style="fill:#fff"/><path d="M335.90951,422.63392c0-2.0707-.06924-3.837-.13848-5.29733h4.57585l.2431,2.27567h.10463a6.23391,6.23391,0,0,1,5.23438-2.64942c3.4665,0,6.06677,2.241,6.06677,7.13143v9.84715H346.726v-9.20213c0-2.13852-.76315-3.59887-2.6695-3.59887a2.80558,2.80558,0,0,0-2.6695,1.93507,3.4869,3.4869,0,0,0-.20772,1.29005v9.57588h-5.26976Z" transform="translate(-111.29787 -3.04255)" style="fill:#fff"/><path d="M356.81009,433.94142v-12.801h-2.21868v-3.80383h2.21868v-.645a7.48718,7.48718,0,0,1,2.14945-5.5686,6.96028,6.96028,0,0,1,4.68048-1.6638,10.3332,10.3332,0,0,1,2.808.33909l-.20772,3.97262a5.81742,5.81742,0,0,0-1.69863-.23661c-1.734,0-2.46179,1.3232-2.46179,2.95385v.84847h3.39727v3.80383h-3.36188v12.801Z" transform="translate(-111.29787 -3.04255)" style="fill:#fff"/><path d="M384.43906,425.45213c0,6.078-4.402,8.863-8.944,8.863-4.95743,0-8.77012-3.192-8.77012-8.55711s3.605-8.79522,9.04707-8.79522C380.97255,416.96284,384.43906,420.46074,384.43906,425.45213Zm-12.272.1703c0,2.85136,1.214,4.99139,3.4665,4.99139,2.04483,0,3.36342-2.00288,3.36342-4.99139,0-2.47912-.97086-4.9914-3.36342-4.9914C373.10252,420.631,372.167,423.178,372.167,425.62243Z" transform="translate(-111.29787 -3.04255)" style="fill:#fff"/><path d="M387.69323,422.80422c0-2.446-.06924-4.04044-.13847-5.46763h4.542l.17386,3.05633h.13848a4.96929,4.96929,0,0,1,4.57585-3.43008,5.55463,5.55463,0,0,1,1.10934.06782v4.85576a7.72333,7.72333,0,0,0-1.42168-.13564,3.37618,3.37618,0,0,0-3.605,2.61476A5.97087,5.97087,0,0,0,392.963,425.52v8.42147h-5.26977Z" transform="translate(-111.29787 -3.04255)" style="fill:#fff"/><path d="M400.86534,422.63392c0-2.0707-.06924-3.837-.13848-5.29733h4.43738l.2431,2.241h.10463a5.90741,5.90741,0,0,1,5.12975-2.61476,4.811,4.811,0,0,1,4.64509,2.81821h.06923a7.55857,7.55857,0,0,1,2.18484-2.00289,6.21992,6.21992,0,0,1,3.22341-.81532c3.25879,0,5.72058,2.241,5.72058,7.19924v9.77934h-5.13129v-9.03183c0-2.4113-.797-3.80383-2.49564-3.80383a2.57183,2.57183,0,0,0-2.4264,1.79943,4.24879,4.24879,0,0,0-.20772,1.32471v9.71152h-5.13129v-9.30461c0-2.10537-.76315-3.53105-2.4264-3.53105a2.67226,2.67226,0,0,0-2.46179,1.86725,3.38386,3.38386,0,0,0-.20771,1.29155v9.67686h-5.13129Z" transform="translate(-111.29787 -3.04255)" style="fill:#fff"/><path d="M440.31089,433.94142l-.31234-1.6638h-.10309a6.16642,6.16642,0,0,1-4.85434,2.03755,5.1476,5.1476,0,0,1-5.47748-5.09387c0-4.31171,3.95271-6.38392,9.95024-6.34926v-.23812c0-.88314-.4862-2.13852-3.08492-2.13852a9.69508,9.69508,0,0,0-4.68048,1.25538l-.97087-3.32759a14.2332,14.2332,0,0,1,6.58682-1.46035c5.65135,0,7.45307,3.25978,7.45307,7.16458V429.901a25.12815,25.12815,0,0,0,.2431,4.04044Zm-.62314-7.84427c-2.77413-.03315-4.92358.61187-4.92358,2.61476a1.87572,1.87572,0,0,0,2.08021,1.96973,2.87353,2.87353,0,0,0,2.73874-1.90191,3.63132,3.63132,0,0,0,.10463-.88314Z" transform="translate(-111.29787 -3.04255)" style="fill:#fff"/><path d="M461.69768,433.53451a13.10648,13.10648,0,0,1-4.71433.746c-5.47748,0-8.97783-3.25978-8.97783-8.48778,0-4.85576,3.39726-8.82989,9.7056-8.82989a12.46942,12.46942,0,0,1,4.022.645l-.8324,3.83849a7.31883,7.31883,0,0,0-2.94645-.50939,4.6522,4.6522,0,0,0,.10463,9.3031,8.27078,8.27078,0,0,0,3.01569-.50939Z" transform="translate(-111.29787 -3.04255)" style="fill:#fff"/><path d="M470.05083,412.719a2.62273,2.62273,0,0,1-2.84336,2.58009,2.60207,2.60207,0,1,1,.03539-5.19484A2.61921,2.61921,0,0,1,470.05083,412.719Zm-5.44363,21.22247V417.33659H469.877v16.60483Z" transform="translate(-111.29787 -3.04255)" style="fill:#fff"/><path d="M490.84833,425.45213c0,6.078-4.402,8.863-8.944,8.863-4.95743,0-8.77013-3.192-8.77013-8.55711s3.605-8.79522,9.04708-8.79522C487.38183,416.96284,490.84833,420.46074,490.84833,425.45213Zm-12.272.1703c0,2.85136,1.214,4.99139,3.4665,4.99139,2.04483,0,3.36342-2.00288,3.36342-4.99139,0-2.47912-.97087-4.9914-3.36342-4.9914C479.5118,420.631,478.57632,423.178,478.57632,425.62243Zm8.944-15.51823-4.22966,5.16169h-3.64037l2.98184-5.16169Z" transform="translate(-111.29787 -3.04255)" style="fill:#fff"/><path d="M494.10405,422.63392c0-2.0707-.06924-3.837-.13848-5.29733h4.57585l.2431,2.27567h.10463a6.23391,6.23391,0,0,1,5.23438-2.64942c3.4665,0,6.06677,2.241,6.06677,7.13143v9.84715h-5.26977v-9.20213c0-2.13852-.76315-3.59887-2.6695-3.59887a2.80559,2.80559,0,0,0-2.6695,1.93507,3.48692,3.48692,0,0,0-.20771,1.29005v9.57588h-5.26977Z" transform="translate(-111.29787 -3.04255)" style="fill:#fff"/><path d="M204.17765,463.64715c0-2.17319-.06923-4.04044-.13847-5.5686H208.615l.2431,2.30882h.06924a6.55564,6.55564,0,0,1,5.65134-2.68258c3.70961,0,7.03764,3.15881,7.03764,8.45614,0,6.04332-3.91732,8.89619-7.69617,8.89619a5.31182,5.31182,0,0,1-4.40352-1.90191h-.06924v8.25117h-5.26977Zm5.26977,3.9048a5.02774,5.02774,0,0,0,.10463,1.08659,3.17506,3.17506,0,0,0,3.08493,2.446c2.28792,0,3.64037-1.86875,3.64037-4.687,0-2.64791-1.214-4.6508-3.57114-4.6508a3.29085,3.29085,0,0,0-3.15416,2.61475,3.91031,3.91031,0,0,0-.10463.9163Z" transform="translate(-111.29787 -3.04255)" style="fill:#fff"/><path d="M234.54382,474.68337l-.31234-1.6638h-.10309a6.16642,6.16642,0,0,1-4.85434,2.03755,5.14759,5.14759,0,0,1-5.47748-5.09387c0-4.31171,3.95271-6.38392,9.95024-6.34926v-.23812c0-.88313-.4862-2.13852-3.08492-2.13852a9.69508,9.69508,0,0,0-4.68048,1.25539l-.97087-3.3276a14.23334,14.23334,0,0,1,6.58683-1.46035c5.65134,0,7.45306,3.25978,7.45306,7.16458v5.77356a25.12806,25.12806,0,0,0,.2431,4.04044Zm-.62314-7.84426c-2.77413-.03316-4.92358.61186-4.92358,2.61475a1.87572,1.87572,0,0,0,2.08021,1.96973,2.87352,2.87352,0,0,0,2.73874-1.90191,3.63132,3.63132,0,0,0,.10463-.88314Z" transform="translate(-111.29787 -3.04255)" style="fill:#fff"/><path d="M243.20624,463.54617c0-2.446-.06924-4.04043-.13848-5.46762h4.542l.17387,3.05632h.13847a4.96929,4.96929,0,0,1,4.57585-3.43008,5.55453,5.55453,0,0,1,1.10934.06782v4.85576a7.72335,7.72335,0,0,0-1.42168-.13563,3.37617,3.37617,0,0,0-3.605,2.61475,5.97,5.97,0,0,0-.10463,1.15441v8.42147h-5.26976Z" transform="translate(-111.29787 -3.04255)" style="fill:#fff"/><path d="M265.63467,474.68337l-.31234-1.6638h-.10309a6.16642,6.16642,0,0,1-4.85434,2.03755,5.1476,5.1476,0,0,1-5.47748-5.09387c0-4.31171,3.95271-6.38392,9.95025-6.34926v-.23812c0-.88313-.48621-2.13852-3.08493-2.13852a9.69515,9.69515,0,0,0-4.68048,1.25539l-.97087-3.3276a14.23337,14.23337,0,0,1,6.58683-1.46035c5.65134,0,7.45306,3.25978,7.45306,7.16458v5.77356a25.12806,25.12806,0,0,0,.2431,4.04044Zm-.62314-7.84426c-2.77413-.03316-4.92358.61186-4.92358,2.61475a1.87572,1.87572,0,0,0,2.08021,1.96973,2.87351,2.87351,0,0,0,2.73874-1.90191,3.63132,3.63132,0,0,0,.10463-.88314Z" transform="translate(-111.29787 -3.04255)" style="fill:#fff"/><path d="M281.30088,450.57488h5.26977v24.10849h-5.26977Z" transform="translate(-111.29787 -3.04255)" style="fill:#fff"/><path d="M300.47052,474.68337l-.31234-1.6638h-.10309a6.16642,6.16642,0,0,1-4.85434,2.03755,5.1476,5.1476,0,0,1-5.47748-5.09387c0-4.31171,3.95271-6.38392,9.95025-6.34926v-.23812c0-.88313-.48621-2.13852-3.08493-2.13852a9.69508,9.69508,0,0,0-4.68048,1.25539l-.97087-3.3276a14.23334,14.23334,0,0,1,6.58683-1.46035c5.65134,0,7.45306,3.25978,7.45306,7.16458v5.77356a25.12806,25.12806,0,0,0,.2431,4.04044Zm-.62314-7.84426c-2.77413-.03316-4.92358.61186-4.92358,2.61475a1.87572,1.87572,0,0,0,2.08021,1.96973,2.87352,2.87352,0,0,0,2.73874-1.90191,3.63132,3.63132,0,0,0,.10463-.88314Z" transform="translate(-111.29787 -3.04255)" style="fill:#fff"/><path d="M335.82642,473.63144a26.66431,26.66431,0,0,1-7.79925,1.29005c-4.26505,0-7.35-1.05344-9.49943-3.091a10.94694,10.94694,0,0,1-3.29264-8.319c.03385-7.60615,5.68519-11.95252,13.346-11.95252a16.36731,16.36731,0,0,1,6.4822,1.12126l-1.10935,4.14291a13.16208,13.16208,0,0,0-5.44209-.98562c-4.402,0-7.73,2.44446-7.73,7.4027,0,4.72012,3.01569,7.50367,7.34843,7.50367a7.21777,7.21777,0,0,0,2.60027-.33909v-4.78794h-3.605v-4.04044h8.70088Z" transform="translate(-111.29787 -3.04255)" style="fill:#fff"/><path d="M344.03956,468.02818c.17233,2.13852,2.32178,3.1573,4.78357,3.1573a15.21709,15.21709,0,0,0,4.68047-.67818l.69238,3.49639a17.03234,17.03234,0,0,1-6.136,1.01877c-5.75443,0-9.04707-3.25978-9.04707-8.45463,0-4.21073,2.668-8.863,8.56241-8.863,5.47748,0,7.55769,4.17758,7.55769,8.28584a12.01641,12.01641,0,0,1-.17386,2.03755Zm6.20525-3.531c0-1.25689-.55544-3.36226-2.98184-3.36226a3.418,3.418,0,0,0-3.25879,3.36226Z" transform="translate(-111.29787 -3.04255)" style="fill:#fff"/><path d="M358.25024,470.1667a10.46536,10.46536,0,0,0,4.54046,1.25689c1.59555,0,2.25408-.54254,2.25408-1.39252,0-.84848-.52006-1.25539-2.49564-1.90192-3.5019-1.15441-4.85434-3.02166-4.819-4.99139,0-3.08948,2.70335-5.433,6.89916-5.433a11.57363,11.57363,0,0,1,4.78356.951l-.93548,3.56571a8.46566,8.46566,0,0,0-3.67576-.95095c-1.28166,0-2.011.50938-2.011,1.35786,0,.78217.66007,1.18907,2.73874,1.90191,3.22494,1.0866,4.57739,2.68258,4.61124,5.127,0,3.091-2.49564,5.36515-7.35,5.36515a12.19482,12.19482,0,0,1-5.47594-1.15441Z" transform="translate(-111.29787 -3.04255)" style="fill:#fff"/><path d="M379.2216,453.32527v4.75328h3.77885v3.80382H379.2216v6.01017c0,2.00289.48467,2.91919,2.08021,2.91919a8.7636,8.7636,0,0,0,1.55862-.13564l.03539,3.9048a10.51218,10.51218,0,0,1-3.43266.44157,5.546,5.546,0,0,1-3.95117-1.42568c-.97086-.98411-1.45553-2.58009-1.45553-4.92358v-6.79083h-2.25407v-3.80382h2.25407v-3.59887Z" transform="translate(-111.29787 -3.04255)" style="fill:#fff"/><path d="M391.49054,453.4609a2.62273,2.62273,0,0,1-2.84336,2.5801,2.60207,2.60207,0,1,1,.03538-5.19485A2.61922,2.61922,0,0,1,391.49054,453.4609Zm-5.44363,21.22247V458.07855h5.26977v16.60482Z" transform="translate(-111.29787 -3.04255)" style="fill:#fff"/><path d="M412.28958,466.19408c0,6.078-4.402,8.863-8.944,8.863-4.95742,0-8.77012-3.192-8.77012-8.5571s3.605-8.79523,9.04707-8.79523C408.82307,457.70479,412.28958,461.20269,412.28958,466.19408Zm-12.272.1703c0,2.85137,1.214,4.9914,3.46651,4.9914,2.04482,0,3.36342-2.00289,3.36342-4.9914,0-2.47912-.97087-4.99139-3.36342-4.99139C400.953,461.373,400.01756,463.91992,400.01756,466.36438Zm8.944-15.51823-4.22966,5.16169h-3.64037l2.98184-5.16169Z" transform="translate(-111.29787 -3.04255)" style="fill:#fff"/><path d="M415.54376,463.37587c0-2.0707-.06924-3.837-.13848-5.29732h4.57585l.2431,2.27566h.10463a6.23391,6.23391,0,0,1,5.23438-2.64942c3.4665,0,6.06677,2.241,6.06677,7.13143v9.84715h-5.26977v-9.20213c0-2.13852-.76316-3.59887-2.6695-3.59887a2.80558,2.80558,0,0,0-2.6695,1.93507,3.48694,3.48694,0,0,0-.20772,1.29005v9.57588h-5.26976Z" transform="translate(-111.29787 -3.04255)" style="fill:#fff"/><path d="M446.81,458.07855l2.531,8.1502c.27695.98411.62314,2.20634.83085,3.08948h.10463c.2431-.88314.52-2.13853.76315-3.08948l2.08021-8.1502h5.64981l-3.95117,10.93374c-2.42794,6.58738-4.0558,9.23679-5.96369,10.90059a9.80937,9.80937,0,0,1-5.0959,2.27416l-1.10934-4.37953a6.72225,6.72225,0,0,0,2.28792-.88314,6.00265,6.00265,0,0,0,2.18484-2.0707,1.33715,1.33715,0,0,0,.27695-.7475,1.8459,1.8459,0,0,0-.2431-.84848L440.951,458.07855Z" transform="translate(-111.29787 -3.04255)" style="fill:#fff"/><path d="M223.88273,492.84349a43.98442,43.98442,0,0,1,7.14073-.47624c3.25879,0,5.58211.61187,7.14227,1.8341a6.637,6.637,0,0,1,2.49563,5.29733,7.23565,7.23565,0,0,1-2.14945,5.433c-1.80172,1.6638-4.47122,2.4113-7.59154,2.4113a13.59641,13.59641,0,0,1-1.80326-.10248v8.18336h-5.23438Zm5.23438,10.38969a8.20843,8.20843,0,0,0,1.76788.13564c2.808,0,4.542-1.391,4.542-3.73451,0-2.10536-1.49093-3.36226-4.125-3.36226a9.13393,9.13393,0,0,0-2.18484.205Z" transform="translate(-111.29787 -3.04255)" style="fill:#fff"/><path d="M243.5355,504.28662c0-2.44446-.06924-4.04044-.13847-5.46763h4.542l.17386,3.05633h.13848a4.96929,4.96929,0,0,1,4.57585-3.43008,5.55463,5.55463,0,0,1,1.10934.06782v4.85576a7.72333,7.72333,0,0,0-1.42168-.13564,3.37618,3.37618,0,0,0-3.605,2.61476,5.98205,5.98205,0,0,0-.10462,1.15441v8.42147H243.5355Z" transform="translate(-111.29787 -3.04255)" style="fill:#fff"/><path d="M273.1739,506.93453c0,6.078-4.402,8.863-8.944,8.863-4.95742,0-8.77012-3.192-8.77012-8.55711s3.605-8.79522,9.04707-8.79522C269.70739,498.44524,273.1739,501.94313,273.1739,506.93453Zm-12.272.1703c0,2.85136,1.214,4.99139,3.46651,4.99139,2.04482,0,3.36342-2.00289,3.36342-4.99139,0-2.47912-.97087-4.9914-3.36342-4.9914C261.83736,502.11343,260.90188,504.66037,260.90188,507.10483Z" transform="translate(-111.29787 -3.04255)" style="fill:#fff"/><path d="M292.722,498.819c-.06924,1.05344-.13848,2.44446-.13848,4.92358v9.26995c0,3.192-.65852,5.80671-2.56487,7.47051a10.60551,10.60551,0,0,1-6.89916,2.03755,13.446,13.446,0,0,1-6.10062-1.29l1.0401-3.9048a10.59863,10.59863,0,0,0,4.922,1.25538c2.49564,0,4.40352-1.3232,4.40352-4.37952V513.115h-.06923a5.46231,5.46231,0,0,1-4.57585,2.17318c-4.19581,0-7.17612-3.3276-7.17612-8.11554,0-5.33048,3.53575-8.7274,7.69463-8.7274a5.1424,5.1424,0,0,1,4.64663,2.34348h.06923l.17233-1.96973Zm-5.4067,6.75767a4.00714,4.00714,0,0,0-.10463-.95095,2.87714,2.87714,0,0,0-2.84337-2.27567c-1.90634,0-3.4665,1.69846-3.4665,4.72012,0,2.47912,1.24782,4.41419,3.4665,4.41419a2.85016,2.85016,0,0,0,2.77413-2.10536,4.298,4.298,0,0,0,.17387-1.35787Z" transform="translate(-111.29787 -3.04255)" style="fill:#fff"/><path d="M296.81015,504.28662c0-2.44446-.06924-4.04044-.13848-5.46763h4.542l.17387,3.05633h.13847a4.9693,4.9693,0,0,1,4.57585-3.43008,5.55468,5.55468,0,0,1,1.10935.06782v4.85576a7.72345,7.72345,0,0,0-1.42169-.13564,3.37618,3.37618,0,0,0-3.605,2.61476,5.98123,5.98123,0,0,0-.10463,1.15441v8.42147h-5.26976Z" transform="translate(-111.29787 -3.04255)" style="fill:#fff"/><path d="M319.23858,515.42382l-.31234-1.6638h-.10309a6.16641,6.16641,0,0,1-4.85433,2.03755,5.1476,5.1476,0,0,1-5.47748-5.09388c0-4.3117,3.9527-6.38392,9.95024-6.34925v-.23812c0-.88314-.48621-2.13852-3.08493-2.13852a9.69515,9.69515,0,0,0-4.68048,1.25538l-.97087-3.3276a14.2334,14.2334,0,0,1,6.58683-1.46034c5.65134,0,7.45306,3.25978,7.45306,7.16458v5.77356a25.1268,25.1268,0,0,0,.24311,4.04044Zm-.62314-7.84427c-2.77413-.03315-4.92358.61187-4.92358,2.61476a1.87572,1.87572,0,0,0,2.08022,1.96973,2.87354,2.87354,0,0,0,2.73874-1.90192,3.63173,3.63173,0,0,0,.10462-.88313Z" transform="translate(-111.29787 -3.04255)" style="fill:#fff"/><path d="M327.90254,504.11632c0-2.07071-.06924-3.837-.13848-5.29733h4.43738l.2431,2.241h.10463a5.90739,5.90739,0,0,1,5.12975-2.61476,4.811,4.811,0,0,1,4.64508,2.81821h.06924a7.55842,7.55842,0,0,1,2.18484-2.00289,6.21991,6.21991,0,0,1,3.2234-.81532c3.2588,0,5.72059,2.241,5.72059,7.19924v9.77934h-5.13129V506.392c0-2.41131-.797-3.80383-2.49564-3.80383a2.57183,2.57183,0,0,0-2.4264,1.79943,4.24875,4.24875,0,0,0-.20772,1.32471v9.71152h-5.13129v-9.30461c0-2.10386-.76315-3.531-2.4264-3.531a2.67226,2.67226,0,0,0-2.46179,1.86725,3.38383,3.38383,0,0,0-.20771,1.29155v9.67686h-5.13129Z" transform="translate(-111.29787 -3.04255)" style="fill:#fff"/><path d="M367.34809,515.42382l-.31234-1.6638h-.10309a6.16643,6.16643,0,0,1-4.85434,2.03755,5.1476,5.1476,0,0,1-5.47748-5.09388c0-4.3117,3.95271-6.38392,9.95024-6.34925v-.23812c0-.88314-.4862-2.13852-3.08493-2.13852a9.69507,9.69507,0,0,0-4.68047,1.25538l-.97087-3.3276a14.23331,14.23331,0,0,1,6.58682-1.46034c5.65135,0,7.45307,3.25978,7.45307,7.16458v5.77356a25.12815,25.12815,0,0,0,.2431,4.04044Zm-.62314-7.84427c-2.77413-.03315-4.92358.61187-4.92358,2.61476a1.87572,1.87572,0,0,0,2.08021,1.96973,2.87353,2.87353,0,0,0,2.73874-1.90192,3.63124,3.63124,0,0,0,.10463-.88313Z" transform="translate(-111.29787 -3.04255)" style="fill:#fff"/><path d="M388.73488,515.01691a13.10653,13.10653,0,0,1-4.71433.746c-5.47748,0-8.97783-3.25978-8.97783-8.48929,0-4.85425,3.39726-8.82838,9.7056-8.82838a12.46959,12.46959,0,0,1,4.02194.645l-.83239,3.837a7.35042,7.35042,0,0,0-2.94645-.50788,4.6522,4.6522,0,0,0,.10462,9.3031,8.27084,8.27084,0,0,0,3.0157-.50939Z" transform="translate(-111.29787 -3.04255)" style="fill:#fff"/><path d="M397.088,494.20135a2.62273,2.62273,0,0,1-2.84336,2.58009,2.60207,2.60207,0,1,1,.03539-5.19485A2.61922,2.61922,0,0,1,397.088,494.20135Zm-5.44363,21.22247V498.819h5.26977v16.60483Z" transform="translate(-111.29787 -3.04255)" style="fill:#fff"/><path d="M417.88707,506.93453c0,6.078-4.402,8.863-8.944,8.863-4.95742,0-8.77012-3.192-8.77012-8.55711s3.605-8.79522,9.04708-8.79522C414.42056,498.44524,417.88707,501.94313,417.88707,506.93453Zm-12.272.1703c0,2.85136,1.214,4.99139,3.46651,4.99139,2.04482,0,3.36342-2.00289,3.36342-4.99139,0-2.47912-.97087-4.9914-3.36342-4.9914C406.55053,502.11343,405.61505,504.66037,405.61505,507.10483Zm8.944-15.51824-4.22966,5.1617H406.689l2.98184-5.1617Z" transform="translate(-111.29787 -3.04255)" style="fill:#fff"/><path d="M421.14125,504.11632c0-2.07071-.06924-3.837-.13848-5.29733h4.57585l.2431,2.27567h.10463a6.23391,6.23391,0,0,1,5.23438-2.64942c3.4665,0,6.06677,2.241,6.06677,7.13142v9.84716h-5.26977v-9.20213c0-2.13853-.76315-3.59887-2.6695-3.59887a2.80558,2.80558,0,0,0-2.6695,1.93507,3.48687,3.48687,0,0,0-.20772,1.29005v9.57588h-5.26976Z" transform="translate(-111.29787 -3.04255)" style="fill:#fff"/><path d="M246.10346,532.05728v19.15025c0,1.86876.06923,3.837.13847,4.95824H241.563l-.2431-2.44446h-.06924a5.94987,5.94987,0,0,1-5.30361,2.81821c-4.02195,0-7.24535-3.36226-7.24535-8.524-.03539-5.60175,3.53574-8.82838,7.59154-8.82838,2.08021,0,3.7096.71435,4.47122,1.86876h.06924v-8.99867Zm-5.26977,14.53261a7.9827,7.9827,0,0,0-.06924-.9163,3.14556,3.14556,0,0,0-3.08493-2.54693c-2.39255,0-3.64037,2.10536-3.64037,4.72012,0,2.81821,1.42168,4.58449,3.60652,4.58449a3.06734,3.06734,0,0,0,3.04954-2.47912,4.28974,4.28974,0,0,0,.13848-1.18908Z" transform="translate(-111.29787 -3.04255)" style="fill:#fff"/><path d="M254.38737,549.51058c.17233,2.13852,2.32178,3.15729,4.78357,3.15729a15.2171,15.2171,0,0,0,4.68047-.67817l.69238,3.49638a17.03211,17.03211,0,0,1-6.136,1.01878c-5.75443,0-9.04707-3.25978-9.04707-8.45463,0-4.21073,2.668-8.863,8.56241-8.863,5.47748,0,7.55769,4.17758,7.55769,8.28584a12.01641,12.01641,0,0,1-.17386,2.03755Zm6.20525-3.53105c0-1.25689-.55544-3.36226-2.98184-3.36226a3.418,3.418,0,0,0-3.25879,3.36226Z" transform="translate(-111.29787 -3.04255)" style="fill:#fff"/><path d="M281.24857,550.29124l-1.66325,5.87453h-5.47748l7.14073-22.88627h6.93455l7.24535,22.88627h-5.68519L287.94,550.29124Zm5.92829-3.87014-1.45553-4.85576c-.41543-1.35937-.83239-3.05633-1.17858-4.4157h-.06924c-.34619,1.35937-.69392,3.091-1.07549,4.4157l-1.3863,4.85576Z" transform="translate(-111.29787 -3.04255)" style="fill:#fff"/><path d="M298.16259,544.85827c0-2.0707-.06923-3.837-.13847-5.29733h4.43737l.2431,2.241h.10463a5.90744,5.90744,0,0,1,5.12975-2.61476,4.81106,4.81106,0,0,1,4.64509,2.81821h.06924a7.55853,7.55853,0,0,1,2.18483-2.00289,6.21992,6.21992,0,0,1,3.22341-.81532c3.25879,0,5.72058,2.241,5.72058,7.19924v9.77934h-5.13129v-9.03183c0-2.4113-.797-3.80383-2.49564-3.80383a2.57183,2.57183,0,0,0-2.4264,1.79943,4.24883,4.24883,0,0,0-.20771,1.32471v9.71152h-5.13129v-9.30461c0-2.10386-.76316-3.53105-2.4264-3.53105a2.67225,2.67225,0,0,0-2.46179,1.86725,3.38368,3.38368,0,0,0-.20772,1.29155v9.67686h-5.13129Z" transform="translate(-111.29787 -3.04255)" style="fill:#fff"/><path d="M327.8333,556.16577c.06924-1.08659.13848-3.08948.13848-4.95824V532.05728h5.26976v9.4734h.06924a6.0211,6.0211,0,0,1,5.13129-2.34349c4.0558,0,7.03764,3.29444,7.00225,8.38832,0,5.9755-3.88193,8.964-7.7654,8.964A5.65861,5.65861,0,0,1,332.583,553.857h-.06923l-.20772,2.30882Zm5.40824-7.0621a3.71237,3.71237,0,0,0,.10463.91629,3.17374,3.17374,0,0,0,3.08493,2.44446c2.25407,0,3.64037-1.697,3.64037-4.68546,0-2.5816-1.17858-4.61764-3.64037-4.61764a3.24657,3.24657,0,0,0-3.08493,2.54543,4.22291,4.22291,0,0,0-.10463.951Z" transform="translate(-111.29787 -3.04255)" style="fill:#fff"/><path d="M354.14213,534.9433a2.62273,2.62273,0,0,1-2.84337,2.58009,2.60207,2.60207,0,1,1,.03539-5.19484A2.61922,2.61922,0,0,1,354.14213,534.9433Zm-5.44363,21.22247V539.56094h5.26977v16.60483Z" transform="translate(-111.29787 -3.04255)" style="fill:#fff"/><path d="M362.25372,549.51058c.17233,2.13852,2.32178,3.15729,4.78357,3.15729a15.2171,15.2171,0,0,0,4.68047-.67817l.69238,3.49638a17.03211,17.03211,0,0,1-6.136,1.01878c-5.75443,0-9.04707-3.25978-9.04707-8.45463,0-4.21073,2.668-8.863,8.56241-8.863,5.47748,0,7.55769,4.17758,7.55769,8.28584a12.0151,12.0151,0,0,1-.17387,2.03755Zm6.20525-3.53105c0-1.25689-.55544-3.36226-2.98184-3.36226a3.418,3.418,0,0,0-3.2588,3.36226Z" transform="translate(-111.29787 -3.04255)" style="fill:#fff"/><path d="M376.49671,544.85827c0-2.0707-.06924-3.837-.13848-5.29733h4.57585l.24311,2.27567h.10462a6.23391,6.23391,0,0,1,5.23438-2.64942c3.46651,0,6.06677,2.241,6.06677,7.13143v9.84715h-5.26977v-9.20213c0-2.13852-.76315-3.59887-2.6695-3.59887a2.80559,2.80559,0,0,0-2.6695,1.93507,3.48692,3.48692,0,0,0-.20771,1.29v9.57588h-5.26977Z" transform="translate(-111.29787 -3.04255)" style="fill:#fff"/><path d="M402.49628,534.80767v4.75327h3.77884v3.80383h-3.77884v6.01017c0,2.00289.48466,2.91918,2.08021,2.91918a8.79785,8.79785,0,0,0,1.56016-.13563l.03384,3.9048a10.51212,10.51212,0,0,1-3.43265.44157,5.546,5.546,0,0,1-3.95117-1.42568c-.97087-.98412-1.45554-2.5801-1.45554-4.92358v-6.79083h-2.25407v-3.80383h2.25407v-3.59886Z" transform="translate(-111.29787 -3.04255)" style="fill:#fff"/><path d="M413.20659,549.51058c.17233,2.13852,2.32178,3.15729,4.78357,3.15729a15.2171,15.2171,0,0,0,4.68047-.67817l.69238,3.49638a17.03211,17.03211,0,0,1-6.136,1.01878c-5.75443,0-9.04707-3.25978-9.04707-8.45463,0-4.21073,2.668-8.863,8.56241-8.863,5.47748,0,7.55769,4.17758,7.55769,8.28584a12.01641,12.01641,0,0,1-.17386,2.03755Zm6.20525-3.53105c0-1.25689-.55544-3.36226-2.98184-3.36226a3.418,3.418,0,0,0-3.25879,3.36226Z" transform="translate(-111.29787 -3.04255)" style="fill:#fff"/><path d="M427.41727,551.6491a10.46536,10.46536,0,0,0,4.54046,1.25689c1.59555,0,2.25408-.544,2.25408-1.39253s-.52006-1.25538-2.49564-1.90191c-3.5019-1.15441-4.85434-3.02166-4.81895-4.99139,0-3.08948,2.70335-5.433,6.89916-5.433a11.57359,11.57359,0,0,1,4.78356.951l-.93548,3.56571a8.4655,8.4655,0,0,0-3.67575-.951c-1.28167,0-2.011.50939-2.011,1.35787,0,.78216.66007,1.18907,2.73874,1.90191,3.22494,1.0866,4.57739,2.68258,4.61124,5.127,0,3.091-2.49564,5.36515-7.35,5.36515a12.195,12.195,0,0,1-5.47594-1.15441Z" transform="translate(-111.29787 -3.04255)" style="fill:#fff"/></g><path d="M269.98871,341.05429a20.37388,20.37388,0,0,0,9.59972,2.48117c4.6541,0,7.245-2.1341,7.245-5.30695,0-2.94146-2.00287-4.67434-7.06911-6.46138-6.53636-2.30886-10.718-5.71062-10.718-11.308,0-6.34569,5.41807-11.19234,14.01761-11.19234a21.33634,21.33634,0,0,1,9.54192,1.9618l-1.76665,5.71063a17.11247,17.11247,0,0,0-7.89338-1.84611c-4.5938,0-6.59667,2.42456-6.59667,4.67435,0,3.00054,2.2969,4.38389,7.59685,6.4023,6.8932,2.54025,10.25059,5.94447,10.25059,11.53941,0,6.23-4.83,11.65264-15.0781,11.65264a23.97414,23.97414,0,0,1-10.72052-2.42209Z" transform="translate(-111.29787 -3.04255)" style="fill:#fff"/><path d="M307.98048,309.90183v38.884h-7.245v-38.884Z" transform="translate(-111.29787 -3.04255)" style="fill:#fff"/><path d="M348.08821,346.9963a40.03131,40.03131,0,0,1-12.7812,2.19318c-6.71226,0-11.7785-1.67381-15.548-5.19126-3.5333-3.28854-5.59648-8.42318-5.53617-14.30857,0-12.2877,8.95136-20.19151,22.0869-20.19151a26.84076,26.84076,0,0,1,10.5421,1.84611l-1.59074,5.71063a21.771,21.771,0,0,0-9.01168-1.67134c-8.48142,0-14.42973,4.90326-14.42973,13.9615,0,8.82686,5.53617,14.07473,13.78389,14.07473a14.11207,14.11207,0,0,0,5.47586-.80736v-9.69084h-7.0088v-5.5974h14.0176Z" transform="translate(-111.29787 -3.04255)" style="fill:#fff"/><path d="M355.51166,310.4212a64.2119,64.2119,0,0,1,11.07235-.80737c5.30246,0,9.1901,1.09536,11.7207,3.17285a10.88418,10.88418,0,0,1,3.88764,8.59548,11.64888,11.64888,0,0,1-3.41519,8.82686c-2.88745,2.82824-7.42093,4.155-12.545,4.155a20.93457,20.93457,0,0,1-3.53582-.23137v14.65317h-7.18471Zm7.18471,18.114a14.88853,14.88853,0,0,0,3.53582.29046c5.41806,0,8.71514-2.59686,8.71514-7.15552,0-4.32482-3.06086-6.63368-8.0693-6.63368a20.301,20.301,0,0,0-4.18166.34707Z" transform="translate(-111.29787 -3.04255)" style="fill:#fff"/><path d="M392.20672,337.76576l-3.41519,11.02h-7.48125l12.7234-38.884h9.24539l12.89931,38.884h-7.77527l-3.5911-11.02Zm11.36888-5.36356-3.12368-9.57761c-.76395-2.36549-1.41231-5.019-2.00036-7.26875h-.11811c-.59056,2.24979-1.1786,4.96234-1.88476,7.26875l-3.06337,9.57761Z" transform="translate(-111.29787 -3.04255)" style="fill:#fff"/></svg>