<svg xmlns="http://www.w3.org/2000/svg" viewBox="19 56 85.69 75.2"><defs><style>.cls-1{opacity:0.05;}.cls-2{fill:none;stroke:#fff;stroke-miterlimit:10;stroke-width:0.75px;}</style></defs><g id="Capa_3" data-name="Capa 3"><rect class="cls-2" x="20.09" y="64.94" width="83.29" height="55.96"/><rect class="cls-2" x="20.09" y="57.78" width="5.21" height="5.21"/><rect class="cls-2" x="26.59" y="57.78" width="5.21" height="5.21"/><rect class="cls-2" x="33.1" y="57.78" width="5.21" height="5.21"/><rect class="cls-2" x="39.61" y="57.78" width="5.21" height="5.21"/><rect class="cls-2" x="46.11" y="57.78" width="5.21" height="5.21"/><rect class="cls-2" x="52.62" y="57.78" width="5.21" height="5.21"/><rect class="cls-2" x="59.13" y="57.78" width="5.21" height="5.21"/><rect class="cls-2" x="65.63" y="57.78" width="5.21" height="5.21"/><rect class="cls-2" x="72.14" y="57.78" width="5.21" height="5.21"/><rect class="cls-2" x="78.65" y="57.78" width="5.21" height="5.21"/><rect class="cls-2" x="85.15" y="57.78" width="5.21" height="5.21"/><rect class="cls-2" x="91.66" y="57.78" width="5.21" height="5.21"/><rect class="cls-2" x="98.17" y="57.78" width="5.21" height="5.21"/><rect class="cls-2" x="20.09" y="124.15" width="5.21" height="5.21"/><rect class="cls-2" x="26.59" y="124.15" width="5.21" height="5.21"/><rect class="cls-2" x="33.1" y="124.15" width="5.21" height="5.21"/><rect class="cls-2" x="39.61" y="124.15" width="5.21" height="5.21"/><rect class="cls-2" x="46.11" y="124.15" width="5.21" height="5.21"/><rect class="cls-2" x="52.62" y="124.15" width="5.21" height="5.21"/><rect class="cls-2" x="59.13" y="124.15" width="5.21" height="5.21"/><rect class="cls-2" x="65.63" y="124.15" width="5.21" height="5.21"/><rect class="cls-2" x="72.14" y="124.15" width="5.21" height="5.21"/><rect class="cls-2" x="78.65" y="124.15" width="5.21" height="5.21"/><rect class="cls-2" x="85.15" y="124.15" width="5.21" height="5.21"/><rect class="cls-2" x="91.66" y="124.15" width="5.21" height="5.21"/><rect class="cls-2" x="98.17" y="124.15" width="5.21" height="5.21"/><rect class="cls-2" x="44.16" y="75.35" width="33.18" height="33.18" rx="16.59"/><polygon class="cls-2" points="71.49 92.35 55.22 82.96 55.22 101.75 71.49 92.35"/></g></svg>